<?xml version="1.0" encoding="UTF-8"?>
<svg id="botones" xmlns="http://www.w3.org/2000/svg" xmlns:xlink="http://www.w3.org/1999/xlink" viewBox="0 0 278 91">
  <defs>
    <style>
      .cls-1, .cls-2 {
        fill: #fff;
      }

      .cls-3, .cls-4 {
        fill: #7f9c2b;
      }

      .cls-5 {
        fill: none;
        filter: url(#drop-shadow-66);
      }

      .cls-4, .cls-2 {
        fill-rule: evenodd;
      }
    </style>
    <filter id="drop-shadow-66" filterUnits="userSpaceOnUse">
      <feOffset dx="0" dy="2.66"/>
      <feGaussianBlur result="blur" stdDeviation="2.65"/>
      <feFlood flood-color="#4c4387" flood-opacity=".8"/>
      <feComposite in2="blur" operator="in"/>
      <feComposite in="SourceGraphic"/>
    </filter>
  </defs>
  <g class="cls-5">
    <rect class="cls-3" x="2.55" y="21.07" width="253.68" height="46.64" rx="7.83" ry="7.83"/>
    <g>
      <path class="cls-2" d="m227.17,45.23l-22.41-25.28c-1.77-2-1.77-5.25,0-7.25,1.77-2,4.65-2,6.42,0l16.07,18.12c-1.77-2-1.77-5.25,0-7.25,1.58-1.78,4.04-1.98,5.81-.58-1.24-2-1.07-4.77.51-6.56s4.27-1.99,6.05-.38c-1.43-2.01-1.32-4.96.34-6.82,1.77-2,4.65-2,6.42,0l13.84,15.61c.18.2.34.42.49.65l4.77,5.39c3.84,4.33,3.84,11.37,0,15.7l-11.59,13.08c-3.04,3.43-7.59,4.15-11.26,2.14-.17-.04-.33-.09-.5-.15l-25.45-9.56c-2.38-.89-3.67-3.8-2.87-6.48.79-2.68,3.37-4.14,5.75-3.24l7.61,2.86Z"/>
      <path class="cls-4" d="m227.17,45.23l-22.41-25.28c-1.77-2-1.77-5.25,0-7.25,1.77-2,4.65-2,6.42,0l16.07,18.12c-1.77-2-1.77-5.25,0-7.25,1.58-1.78,4.04-1.98,5.81-.58-1.24-2-1.07-4.77.51-6.56s4.27-1.99,6.05-.38c-1.43-2.01-1.32-4.96.34-6.82,1.77-2,4.65-2,6.42,0l13.84,15.61c.18.2.34.42.49.65l4.77,5.39c3.84,4.33,3.84,11.37,0,15.7l-11.59,13.08c-3.04,3.43-7.59,4.15-11.26,2.14-.17-.04-.33-.09-.5-.15l-25.45-9.56c-2.38-.89-3.67-3.8-2.87-6.48.79-2.68,3.37-4.14,5.75-3.24l7.61,2.86Zm6.8-35.55c.44-1.65,1.24-3.2,2.39-4.5,3.76-4.24,9.86-4.24,13.61,0l13.84,15.61c.26.29.5.59.72.91l4.54,5.13c5.83,6.57,5.83,17.24,0,23.81l-11.59,13.08c-4.47,5.05-11.09,6.22-16.56,3.51-.13-.04-.27-.09-.4-.14l-25.45-9.56c-5.04-1.89-7.77-8.05-6.09-13.73.78-2.65,2.39-4.74,4.39-6.01l-12.22-13.78c-3.76-4.24-3.76-11.12,0-15.36,3.76-4.24,9.86-4.24,13.61,0l9.27,10.46c1.06-1.06,2.27-1.82,3.55-2.27.45-1.63,1.24-3.16,2.38-4.45,1.15-1.3,2.53-2.2,3.99-2.7Z"/>
    </g>
  </g>
  <g>
    <path class="cls-1" d="m23.55,39.51c-.61-.42-1.63-.79-3.07-.79-2.97,0-5.07,2.25-5.07,5.39,0,2.25,1.46,4.24,3.82,4.24,1.13,0,2.05-.37,2.82-.83l-.42,2.57c-.98.27-2.02.37-3.03.37-4.05,0-5.99-2.73-5.99-6.35,0-4.32,2.94-7.51,7.68-7.51,1.34,0,2.76.17,3.93.65l-.67,2.25Z"/>
    <path class="cls-1" d="m35.14,44.46c0,3.47-2.4,6.01-5.89,6.01-2.8,0-4.49-1.73-4.49-4.51,0-3.3,2.53-5.84,5.85-5.84,2.67,0,4.53,1.61,4.53,4.34Zm-2.69.02c0-1.29-.44-2.36-1.96-2.36-2.03,0-3.05,2.25-3.05,4.03,0,1.31.54,2.32,2.02,2.32,2,0,2.99-2.3,2.99-3.99Z"/>
    <path class="cls-1" d="m38.89,41.77c.12-.6.21-1.11.25-1.42h2.51l-.17.96h.04c.71-.65,1.69-1.19,2.8-1.19,1.94,0,3.22,1.21,3.22,3.17,0,.75-.19,1.54-.33,2.15l-1.04,4.8h-2.57l.96-4.66c.13-.67.29-1.34.29-2.07,0-.83-.58-1.38-1.4-1.38-1.79,0-2.44,1.67-2.76,3.15l-1.06,4.97h-2.57l1.82-8.46Z"/>
    <path class="cls-1" d="m57.28,42.46c-.67-.25-1.38-.46-2.11-.46-.77,0-1.73.21-1.73,1,0,1.25,3.34,1.71,3.34,4.13,0,2.57-2.25,3.34-4.45,3.34-1.04,0-2.07-.15-3.01-.59l.56-2.05c.73.4,1.46.77,2.46.77.86,0,1.77-.29,1.77-1.09,0-1.59-3.34-1.75-3.34-4.22,0-2.32,2.25-3.15,4.28-3.15.94,0,1.9.17,2.8.4l-.56,1.94Z"/>
    <path class="cls-1" d="m68.53,48.82c-.12.6-.21,1.11-.25,1.42h-2.51l.17-.96h-.04c-.71.65-1.69,1.19-2.8,1.19-1.94,0-3.23-1.21-3.23-3.17,0-.75.19-1.54.33-2.15l1.04-4.8h2.57l-.96,4.66c-.13.67-.29,1.34-.29,2.07,0,.83.58,1.38,1.4,1.38,1.79,0,2.44-1.67,2.76-3.15l1.06-4.97h2.57l-1.82,8.46Z"/>
    <path class="cls-1" d="m74.99,35.84h2.57l-3.05,14.4h-2.57l3.05-14.4Z"/>
    <path class="cls-1" d="m79.25,40.35h1.86l.44-2.04,2.76-.9-.63,2.94h2.3l-.4,1.88h-2.3l-.94,4.32c-.06.23-.12.58-.12.96,0,.59.4.96.98.96.46,0,.92-.1,1.25-.23l-.44,2c-.44.1-.94.23-1.38.23-1.75,0-2.98-.69-2.98-2.59,0-.77.15-1.52.33-2.3l.73-3.34h-1.86l.4-1.88Z"/>
    <path class="cls-1" d="m92.94,48.72h-.04c-.88,1.11-1.77,1.75-3.19,1.75-1.79,0-3.05-1-3.05-2.82,0-3.26,3.65-3.51,6.07-3.51h.9c.08-.27.08-.56.08-.84,0-1-1.08-1.29-1.98-1.29-1.13,0-2.23.29-3.24.77l.37-2.05c1.09-.38,2.21-.6,3.36-.6,1.98,0,3.84.73,3.84,3.05,0,1.32-.98,5.2-1.21,7.06h-2.17l.27-1.52Zm-2.51-.13c1.92,0,2.51-1.33,2.92-2.92h-.9c-1.25,0-3.32.21-3.32,1.88,0,.69.65,1.04,1.3,1.04Z"/>
    <path class="cls-1" d="m107.26,46.09c0,1.82.98,2.5,2.75,2.5,1.06,0,2.07-.27,3.03-.71l-.33,2.04c-1,.31-2.09.56-3.15.56-2.84,0-4.76-1.38-4.76-4.32s2.38-6.03,5.62-6.03c2.44,0,4.05,1.25,4.05,3.76,0,.75-.1,1.48-.25,2.21h-6.97Zm4.7-1.77c.04-.23.06-.44.06-.67,0-1.06-.56-1.65-1.63-1.65-1.59,0-2.28.96-2.78,2.32h4.36Z"/>
    <path class="cls-1" d="m119.28,35.84h2.57l-3.05,14.4h-2.57l3.05-14.4Z"/>
    <path class="cls-1" d="m131.57,36.84h2.8l-2.82,13.4h-2.8l2.82-13.4Z"/>
    <path class="cls-1" d="m136.94,41.77c.12-.6.21-1.11.25-1.42h2.51l-.17.96h.04c.71-.65,1.69-1.19,2.8-1.19,1.94,0,3.22,1.21,3.22,3.17,0,.75-.19,1.54-.33,2.15l-1.04,4.8h-2.57l.96-4.66c.13-.67.29-1.34.29-2.07,0-.83-.58-1.38-1.4-1.38-1.79,0-2.44,1.67-2.76,3.15l-1.06,4.97h-2.57l1.82-8.46Z"/>
    <path class="cls-1" d="m150.42,42.23h-2l.4-1.88h2c.52-2.51,1.36-4.74,4.36-4.74.59,0,1.17.12,1.59.25l-.59,1.92c-.23-.12-.52-.17-.79-.17-1.42,0-1.75,1.71-2,2.75h2.3l-.4,1.88h-2.3l-1.69,8h-2.57l1.69-8Z"/>
    <path class="cls-1" d="m167.01,44.46c0,3.47-2.4,6.01-5.89,6.01-2.8,0-4.49-1.73-4.49-4.51,0-3.3,2.53-5.84,5.85-5.84,2.67,0,4.53,1.61,4.53,4.34Zm-2.69.02c0-1.29-.44-2.36-1.96-2.36-2.03,0-3.05,2.25-3.05,4.03,0,1.31.54,2.32,2.02,2.32,2,0,2.99-2.3,2.99-3.99Z"/>
    <path class="cls-1" d="m170.7,41.68c.08-.42.15-.86.23-1.32h2.46l-.35,1.86h.04c.46-1.08,1.73-2.09,2.92-2.09.33,0,.67.02.98.1l-.54,2.51c-.29-.1-.65-.15-.98-.15-1.82,0-2.71,1.63-3.03,3.22l-.92,4.43h-2.57l1.77-8.56Z"/>
    <path class="cls-1" d="m179.16,41.44c.08-.38.15-.79.21-1.09h2.4l-.23,1.32h.04c.69-1.02,1.82-1.55,3.03-1.55s2.38.69,2.51,1.88h.04c.65-1.29,2.09-1.88,3.47-1.88,1.48,0,2.75,1.21,2.75,2.71,0,.88-.23,1.88-.44,2.69l-1.04,4.72h-2.57l1.04-4.82c.13-.59.33-1.52.33-2.11,0-.73-.56-1.19-1.21-1.19-1.79,0-2.23,2.07-2.55,3.42l-1.02,4.7h-2.57l1.04-4.82c.13-.59.33-1.52.33-2.11,0-.73-.56-1.19-1.21-1.19-1.75,0-2.23,2.09-2.55,3.42l-1.02,4.7h-2.57l1.8-8.79Z"/>
    <path class="cls-1" d="m198.06,46.09c0,1.82.98,2.5,2.75,2.5,1.06,0,2.07-.27,3.03-.71l-.33,2.04c-1,.31-2.09.56-3.15.56-2.84,0-4.76-1.38-4.76-4.32s2.38-6.03,5.62-6.03c2.44,0,4.05,1.25,4.05,3.76,0,.75-.1,1.48-.25,2.21h-6.97Zm4.7-1.77c.04-.23.06-.44.06-.67,0-1.06-.56-1.65-1.63-1.65-1.59,0-2.28.96-2.78,2.32h4.36Z"/>
  </g>
</svg>