<?xml version="1.0" encoding="UTF-8"?>
<svg id="botones" xmlns="http://www.w3.org/2000/svg" xmlns:xlink="http://www.w3.org/1999/xlink" viewBox="0 0 278 91">
  <defs>
    <style>
      .cls-1 {
        fill: #fff;
      }

      .cls-2 {
        fill: #292759;
      }

      .cls-3 {
        fill: none;
        filter: url(#drop-shadow-64);
      }
    </style>
    <filter id="drop-shadow-64" filterUnits="userSpaceOnUse">
      <feOffset dx="0" dy="4.6"/>
      <feGaussianBlur result="blur" stdDeviation="2.3"/>
      <feFlood flood-color="#172242" flood-opacity=".7"/>
      <feComposite in2="blur" operator="in"/>
      <feComposite in="SourceGraphic"/>
    </filter>
  </defs>
  <g class="cls-3">
    <path class="cls-2" d="m12.45,20.24h224.89c5.36,0,9.71,3.45,9.71,7.71v30.48c0,4.26-4.35,7.71-9.71,7.71H12.45c-5.36,0-9.71-3.45-9.71-7.71v-30.48c0-4.26,4.35-7.71,9.71-7.71Z"/>
    <g>
      <path class="cls-1" d="m30.91,30.16l.25-2.59,1.89.41-.83,2.45,2.56-.49.14,1.87h-2.54l1.28,2.12-1.8.83-.81-2.49-1.85,2.05-1.3-1.42,2.23-1.55-2.38-1.04,1.01-1.73,2.14,1.57Z"/>
      <path class="cls-1" d="m39.44,27.56h3.78c2.63,0,5.62,1.01,5.62,5.37,0,2.92-1.48,7.2-7.81,7.2h-4.23l2.65-12.57Zm.31,10.59h1.17c3.64,0,5.29-2.12,5.29-5.58,0-1.96-1.53-3.02-3.8-3.02h-.86l-1.8,8.61Z"/>
      <path class="cls-1" d="m52.83,36.24c0,1.71.92,2.34,2.58,2.34.99,0,1.94-.25,2.84-.67l-.31,1.91c-.94.29-1.96.52-2.95.52-2.67,0-4.47-1.3-4.47-4.05s2.23-5.65,5.28-5.65c2.29,0,3.8,1.17,3.8,3.53,0,.7-.09,1.39-.23,2.07h-6.54Zm4.41-1.66c.04-.22.05-.41.05-.63,0-.99-.52-1.55-1.53-1.55-1.49,0-2.14.9-2.61,2.18h4.09Z"/>
      <path class="cls-1" d="m68.12,32.84c-.63-.23-1.3-.43-1.98-.43-.72,0-1.62.2-1.62.94,0,1.17,3.13,1.6,3.13,3.87,0,2.41-2.11,3.13-4.18,3.13-.97,0-1.94-.14-2.83-.56l.52-1.93c.68.38,1.37.72,2.3.72.81,0,1.66-.27,1.66-1.03,0-1.49-3.13-1.64-3.13-3.96,0-2.18,2.11-2.95,4.01-2.95.88,0,1.78.16,2.63.38l-.52,1.82Z"/>
      <path class="cls-1" d="m77.42,32.98c-.47-.31-1.1-.47-1.76-.47-1.93,0-3.01,1.8-3.01,3.55,0,1.21.4,2.41,2.05,2.41.59,0,1.33-.16,1.96-.47l-.27,1.91c-.74.36-1.53.43-2.32.43-2.39,0-3.94-1.6-3.94-4,0-3.24,2.14-5.71,5.47-5.71.9,0,1.76.16,2.41.36l-.59,1.98Z"/>
      <path class="cls-1" d="m84.37,38.71h-.04c-.83,1.04-1.66,1.64-2.99,1.64-1.67,0-2.86-.94-2.86-2.65,0-3.06,3.42-3.29,5.69-3.29h.85c.07-.25.07-.52.07-.79,0-.94-1.01-1.21-1.85-1.21-1.06,0-2.09.27-3.04.72l.34-1.93c1.03-.36,2.07-.56,3.15-.56,1.85,0,3.6.68,3.6,2.86,0,1.24-.92,4.88-1.13,6.63h-2.04l.25-1.42Zm-2.36-.13c1.8,0,2.36-1.24,2.74-2.74h-.85c-1.17,0-3.12.2-3.12,1.76,0,.65.61.97,1.22.97Z"/>
      <path class="cls-1" d="m90.86,32.1c.07-.4.14-.81.22-1.24h2.3l-.32,1.75h.04c.43-1.01,1.62-1.96,2.74-1.96.31,0,.63.02.92.09l-.5,2.36c-.27-.09-.61-.14-.92-.14-1.71,0-2.54,1.53-2.84,3.03l-.86,4.16h-2.41l1.66-8.03Z"/>
      <path class="cls-1" d="m97.25,41.53c.95.4,1.87.72,2.92.72,2.56,0,2.93-1.78,3.51-3.89h-.04c-.61,1.12-1.78,1.76-3.11,1.76-2.25,0-3.22-1.89-3.22-3.92,0-2.77,1.69-5.56,4.7-5.56,1.22,0,2.25.59,2.83,1.57l.27-1.35h2.32c-.07.25-.18.7-.31,1.3l-1.48,6.97c-.59,3.03-1.91,5.01-5.29,5.01-1.26,0-2.52-.18-3.71-.63l.61-1.96Zm5.08-9.02c-1.75,0-2.5,2.29-2.5,3.67,0,1.12.45,2.07,1.53,2.07,1.93,0,2.72-2.04,2.72-3.8,0-1.08-.63-1.94-1.75-1.94Z"/>
      <path class="cls-1" d="m114.54,38.71h-.04c-.83,1.04-1.66,1.64-2.99,1.64-1.67,0-2.86-.94-2.86-2.65,0-3.06,3.42-3.29,5.69-3.29h.85c.07-.25.07-.52.07-.79,0-.94-1.01-1.21-1.85-1.21-1.06,0-2.09.27-3.04.72l.34-1.93c1.03-.36,2.07-.56,3.15-.56,1.85,0,3.6.68,3.6,2.86,0,1.24-.92,4.88-1.13,6.63h-2.04l.25-1.42Zm-2.36-.13c1.8,0,2.36-1.24,2.74-2.74h-.85c-1.17,0-3.12.2-3.12,1.76,0,.65.61.97,1.22.97Z"/>
      <path class="cls-1" d="m130.99,38.71h-.04c-.83,1.04-1.66,1.64-2.99,1.64-1.67,0-2.86-.94-2.86-2.65,0-3.06,3.42-3.29,5.69-3.29h.85c.07-.25.07-.52.07-.79,0-.94-1.01-1.21-1.85-1.21-1.06,0-2.09.27-3.04.72l.34-1.93c1.03-.36,2.07-.56,3.15-.56,1.85,0,3.6.68,3.6,2.86,0,1.24-.92,4.88-1.13,6.63h-2.04l.25-1.42Zm-2.36-.13c1.8,0,2.36-1.24,2.74-2.74h-.85c-1.17,0-3.12.2-3.12,1.76,0,.65.61.97,1.22.97Z"/>
      <path class="cls-1" d="m142.18,38.92l-.04-.04c-.54.99-1.5,1.46-2.77,1.46-2.2,0-3.19-1.84-3.19-3.85,0-2.77,1.51-5.85,4.66-5.85,1.35,0,2.27.43,2.75,1.76h.04l.34-1.55h2.32c-.11.36-.25.9-.4,1.58l-2.43,11.47h-2.41l1.12-4.99Zm-2-.45c1.76,0,2.81-2.05,2.81-3.76,0-1.08-.52-2.2-1.75-2.2-1.73,0-2.54,2.38-2.54,3.76,0,.94.29,2.2,1.48,2.2Z"/>
      <path class="cls-1" d="m156.26,38.8c-.11.56-.2,1.04-.23,1.33h-2.36l.16-.9h-.04c-.67.61-1.58,1.12-2.63,1.12-1.82,0-3.02-1.13-3.02-2.97,0-.7.18-1.44.31-2.02l.97-4.5h2.41l-.9,4.38c-.13.63-.27,1.26-.27,1.94,0,.77.54,1.3,1.31,1.3,1.67,0,2.29-1.57,2.59-2.95l.99-4.66h2.41l-1.71,7.94Z"/>
      <path class="cls-1" d="m161.24,30.86h2.41l-1.98,9.27h-2.41l1.98-9.27Zm1.48-3.89h2.39l-2.3,2.63h-1.55l1.46-2.63Z"/>
      <path class="cls-1" d="m42.1,56.15c0,1.71.92,2.34,2.58,2.34.99,0,1.94-.25,2.84-.67l-.31,1.91c-.94.29-1.96.52-2.95.52-2.66,0-4.46-1.3-4.46-4.05s2.23-5.65,5.28-5.65c2.29,0,3.8,1.17,3.8,3.53,0,.7-.09,1.39-.23,2.07h-6.54Zm4.41-1.66c.04-.22.05-.41.05-.63,0-.99-.52-1.55-1.53-1.55-1.49,0-2.14.9-2.61,2.18h4.09Z"/>
      <path class="cls-1" d="m53.19,46.53h2.41l-2.86,13.5h-2.41l2.86-13.5Z"/>
      <path class="cls-1" d="m69.43,52.89c-.47-.31-1.1-.47-1.76-.47-1.93,0-3.01,1.8-3.01,3.55,0,1.21.4,2.41,2.05,2.41.59,0,1.33-.16,1.96-.47l-.27,1.91c-.74.36-1.53.43-2.32.43-2.39,0-3.94-1.6-3.94-4,0-3.24,2.14-5.71,5.47-5.71.9,0,1.76.16,2.41.36l-.59,1.98Z"/>
      <path class="cls-1" d="m76.38,58.61h-.04c-.83,1.04-1.66,1.64-2.99,1.64-1.67,0-2.86-.94-2.86-2.65,0-3.06,3.42-3.29,5.69-3.29h.85c.07-.25.07-.52.07-.79,0-.94-1.01-1.21-1.85-1.21-1.06,0-2.09.27-3.04.72l.34-1.93c1.03-.36,2.07-.56,3.15-.56,1.85,0,3.6.68,3.6,2.86,0,1.24-.92,4.88-1.13,6.63h-2.04l.25-1.42Zm-2.36-.13c1.8,0,2.36-1.24,2.74-2.74h-.85c-1.17,0-3.12.2-3.12,1.76,0,.65.61.97,1.22.97Z"/>
      <path class="cls-1" d="m84.08,46.53h2.41l-2.86,13.5h-2.41l2.86-13.5Z"/>
      <path class="cls-1" d="m89.44,56.15c0,1.71.92,2.34,2.58,2.34.99,0,1.94-.25,2.84-.67l-.31,1.91c-.94.29-1.96.52-2.95.52-2.66,0-4.46-1.3-4.46-4.05s2.23-5.65,5.28-5.65c2.29,0,3.8,1.17,3.8,3.53,0,.7-.09,1.39-.23,2.07h-6.54Zm4.41-1.66c.04-.22.05-.41.05-.63,0-.99-.52-1.55-1.53-1.55-1.49,0-2.14.9-2.61,2.18h4.09Z"/>
      <path class="cls-1" d="m99.38,52.1c.11-.56.2-1.04.23-1.33h2.36l-.16.9h.04c.67-.61,1.58-1.12,2.63-1.12,1.82,0,3.02,1.13,3.02,2.97,0,.7-.18,1.44-.31,2.02l-.97,4.5h-2.41l.9-4.38c.13-.63.27-1.26.27-1.95,0-.77-.54-1.3-1.31-1.3-1.67,0-2.29,1.57-2.59,2.95l-.99,4.66h-2.41l1.71-7.94Z"/>
      <path class="cls-1" d="m120.86,46.53l-2.5,11.45c-.14.79-.29,1.58-.34,2.05h-2.25l.23-1.37h-.04c-.72,1.01-1.62,1.58-3.03,1.58-2.2,0-3.19-1.84-3.19-3.85,0-2.77,1.51-5.85,4.66-5.85,1.19,0,2.11.45,2.86,1.31l1.17-5.33h2.41Zm-8.59,9.65c0,.94.29,2.2,1.48,2.2,1.76,0,2.81-2.05,2.81-3.76,0-1.08-.52-2.2-1.75-2.2-1.73,0-2.54,2.38-2.54,3.76Z"/>
      <path class="cls-1" d="m126.99,58.61h-.04c-.83,1.04-1.66,1.64-2.99,1.64-1.67,0-2.86-.94-2.86-2.65,0-3.06,3.42-3.29,5.69-3.29h.85c.07-.25.07-.52.07-.79,0-.94-1.01-1.21-1.85-1.21-1.06,0-2.09.27-3.04.72l.34-1.93c1.03-.36,2.07-.56,3.15-.56,1.85,0,3.6.68,3.6,2.86,0,1.24-.92,4.88-1.13,6.63h-2.04l.25-1.42Zm-2.36-.13c1.8,0,2.36-1.24,2.74-2.74h-.85c-1.17,0-3.12.2-3.12,1.76,0,.65.61.97,1.22.97Z"/>
      <path class="cls-1" d="m133.49,52.01c.07-.4.14-.81.22-1.24h2.3l-.32,1.75h.04c.43-1.01,1.62-1.96,2.74-1.96.31,0,.63.02.92.09l-.5,2.36c-.27-.09-.61-.14-.92-.14-1.71,0-2.54,1.53-2.84,3.03l-.86,4.16h-2.41l1.66-8.03Z"/>
      <path class="cls-1" d="m141.54,50.76h2.41l-1.98,9.27h-2.41l1.98-9.27Zm.88-4h2.41l-.5,2.3h-2.41l.5-2.3Z"/>
      <path class="cls-1" d="m155.38,54.62c0,3.26-2.25,5.64-5.53,5.64-2.63,0-4.21-1.62-4.21-4.23,0-3.1,2.38-5.47,5.49-5.47,2.5,0,4.25,1.51,4.25,4.07Zm-2.52.02c0-1.21-.41-2.21-1.84-2.21-1.91,0-2.86,2.11-2.86,3.78,0,1.22.5,2.18,1.89,2.18,1.87,0,2.81-2.16,2.81-3.75Z"/>
    </g>
    <g>
      <circle class="cls-1" cx="231.07" cy="43.19" r="39.62"/>
      <path class="cls-2" d="m231.07,85.38c-23.26,0-42.19-18.93-42.19-42.19S207.81,1,231.07,1s42.19,18.93,42.19,42.19-18.93,42.19-42.19,42.19Zm0-79.24c-20.43,0-37.04,16.62-37.04,37.04s16.62,37.04,37.04,37.04,37.04-16.62,37.04-37.04S251.5,6.15,231.07,6.15Z"/>
    </g>
    <g>
      <path class="cls-2" d="m229.2,54.29h0c.41.47.99.73,1.61.73.08,0,.17,0,.25-.01.57-.04,1.08-.29,1.44-.72l11.41-13.16c.83-.96.72-2.38-.26-3.23-.93-.81-2.24-.72-3.04.21l-7.51,8.67v-23.49c0-1.24-.98-2.21-2.24-2.21s-2.24.95-2.24,2.21v23.49l-7.51-8.67c-.51-.59-1.26-.86-2-.72-.78.15-1.46.75-1.73,1.53-.27.77-.1,1.59.43,2.21l11.41,13.16Z"/>
      <path class="cls-2" d="m253.27,60.77c0,1.36-1.32,2.48-3.29,2.48h-38.24c-1.97,0-3.08-1.11-3.08-2.48s1.1-2.48,3.08-2.48h38.24c1.97,0,3.29,1.12,3.29,2.48Z"/>
    </g>
  </g>
</svg>