<?xml version="1.0" encoding="utf-8"?>
<!-- Generator: Adobe Illustrator 27.7.0, SVG Export Plug-In . SVG Version: 6.00 Build 0)  -->
<svg version="1.1" id="botones" xmlns="http://www.w3.org/2000/svg" xmlns:xlink="http://www.w3.org/1999/xlink" x="0px" y="0px"
	 viewBox="0 0 278 91" style="enable-background:new 0 0 278 91;" xml:space="preserve">
<style type="text/css">
	.st0{fill:#D86F6F;}
	.st1{fill:#FF9999;}
	.st2{fill:#FFFFFF;}
	.st3{enable-background:new    ;}
</style>
<g>
	<path class="st0" d="M12.1,19.3h191.5c5.5,0,9.9,4.4,9.9,9.9v27.3c0,5.5-4.4,9.9-9.9,9.9H12.1c-5.5,0-9.9-4.4-9.9-9.9V29.2
		C2.2,23.8,6.7,19.3,12.1,19.3z"/>
	<circle class="st0" cx="231.9" cy="42" r="42.1"/>
	<path class="st1" d="M266.4,53.1c6.1-19-4.4-39.5-23.4-45.6c-19.1-6.1-39.5,4.4-45.6,23.4c-6.1,19,4.4,39.5,23.4,45.6
		C239.9,82.7,260.3,72.2,266.4,53.1z"/>
	<g>
		<circle class="st0" cx="231.9" cy="42" r="30.8"/>
		<circle class="st2" cx="231.9" cy="42" r="24.5"/>
		<polygon class="st0" points="250,38.2 235.8,38.2 235.8,23.9 228.1,23.9 228.1,38.2 213.8,38.2 213.8,45.9 228.1,45.9 228.1,60.2 
			235.8,60.2 235.8,45.9 250,45.9 		"/>
	</g>
	<g class="st3">
		<path class="st2" d="M44.9,37.6c-0.7-0.5-2-0.9-3.7-0.9c-3.6,0-6.1,2.7-6.1,6.5c0,2.7,1.7,5.1,4.6,5.1c1.4,0,2.5-0.4,3.4-1
			l-0.5,3.1c-1.2,0.3-2.4,0.4-3.6,0.4c-4.9,0-7.2-3.3-7.2-7.6c0-5.2,3.5-9,9.2-9c1.6,0,3.3,0.2,4.7,0.8L44.9,37.6z"/>
		<path class="st2" d="M58.8,43.5c0,4.2-2.9,7.2-7.1,7.2c-3.4,0-5.4-2.1-5.4-5.4c0-4,3-7,7-7C56.6,38.3,58.8,40.3,58.8,43.5z
			 M55.6,43.6c0-1.5-0.5-2.8-2.3-2.8c-2.4,0-3.7,2.7-3.7,4.8c0,1.6,0.6,2.8,2.4,2.8C54.4,48.3,55.6,45.6,55.6,43.6z"/>
		<path class="st2" d="M63.3,40.3c0.1-0.7,0.3-1.3,0.3-1.7h3l-0.2,1.2h0c0.9-0.8,2-1.4,3.4-1.4c2.3,0,3.9,1.4,3.9,3.8
			c0,0.9-0.2,1.8-0.4,2.6l-1.2,5.8H69l1.2-5.6c0.2-0.8,0.3-1.6,0.3-2.5c0-1-0.7-1.7-1.7-1.7c-2.1,0-2.9,2-3.3,3.8l-1.3,6h-3.1
			L63.3,40.3z"/>
		<path class="st2" d="M89.2,43.5c0,4.2-2.9,7.2-7.1,7.2c-3.4,0-5.4-2.1-5.4-5.4c0-4,3-7,7-7C87,38.3,89.2,40.3,89.2,43.5z M86,43.6
			c0-1.5-0.5-2.8-2.3-2.8c-2.4,0-3.7,2.7-3.7,4.8c0,1.6,0.6,2.8,2.4,2.8C84.8,48.3,86,45.6,86,43.6z"/>
		<path class="st2" d="M101.3,41.3c-0.6-0.4-1.4-0.6-2.3-0.6c-2.5,0-3.8,2.3-3.8,4.5c0,1.5,0.5,3.1,2.6,3.1c0.8,0,1.7-0.2,2.5-0.6
			l-0.3,2.4c-0.9,0.5-2,0.6-3,0.6c-3.1,0-5-2-5-5.1c0-4.1,2.7-7.3,7-7.3c1.2,0,2.3,0.2,3.1,0.5L101.3,41.3z"/>
		<path class="st2" d="M106.1,45.5c0,2.2,1.2,3,3.3,3c1.3,0,2.5-0.3,3.6-0.9l-0.4,2.4c-1.2,0.4-2.5,0.7-3.8,0.7
			c-3.4,0-5.7-1.7-5.7-5.2c0-3.7,2.9-7.2,6.7-7.2c2.9,0,4.9,1.5,4.9,4.5c0,0.9-0.1,1.8-0.3,2.6H106.1z M111.7,43.4
			c0-0.3,0.1-0.5,0.1-0.8c0-1.3-0.7-2-2-2c-1.9,0-2.7,1.2-3.3,2.8H111.7z"/>
		<path class="st2" d="M126.6,39.9c0.1-0.5,0.2-0.9,0.3-1.3h2.9l-0.3,1.6h0c0.8-1.2,2.2-1.9,3.6-1.9c1.4,0,2.9,0.8,3,2.3h0
			c0.8-1.5,2.5-2.3,4.2-2.3c1.8,0,3.3,1.4,3.3,3.2c0,1.1-0.3,2.3-0.5,3.2l-1.2,5.7h-3.1l1.2-5.8c0.2-0.7,0.4-1.8,0.4-2.5
			c0-0.9-0.7-1.4-1.4-1.4c-2.1,0-2.7,2.5-3.1,4.1l-1.2,5.6h-3.1l1.2-5.8c0.2-0.7,0.4-1.8,0.4-2.5c0-0.9-0.7-1.4-1.4-1.4
			c-2.1,0-2.7,2.5-3.1,4.1l-1.2,5.6h-3.1L126.6,39.9z"/>
		<path class="st2" d="M153.5,48.6L153.5,48.6c-1.1,1.3-2.2,2.1-3.9,2.1c-2.1,0-3.7-1.2-3.7-3.4c0-3.9,4.4-4.2,7.3-4.2h1.1
			c0.1-0.3,0.1-0.7,0.1-1c0-1.2-1.3-1.5-2.4-1.5c-1.4,0-2.7,0.3-3.9,0.9l0.4-2.5c1.3-0.5,2.6-0.7,4-0.7c2.4,0,4.6,0.9,4.6,3.7
			c0,1.6-1.2,6.2-1.4,8.5h-2.6L153.5,48.6z M150.5,48.5c2.3,0,3-1.6,3.5-3.5h-1.1c-1.5,0-4,0.3-4,2.3
			C149,48.1,149.7,48.5,150.5,48.5z M153.6,33.6h3.1l-2.9,3.4h-2L153.6,33.6z"/>
		<path class="st2" d="M169,41.1c-0.8-0.3-1.7-0.6-2.5-0.6c-0.9,0-2.1,0.3-2.1,1.2c0,1.5,4,2,4,4.9c0,3.1-2.7,4-5.3,4
			c-1.2,0-2.5-0.2-3.6-0.7l0.7-2.5c0.9,0.5,1.7,0.9,2.9,0.9c1,0,2.1-0.3,2.1-1.3c0-1.9-4-2.1-4-5.1c0-2.8,2.7-3.8,5.1-3.8
			c1.1,0,2.3,0.2,3.4,0.5L169,41.1z"/>
	</g>
</g>
</svg>
