<?xml version="1.0" encoding="utf-8"?>
<!-- Generator: Adobe Illustrator 27.7.0, SVG Export Plug-In . SVG Version: 6.00 Build 0)  -->
<svg version="1.1" id="botones" xmlns="http://www.w3.org/2000/svg" xmlns:xlink="http://www.w3.org/1999/xlink" x="0px" y="0px"
	 viewBox="0 0 278 91" style="enable-background:new 0 0 278 91;" xml:space="preserve">
<style type="text/css">
	.st0{fill:#674780;}
	.st1{enable-background:new    ;}
	.st2{fill:#FFFFFF;}
</style>
<g>
	<path class="st0" d="M13.1,19.2H238c5.4,0,9.7,3.5,9.7,7.7v30.5c0,4.3-4.4,7.7-9.7,7.7H13.1c-5.4,0-9.7-3.5-9.7-7.7V27
		C3.4,22.7,7.8,19.2,13.1,19.2z"/>
	<g class="st1">
		<path class="st2" d="M39.6,33.8h3.2l1.5,12.5h0L51,33.8h3.5l-9,16.1h-3.8L39.6,33.8z"/>
	</g>
	<g class="st1">
		<path class="st2" d="M56.2,44.9c0,2.2,1.2,3,3.3,3c1.3,0,2.5-0.3,3.6-0.9l-0.4,2.4c-1.2,0.4-2.5,0.7-3.8,0.7
			c-3.4,0-5.7-1.7-5.7-5.2c0-3.7,2.9-7.2,6.7-7.2c2.9,0,4.9,1.5,4.9,4.5c0,0.9-0.1,1.8-0.3,2.6H56.2z M61.8,42.8
			c0-0.3,0.1-0.5,0.1-0.8c0-1.3-0.7-2-2-2c-1.9,0-2.7,1.2-3.3,2.8H61.8z"/>
		<path class="st2" d="M81.5,48L81.5,48c-1.1,1.3-2.2,2.1-3.9,2.1c-2.1,0-3.7-1.2-3.7-3.4c0-3.9,4.4-4.2,7.3-4.2h1.1
			c0.1-0.3,0.1-0.7,0.1-1c0-1.2-1.3-1.5-2.4-1.5c-1.4,0-2.7,0.3-3.9,0.9l0.4-2.5c1.3-0.5,2.6-0.7,4-0.7c2.4,0,4.6,0.9,4.6,3.7
			c0,1.6-1.2,6.2-1.5,8.5h-2.6L81.5,48z M78.5,47.9c2.3,0,3-1.6,3.5-3.5h-1.1c-1.5,0-4,0.3-4,2.3C76.9,47.4,77.7,47.9,78.5,47.9z"/>
		<path class="st2" d="M91.3,32.6h3.1l-3.7,17.3h-3.1L91.3,32.6z"/>
		<path class="st2" d="M103.3,38h3.2l1.2,8.7h0l4.7-8.7h3.3l-6.9,11.9h-3.4L103.3,38z"/>
		<path class="st2" d="M118.5,38h3.1L119,49.8h-3.1L118.5,38z M119.6,32.9h3.1l-0.6,2.9H119L119.6,32.9z"/>
		<path class="st2" d="M137.9,32.6l-3.2,14.6c-0.2,1-0.4,2-0.4,2.6h-2.9l0.3-1.7h0c-0.9,1.3-2.1,2-3.9,2c-2.8,0-4.1-2.3-4.1-4.9
			c0-3.5,1.9-7.5,6-7.5c1.5,0,2.7,0.6,3.7,1.7l1.5-6.8H137.9z M126.9,44.9c0,1.2,0.4,2.8,1.9,2.8c2.3,0,3.6-2.6,3.6-4.8
			c0-1.4-0.7-2.8-2.2-2.8C128,40.1,126.9,43.1,126.9,44.9z"/>
		<path class="st2" d="M141.4,44.9c0,2.2,1.2,3,3.3,3c1.3,0,2.5-0.3,3.6-0.9l-0.4,2.4c-1.2,0.4-2.5,0.7-3.8,0.7
			c-3.4,0-5.7-1.7-5.7-5.2c0-3.7,2.9-7.2,6.7-7.2c2.9,0,4.9,1.5,4.9,4.5c0,0.9-0.1,1.8-0.3,2.6H141.4z M147,42.8
			c0-0.3,0.1-0.5,0.1-0.8c0-1.3-0.7-2-2-2c-1.9,0-2.7,1.2-3.3,2.8H147z"/>
		<path class="st2" d="M164.8,42.9c0,4.2-2.9,7.2-7.1,7.2c-3.4,0-5.4-2.1-5.4-5.4c0-4,3-7,7-7C162.6,37.7,164.8,39.6,164.8,42.9z
			 M161.6,42.9c0-1.5-0.5-2.8-2.3-2.8c-2.4,0-3.7,2.7-3.7,4.8c0,1.6,0.6,2.8,2.4,2.8C160.4,47.7,161.6,45,161.6,42.9z"/>
	</g>
	<g>
		
			<ellipse transform="matrix(0.2298 -0.9732 0.9732 0.2298 137.4588 258.0667)" class="st2" cx="231.8" cy="42.2" rx="39.6" ry="39.6"/>
		<path class="st0" d="M231.8,84.4c-23.3,0-42.2-18.9-42.2-42.2S208.5,0,231.8,0S274,18.9,274,42.2S255,84.4,231.8,84.4L231.8,84.4z
			 M231.8,5.1c-20.4,0-37,16.6-37,37s16.6,37,37,37s37-16.6,37-37S252.2,5.2,231.8,5.1L231.8,5.1z"/>
	</g>
	<polygon class="st0" points="220.9,42.2 220.9,24 236.8,33.1 252.6,42.2 236.8,51.3 220.9,60.4 	"/>
</g>
</svg>
