<?xml version="1.0" encoding="UTF-8"?>
<svg id="botones" xmlns="http://www.w3.org/2000/svg" xmlns:xlink="http://www.w3.org/1999/xlink" viewBox="0 0 278 91">
  <defs>
    <style>
      .cls-1 {
        fill: #fff;
      }

      .cls-2, .cls-3 {
        fill: #c92980;
      }

      .cls-4 {
        fill: none;
        filter: url(#drop-shadow-97);
      }

      .cls-3 {
        fill-rule: evenodd;
      }
    </style>
    <filter id="drop-shadow-97" filterUnits="userSpaceOnUse">
      <feOffset dx="0" dy="4.59"/>
      <feGaussianBlur result="blur" stdDeviation="2.3"/>
      <feFlood flood-color="#421732" flood-opacity=".6"/>
      <feComposite in2="blur" operator="in"/>
      <feComposite in="SourceGraphic"/>
    </filter>
  </defs>
  <g class="cls-4">
    <path class="cls-2" d="m12.63,20.05h204.52c5.35,0,9.69,3.44,9.69,7.69v30.41c0,4.25-4.34,7.69-9.69,7.69H12.63c-5.35,0-9.69-3.44-9.69-7.69v-30.41c0-4.25,4.34-7.69,9.69-7.69Z"/>
    <g>
      <circle class="cls-2" cx="230.94" cy="43.12" r="42.12" transform="translate(-2.59 68.77) rotate(-16.85)"/>
      <path class="cls-1" d="m265.45,54.19c6.12-19.06-4.37-39.47-23.43-45.59-19.06-6.12-39.47,4.37-45.59,23.43-6.12,19.06,4.37,39.47,23.43,45.59,19.06,6.12,39.47-4.37,45.59-23.43Z"/>
      <g>
        <path class="cls-1" d="m26.68,34.47h3.18l1.48,12.35h.05l6.6-12.35h3.46l-8.87,15.88h-3.8l-2.09-15.88Z"/>
        <path class="cls-1" d="m42.68,45.43c0,2.16,1.16,2.96,3.25,2.96,1.25,0,2.46-.32,3.59-.84l-.39,2.41c-1.18.36-2.48.66-3.73.66-3.37,0-5.64-1.64-5.64-5.12s2.82-7.14,6.66-7.14c2.89,0,4.8,1.48,4.8,4.46,0,.89-.11,1.75-.3,2.62h-8.26Zm5.57-2.09c.05-.27.07-.52.07-.8,0-1.25-.66-1.96-1.93-1.96-1.89,0-2.71,1.14-3.3,2.75h5.16Z"/>
        <path class="cls-1" d="m66.83,48.55h-.04c-1.05,1.32-2.09,2.07-3.78,2.07-2.12,0-3.62-1.18-3.62-3.34,0-3.87,4.32-4.16,7.19-4.16h1.07c.09-.32.09-.66.09-1,0-1.18-1.27-1.52-2.34-1.52-1.34,0-2.64.34-3.84.91l.43-2.43c1.3-.46,2.62-.71,3.98-.71,2.34,0,4.55.86,4.55,3.62,0,1.57-1.16,6.16-1.43,8.37h-2.57l.32-1.8Zm-2.98-.16c2.28,0,2.98-1.57,3.46-3.46h-1.07c-1.48,0-3.93.25-3.93,2.23,0,.82.77,1.23,1.55,1.23Z"/>
        <path class="cls-1" d="m82.89,33.28h3.05l-3.62,17.06h-3.05l3.62-17.06Z"/>
        <path class="cls-1" d="m93.49,48.55h-.05c-1.05,1.32-2.09,2.07-3.78,2.07-2.12,0-3.62-1.18-3.62-3.34,0-3.87,4.32-4.16,7.19-4.16h1.07c.09-.32.09-.66.09-1,0-1.18-1.27-1.52-2.34-1.52-1.34,0-2.64.34-3.84.91l.43-2.43c1.3-.46,2.62-.71,3.98-.71,2.34,0,4.55.86,4.55,3.62,0,1.57-1.16,6.16-1.43,8.37h-2.57l.32-1.8Zm-2.98-.16c2.27,0,2.98-1.57,3.46-3.46h-1.07c-1.48,0-3.94.25-3.94,2.23,0,.82.77,1.23,1.55,1.23Z"/>
        <path class="cls-1" d="m108.07,41.13c-.8-.3-1.64-.55-2.5-.55-.91,0-2.05.25-2.05,1.18,0,1.48,3.96,2.02,3.96,4.89,0,3.05-2.66,3.96-5.28,3.96-1.23,0-2.46-.18-3.57-.71l.66-2.43c.86.48,1.73.91,2.91.91,1.02,0,2.09-.34,2.09-1.3,0-1.89-3.96-2.07-3.96-5,0-2.75,2.66-3.73,5.07-3.73,1.11,0,2.25.2,3.32.48l-.66,2.3Z"/>
        <path class="cls-1" d="m119.58,40.86h-2.37l.48-2.23h2.36c.61-2.98,1.62-5.62,5.16-5.62.71,0,1.39.14,1.89.3l-.71,2.27c-.27-.14-.61-.2-.93-.2-1.68,0-2.07,2.02-2.37,3.25h2.73l-.48,2.23h-2.73l-2,9.49h-3.05l2-9.49Z"/>
        <path class="cls-1" d="m138.55,43.5c0,4.12-2.84,7.12-6.98,7.12-3.32,0-5.32-2.05-5.32-5.35,0-3.91,3-6.91,6.94-6.91,3.16,0,5.37,1.91,5.37,5.14Zm-3.18.02c0-1.52-.52-2.8-2.32-2.8-2.41,0-3.62,2.66-3.62,4.78,0,1.55.64,2.75,2.39,2.75,2.37,0,3.55-2.73,3.55-4.73Z"/>
        <path class="cls-1" d="m141.35,38.63h2.21l.52-2.41,3.28-1.07-.75,3.48h2.73l-.48,2.23h-2.73l-1.11,5.12c-.07.27-.14.68-.14,1.14,0,.71.48,1.14,1.16,1.14.55,0,1.09-.11,1.48-.27l-.52,2.37c-.52.11-1.11.27-1.64.27-2.07,0-3.53-.82-3.53-3.07,0-.91.18-1.8.39-2.73l.86-3.96h-2.21l.48-2.23Z"/>
        <path class="cls-1" d="m162.21,43.5c0,4.12-2.84,7.12-6.98,7.12-3.32,0-5.32-2.05-5.32-5.35,0-3.91,3-6.91,6.94-6.91,3.16,0,5.37,1.91,5.37,5.14Zm-3.18.02c0-1.52-.52-2.8-2.32-2.8-2.41,0-3.62,2.66-3.62,4.78,0,1.55.64,2.75,2.39,2.75,2.37,0,3.55-2.73,3.55-4.73Z"/>
        <path class="cls-1" d="m172.72,41.13c-.8-.3-1.64-.55-2.5-.55-.91,0-2.05.25-2.05,1.18,0,1.48,3.96,2.02,3.96,4.89,0,3.05-2.66,3.96-5.28,3.96-1.23,0-2.46-.18-3.57-.71l.66-2.43c.86.48,1.73.91,2.91.91,1.02,0,2.09-.34,2.09-1.3,0-1.89-3.96-2.07-3.96-5,0-2.75,2.66-3.73,5.07-3.73,1.11,0,2.25.2,3.32.48l-.66,2.3Z"/>
      </g>
    </g>
    <path class="cls-3" d="m248.17,26.72h-5.65v-2.83c0-3.12-2.7-3.35-5.83-3.35h-11.29c-3.13,0-5.48.23-5.48,3.35v2.83h-5.64c-3.13,0-5.65,2.53-5.65,5.63v25.43c0,3.13,2.53,5.66,5.65,5.66h33.89c3.13,0,5.65-2.53,5.65-5.66v-25.43c0-3.11-2.52-5.63-5.65-5.63h0Zm-29.81-1.54c0-.99-.8-1.8-1.8-1.8h-1.87c-.99,0-1.81.8-1.81,1.8v.67h5.48v-.67h0Zm29.81,10c-1.56,0-2.83-1.26-2.83-2.83s1.27-2.83,2.83-2.83,2.83,1.27,2.83,2.83-1.28,2.83-2.83,2.83h0Zm-16.95-4.52c1.7,0,3.35.34,4.85.96h0c1.55.66,2.94,1.59,4.1,2.75h.02c1.16,1.18,2.1,2.57,2.73,4.12h0c.64,1.5.97,3.14.97,4.85s-.34,3.35-.97,4.85h0c-.64,1.56-1.57,2.94-2.73,4.1h-.02v.02c-1.16,1.16-2.55,2.1-4.1,2.73h0c-1.5.64-3.15.97-4.85.97s-3.35-.34-4.85-.97h0c-1.55-.64-2.94-1.58-4.12-2.73v-.02h0c-1.16-1.16-2.1-2.55-2.75-4.1h0c-.62-1.5-.95-3.15-.95-4.85s.34-3.35.95-4.85h0c.66-1.56,1.59-2.94,2.75-4.12h0c1.18-1.16,2.57-2.1,4.12-2.75h0c1.5-.62,3.13-.96,4.85-.96h0Zm6.05,6.63c-.81-.8-1.74-1.44-2.77-1.85-1.01-.43-2.12-.66-3.28-.66s-2.28.22-3.28.66c-1.03.41-1.98,1.05-2.77,1.85-.8.78-1.44,1.74-1.87,2.77-.41.99-.64,2.1-.64,3.28s.23,2.26.64,3.28c.43,1.03,1.07,1.97,1.87,2.77.79.79,1.74,1.42,2.77,1.85.99.41,2.1.66,3.28.66s2.27-.24,3.28-.66c1.03-.43,1.97-1.06,2.77-1.85.78-.8,1.42-1.74,1.86-2.77.41-1.01.63-2.11.63-3.28s-.22-2.28-.63-3.28c-.43-1.03-1.07-1.99-1.86-2.77h0Z"/>
  </g>
</svg>