<?xml version="1.0" encoding="UTF-8"?>
<svg id="botones" xmlns="http://www.w3.org/2000/svg" viewBox="0 0 245 52">
  <defs>
    <style>
      .cls-1 {
        fill: #fff;
      }

      .cls-2 {
        fill: #7f9b2b;
      }
    </style>
  </defs>
  <g>
    <path class="cls-2" d="m29.49,32.72c-1.22.29-2.54.53-3.82.53-5.42,0-9.19-2.71-9.19-8.38s3.5-8.95,9.19-8.95c1.11,0,2.57.22,3.79.7l-.24,2.83c-1.27-.72-2.42-.89-3.62-.89-3.46,0-5.62,2.64-5.62,6.07s2.11,5.98,5.69,5.98c1.32,0,2.88-.29,3.67-.7l.14,2.81Z"/>
    <path class="cls-2" d="m37.34,20.31c3.67,0,6.48,2.47,6.48,6.55,0,3.55-2.38,6.39-6.48,6.39s-6.46-2.83-6.46-6.39c0-4.08,2.81-6.55,6.46-6.55Zm0,10.44c2.47,0,3.12-2.21,3.12-4.27,0-1.9-1.01-3.67-3.12-3.67s-3.1,1.82-3.1,3.67c0,2.04.65,4.27,3.1,4.27Z"/>
    <path class="cls-2" d="m46.34,20.6h3.05v1.68h.05c1.01-1.42,2.38-1.97,4.06-1.97,2.93,0,4.2,2.06,4.2,4.85v7.8h-3.22v-6.6c0-1.51-.02-3.55-2.09-3.55-2.33,0-2.83,2.52-2.83,4.11v6.05h-3.22v-12.36Z"/>
    <path class="cls-2" d="m68.35,23.19c-.98-.34-1.71-.53-2.88-.53-.86,0-1.9.31-1.9,1.37,0,1.97,5.59.72,5.59,5.18,0,2.88-2.57,4.03-5.19,4.03-1.22,0-2.47-.22-3.65-.53l.19-2.64c1.01.5,2.06.82,3.17.82.82,0,2.11-.31,2.11-1.51,0-2.42-5.59-.77-5.59-5.23,0-2.66,2.33-3.84,4.85-3.84,1.51,0,2.5.24,3.51.46l-.22,2.42Z"/>
    <path class="cls-2" d="m83.01,32.96h-3.05v-1.68h-.05c-.98,1.2-2.38,1.97-4.06,1.97-2.93,0-4.2-2.06-4.2-4.85v-7.8h3.22v6.6c0,1.51.02,3.55,2.09,3.55,2.33,0,2.83-2.52,2.83-4.11v-6.05h3.22v12.36Z"/>
    <path class="cls-2" d="m86.39,14.96h3.22v18h-3.22V14.96Z"/>
    <path class="cls-2" d="m94.05,22.95h-2.38v-2.35h2.38v-2.47l3.22-1.03v3.5h2.86v2.35h-2.86v5.76c0,1.06.29,2.04,1.51,2.04.58,0,1.13-.12,1.46-.34l.1,2.54c-.67.19-1.42.29-2.38.29-2.52,0-3.91-1.56-3.91-4.01v-6.29Z"/>
    <path class="cls-2" d="m102.88,21.25c1.25-.58,2.93-.94,4.3-.94,3.77,0,5.33,1.56,5.33,5.21v1.58c0,1.25.02,2.18.05,3.1.02.94.07,1.8.14,2.76h-2.83c-.12-.65-.12-1.46-.14-1.85h-.05c-.74,1.37-2.35,2.14-3.82,2.14-2.18,0-4.32-1.32-4.32-3.67,0-1.85.89-2.93,2.11-3.53s2.81-.72,4.15-.72h1.78c0-1.99-.89-2.66-2.78-2.66-1.37,0-2.74.53-3.82,1.34l-.09-2.76Zm3.77,9.65c.98,0,1.75-.43,2.26-1.1.53-.7.67-1.58.67-2.54h-1.39c-1.44,0-3.58.24-3.58,2.14,0,1.06.89,1.51,2.04,1.51Z"/>
    <path class="cls-2" d="m122.9,21.25c1.25-.58,2.93-.94,4.3-.94,3.77,0,5.33,1.56,5.33,5.21v1.58c0,1.25.02,2.18.05,3.1.02.94.07,1.8.14,2.76h-2.83c-.12-.65-.12-1.46-.14-1.85h-.05c-.74,1.37-2.35,2.14-3.82,2.14-2.18,0-4.32-1.32-4.32-3.67,0-1.85.89-2.93,2.11-3.53s2.81-.72,4.15-.72h1.78c0-1.99-.89-2.66-2.78-2.66-1.37,0-2.74.53-3.82,1.34l-.1-2.76Zm3.77,9.65c.98,0,1.75-.43,2.26-1.1.53-.7.67-1.58.67-2.54h-1.39c-1.44,0-3.58.24-3.58,2.14,0,1.06.89,1.51,2.04,1.51Z"/>
    <path class="cls-2" d="m143.83,31.54h-.05c-1.13,1.37-2.26,1.7-3.62,1.7-3.86,0-5.26-3.12-5.26-6.51s1.39-6.43,5.26-6.43c1.82,0,3,.77,3.77,2.04h.05v-1.75h3.07v17.4h-3.22v-6.46Zm-5.57-4.8c0,1.7.6,4.01,2.71,4.01s2.83-2.26,2.83-4.01-.82-3.94-2.88-3.94-2.66,2.28-2.66,3.94Z"/>
    <path class="cls-2" d="m161.71,32.96h-3.05v-1.68h-.05c-.98,1.2-2.38,1.97-4.06,1.97-2.93,0-4.2-2.06-4.2-4.85v-7.8h3.22v6.6c0,1.51.02,3.55,2.09,3.55,2.33,0,2.83-2.52,2.83-4.11v-6.05h3.22v12.36Z"/>
    <path class="cls-2" d="m166.91,15.41h3.29l-3.29,3.5h-1.99l1.99-3.5Zm-1.82,17.55v-12.36h3.22v12.36h-3.22Z"/>
  </g>
  <g>
    <circle class="cls-2" cx="204.52" cy="26" r="24" transform="translate(158.49 226.96) rotate(-84.35)"/>
    <g>
      <path class="cls-1" d="m211.39,43.14h0c.16,0,.31-.06.43-.17l6.69-6.31c.13-.12.19-.28.19-.45.07-.11.11-.24.11-.38V12.47c0-1.46-1.18-2.64-2.64-2.64h-22.28c-1.46,0-2.64,1.18-2.64,2.64v28.2c0,1.46,1.18,2.64,2.64,2.64h17.03c.18,0,.34-.07.47-.17Zm.63-2.07v-2.42c0-1,.81-1.81,1.81-1.81h2.68l-4.49,4.24Zm-1.83.78h-16.3c-.65,0-1.18-.53-1.18-1.18V12.47c0-.65.53-1.18,1.18-1.18h22.28c.65,0,1.18.53,1.18,1.18v22.63h-3.42c-2.06,0-3.73,1.67-3.73,3.73v3.01Z"/>
      <path class="cls-1" d="m196.95,19.57h16.15c.4,0,.73-.33.73-.73v-1.31c0-.41-.33-.73-.73-.73h-16.15c-.4,0-.73.33-.73.73v1.31c0,.4.33.73.73.73Zm.15-1.9h15.85v1.02h-15.85v-1.02Z"/>
      <path class="cls-1" d="m196.95,24.17h16.15c.4,0,.73-.33.73-.73v-1.31c0-.4-.33-.73-.73-.73h-16.15c-.4,0-.73.33-.73.73v1.31c0,.4.33.73.73.73Zm.15-1.9h15.85v1.02h-15.85v-1.02Z"/>
      <path class="cls-1" d="m213.83,28.03v-1.31c0-.4-.33-.73-.73-.73h-16.15c-.4,0-.73.33-.73.73v1.31c0,.4.33.73.73.73h16.15c.4,0,.73-.33.73-.73Zm-.88-.15h-15.85v-1.02h15.85v1.02Z"/>
    </g>
  </g>
</svg>