<?xml version="1.0" encoding="UTF-8"?>
<svg id="botones" xmlns="http://www.w3.org/2000/svg" viewBox="0 0 245 52">
  <defs>
    <style>
      .cls-1 {
        fill: #0e55c5;
      }

      .cls-2 {
        fill: #f9f9f9;
        fill-rule: evenodd;
      }
    </style>
  </defs>
  <g>
    <path class="cls-1" d="m17.49,16.2h3.6l4.3,13.15h.05l4.25-13.15h3.34l-5.64,16.76h-4.13l-5.76-16.76Z"/>
    <path class="cls-1" d="m43.51,32.26c-1.18.65-2.52.98-4.25.98-4.08,0-6.46-2.35-6.46-6.41,0-3.58,1.9-6.53,5.74-6.53,4.59,0,5.88,3.14,5.88,7.47h-8.55c.14,1.99,1.54,3.12,3.53,3.12,1.56,0,2.9-.58,4.1-1.25v2.62Zm-2.16-6.7c-.1-1.56-.82-2.91-2.62-2.91s-2.71,1.25-2.86,2.91h5.47Z"/>
    <path class="cls-1" d="m54.16,21.25c1.25-.58,2.93-.94,4.3-.94,3.77,0,5.33,1.56,5.33,5.21v1.58c0,1.25.02,2.18.05,3.1.02.94.07,1.8.14,2.76h-2.83c-.12-.65-.12-1.46-.14-1.85h-.05c-.74,1.37-2.35,2.14-3.82,2.14-2.18,0-4.32-1.32-4.32-3.67,0-1.85.89-2.93,2.11-3.53s2.81-.72,4.15-.72h1.78c0-1.99-.89-2.66-2.78-2.66-1.37,0-2.74.53-3.82,1.34l-.1-2.76Zm3.77,9.65c.98,0,1.75-.43,2.26-1.1.53-.7.67-1.58.67-2.54h-1.39c-1.44,0-3.58.24-3.58,2.14,0,1.06.89,1.51,2.04,1.51Z"/>
    <path class="cls-1" d="m73.7,14.96h3.22v18h-3.22V14.96Z"/>
    <path class="cls-1" d="m80.85,21.25c1.25-.58,2.93-.94,4.3-.94,3.77,0,5.33,1.56,5.33,5.21v1.58c0,1.25.02,2.18.05,3.1.02.94.07,1.8.14,2.76h-2.83c-.12-.65-.12-1.46-.14-1.85h-.05c-.74,1.37-2.35,2.14-3.82,2.14-2.18,0-4.32-1.32-4.32-3.67,0-1.85.89-2.93,2.11-3.53s2.81-.72,4.15-.72h1.78c0-1.99-.89-2.66-2.78-2.66-1.37,0-2.74.53-3.82,1.34l-.1-2.76Zm3.77,9.65c.98,0,1.75-.43,2.26-1.1.53-.7.67-1.58.67-2.54h-1.39c-1.44,0-3.58.24-3.58,2.14,0,1.06.89,1.51,2.04,1.51Z"/>
    <path class="cls-1" d="m100.99,23.19c-.98-.34-1.71-.53-2.88-.53-.86,0-1.9.31-1.9,1.37,0,1.97,5.59.72,5.59,5.18,0,2.88-2.57,4.03-5.19,4.03-1.22,0-2.47-.22-3.65-.53l.19-2.64c1.01.5,2.06.82,3.17.82.82,0,2.11-.31,2.11-1.51,0-2.42-5.59-.77-5.59-5.23,0-2.66,2.33-3.84,4.85-3.84,1.51,0,2.5.24,3.51.46l-.22,2.42Z"/>
    <path class="cls-1" d="m112.15,22.95h-2.38v-2.35h2.38v-1.73c0-2.47,1.39-4.2,3.94-4.2.82,0,1.73.12,2.35.26l-.26,2.66c-.29-.17-.7-.43-1.39-.43-1.08,0-1.42.94-1.42,1.9v1.54h2.81v2.35h-2.81v10.01h-3.22v-10.01Z"/>
    <path class="cls-1" d="m125.97,20.31c3.67,0,6.48,2.47,6.48,6.55,0,3.55-2.38,6.39-6.48,6.39s-6.46-2.83-6.46-6.39c0-4.08,2.81-6.55,6.46-6.55Zm0,10.44c2.47,0,3.12-2.21,3.12-4.27,0-1.9-1.01-3.67-3.12-3.67s-3.1,1.82-3.1,3.67c0,2.04.65,4.27,3.1,4.27Z"/>
    <path class="cls-1" d="m136.03,22.95h-2.38v-2.35h2.38v-2.47l3.22-1.03v3.5h2.86v2.35h-2.86v5.76c0,1.06.29,2.04,1.51,2.04.58,0,1.13-.12,1.46-.34l.1,2.54c-.67.19-1.42.29-2.38.29-2.52,0-3.91-1.56-3.91-4.01v-6.29Z"/>
    <path class="cls-1" d="m149.97,20.31c3.67,0,6.48,2.47,6.48,6.55,0,3.55-2.38,6.39-6.48,6.39s-6.46-2.83-6.46-6.39c0-4.08,2.81-6.55,6.46-6.55Zm0,10.44c2.47,0,3.12-2.21,3.12-4.27,0-1.9-1.01-3.67-3.12-3.67s-3.1,1.82-3.1,3.67c0,2.04.65,4.27,3.1,4.27Z"/>
    <path class="cls-1" d="m166.31,23.19c-.98-.34-1.71-.53-2.88-.53-.86,0-1.9.31-1.9,1.37,0,1.97,5.59.72,5.59,5.18,0,2.88-2.57,4.03-5.19,4.03-1.22,0-2.47-.22-3.65-.53l.19-2.64c1.01.5,2.06.82,3.17.82.82,0,2.11-.31,2.11-1.51,0-2.42-5.59-.77-5.59-5.23,0-2.66,2.33-3.84,4.85-3.84,1.51,0,2.5.24,3.51.46l-.22,2.42Z"/>
  </g>
  <g>
    <circle class="cls-1" cx="203.51" cy="26" r="24" transform="translate(157.58 225.96) rotate(-84.35)"/>
    <path class="cls-2" d="m212.37,16.77h-2.99v-1.5c0-1.65-1.43-1.77-3.09-1.77h-5.98c-1.66,0-2.91.12-2.91,1.77v1.5h-2.99c-1.66,0-3,1.34-3,2.98v13.47c0,1.66,1.34,3,3,3h17.95c1.66,0,2.99-1.34,2.99-3v-13.47c0-1.65-1.34-2.98-2.99-2.98h0Zm-15.79-.81c0-.53-.43-.95-.95-.95h-.99c-.52,0-.96.43-.96.95v.36h2.91v-.36h0Zm15.79,5.3c-.82,0-1.5-.67-1.5-1.5s.67-1.5,1.5-1.5,1.5.68,1.5,1.5-.68,1.5-1.5,1.5h0Zm-8.98-2.39c.9,0,1.78.18,2.57.51h0c.82.35,1.56.84,2.17,1.46h.01c.62.63,1.11,1.36,1.45,2.18h0c.34.79.52,1.67.52,2.57s-.18,1.78-.52,2.57h0c-.34.82-.83,1.56-1.45,2.17h-.01c-.61.62-1.35,1.12-2.17,1.46h0c-.79.34-1.67.52-2.57.52s-1.77-.18-2.57-.52h0c-.82-.34-1.56-.84-2.18-1.45h0c-.62-.63-1.11-1.36-1.46-2.18h0c-.33-.79-.5-1.67-.5-2.57s.18-1.78.5-2.57h0c.35-.82.84-1.56,1.46-2.18h0c.62-.61,1.36-1.11,2.18-1.46h0c.79-.33,1.66-.51,2.57-.51h0Zm3.21,3.51c-.43-.43-.92-.76-1.47-.98-.53-.23-1.12-.35-1.74-.35s-1.21.12-1.74.35c-.55.22-1.05.56-1.47.98-.43.42-.76.92-.99,1.47-.22.53-.34,1.11-.34,1.74s.12,1.2.34,1.74c.23.55.56,1.04.99,1.47.42.42.92.75,1.47.98.53.22,1.11.35,1.74.35s1.2-.13,1.74-.35c.55-.23,1.04-.56,1.47-.98.42-.43.75-.92.98-1.47.22-.54.34-1.12.34-1.74s-.12-1.21-.34-1.74c-.23-.55-.57-1.05-.98-1.47h0Z"/>
  </g>
</svg>