<?xml version="1.0" encoding="UTF-8"?>
<svg id="botones" xmlns="http://www.w3.org/2000/svg" viewBox="0 0 245 52">
  <defs>
    <style>
      .cls-1 {
        fill: #fff;
      }

      .cls-2 {
        fill: #2eceff;
      }
    </style>
  </defs>
  <g>
    <path class="cls-2" d="m1.52,16.2h9.89v2.64h-6.53v4.13h5.98v2.64h-5.98v4.7h6.58v2.64H1.52v-16.76Z"/>
    <path class="cls-2" d="m21.92,23.19c-.98-.34-1.71-.53-2.88-.53-.86,0-1.9.31-1.9,1.37,0,1.97,5.59.72,5.59,5.18,0,2.88-2.57,4.03-5.19,4.03-1.22,0-2.47-.22-3.65-.53l.19-2.64c1.01.5,2.06.82,3.17.82.82,0,2.11-.31,2.11-1.51,0-2.42-5.59-.77-5.59-5.23,0-2.66,2.33-3.84,4.85-3.84,1.51,0,2.5.24,3.51.46l-.22,2.42Z"/>
    <path class="cls-2" d="m33.25,23.26c-.58-.26-1.2-.46-2.18-.46-1.99,0-3.26,1.58-3.26,3.91s1.08,4.03,3.34,4.03c.91,0,1.92-.34,2.47-.58l.14,2.66c-.94.29-1.9.41-3.22.41-4.06,0-6.1-2.76-6.1-6.53s2.11-6.41,5.98-6.41c1.3,0,2.23.14,3.12.41l-.29,2.54Z"/>
    <path class="cls-2" d="m47.24,32.96h-3.05v-1.68h-.05c-.98,1.2-2.38,1.97-4.06,1.97-2.93,0-4.2-2.06-4.2-4.85v-7.8h3.22v6.6c0,1.51.02,3.55,2.09,3.55,2.33,0,2.83-2.52,2.83-4.11v-6.05h3.22v12.36Z"/>
    <path class="cls-2" d="m58.57,23.26c-.58-.26-1.2-.46-2.18-.46-1.99,0-3.26,1.58-3.26,3.91s1.08,4.03,3.34,4.03c.91,0,1.92-.34,2.47-.58l.14,2.66c-.94.29-1.9.41-3.22.41-4.06,0-6.1-2.76-6.1-6.53s2.11-6.41,5.98-6.41c1.3,0,2.23.14,3.12.41l-.29,2.54Z"/>
    <path class="cls-2" d="m61.21,14.96h3.22v7.32h.05c.82-1.2,2.21-1.97,3.89-1.97,2.93,0,4.2,2.06,4.2,4.85v7.8h-3.22v-6.6c0-1.51-.02-3.55-2.09-3.55-2.33,0-2.83,2.52-2.83,4.11v6.05h-3.22V14.96Z"/>
    <path class="cls-2" d="m76.42,21.25c1.25-.58,2.93-.94,4.3-.94,3.77,0,5.33,1.56,5.33,5.21v1.58c0,1.25.02,2.18.05,3.1.02.94.07,1.8.14,2.76h-2.83c-.12-.65-.12-1.46-.14-1.85h-.05c-.74,1.37-2.35,2.14-3.82,2.14-2.18,0-4.32-1.32-4.32-3.67,0-1.85.89-2.93,2.11-3.53s2.81-.72,4.15-.72h1.78c0-1.99-.89-2.66-2.78-2.66-1.37,0-2.74.53-3.82,1.34l-.1-2.76Zm3.77,9.65c.98,0,1.75-.43,2.26-1.1.53-.7.67-1.58.67-2.54h-1.39c-1.44,0-3.58.24-3.58,2.14,0,1.06.89,1.51,2.04,1.51Z"/>
    <path class="cls-2" d="m105.8,32.26c-1.18.65-2.52.98-4.25.98-4.08,0-6.46-2.35-6.46-6.41,0-3.58,1.9-6.53,5.74-6.53,4.59,0,5.88,3.14,5.88,7.47h-8.55c.14,1.99,1.54,3.12,3.53,3.12,1.56,0,2.9-.58,4.1-1.25v2.62Zm-2.16-6.7c-.1-1.56-.82-2.91-2.62-2.91s-2.71,1.25-2.86,2.91h5.47Z"/>
    <path class="cls-2" d="m109.3,14.96h3.22v18h-3.22V14.96Z"/>
    <path class="cls-2" d="m123.13,21.25c1.25-.58,2.93-.94,4.3-.94,3.77,0,5.33,1.56,5.33,5.21v1.58c0,1.25.02,2.18.05,3.1.02.94.07,1.8.14,2.76h-2.83c-.12-.65-.12-1.46-.14-1.85h-.05c-.74,1.37-2.35,2.14-3.82,2.14-2.18,0-4.32-1.32-4.32-3.67,0-1.85.89-2.93,2.11-3.53s2.81-.72,4.15-.72h1.78c0-1.99-.89-2.66-2.78-2.66-1.37,0-2.74.53-3.82,1.34l-.1-2.76Zm3.77,9.65c.98,0,1.75-.43,2.26-1.1.53-.7.67-1.58.67-2.54h-1.39c-1.44,0-3.58.24-3.58,2.14,0,1.06.89,1.51,2.04,1.51Z"/>
    <path class="cls-2" d="m147.27,32.96h-3.05v-1.68h-.05c-.98,1.2-2.38,1.97-4.06,1.97-2.93,0-4.2-2.06-4.2-4.85v-7.8h3.22v6.6c0,1.51.02,3.55,2.09,3.55,2.33,0,2.83-2.52,2.83-4.11v-6.05h3.22v12.36Z"/>
    <path class="cls-2" d="m158.82,31.57h-.05c-.96,1.2-2.28,1.68-3.79,1.68-3.79,0-5.19-3.12-5.19-6.51s1.39-6.43,5.19-6.43c1.61,0,2.74.55,3.7,1.73h.05v-7.08h3.22v18h-3.12v-1.39Zm-2.95-.82c2.14,0,2.83-2.26,2.83-4.01s-.82-3.94-2.88-3.94-2.66,2.28-2.66,3.94.6,4.01,2.71,4.01Z"/>
    <path class="cls-2" d="m165.32,15.27h3.22v3.07h-3.22v-3.07Zm0,5.33h3.22v12.36h-3.22v-12.36Z"/>
    <path class="cls-2" d="m177.58,20.31c3.67,0,6.48,2.47,6.48,6.55,0,3.55-2.38,6.39-6.48,6.39s-6.46-2.83-6.46-6.39c0-4.08,2.81-6.55,6.46-6.55Zm0,10.44c2.47,0,3.12-2.21,3.12-4.27,0-1.9-1.01-3.67-3.12-3.67s-3.1,1.82-3.1,3.67c0,2.04.65,4.27,3.1,4.27Z"/>
  </g>
  <g>
    <circle class="cls-2" cx="219.48" cy="26" r="24" transform="translate(171.98 241.85) rotate(-84.35)"/>
    <g>
      <path class="cls-1" d="m203.01,31.51h5.14c.3,0,.55-.25.55-.55v-9.11c0-.3-.25-.55-.55-.55h-5.14c-.3,0-.55.25-.55.55v9.11c0,.3.25.55.55.55Zm.55-9.11h4.04v8.01h-4.04v-8.01Z"/>
      <path class="cls-1" d="m220.13,38.19c.09.06.2.09.31.09.09,0,.18-.02.26-.06.18-.1.29-.28.29-.49V12.94c0-.22-.13-.41-.33-.5-.2-.09-.43-.05-.59.09l-10,8.92c-.12.1-.18.25-.18.41v9.11c0,.18.09.35.24.46l10,6.77Zm-9.14-16.09l8.9-7.93v22.53l-8.9-6.03v-8.57Z"/>
      <path class="cls-1" d="m224.09,31.86c.21,0,.41-.11.56-.3,1.08-1.36,1.67-3.19,1.67-5.15s-.59-3.79-1.67-5.15c-.16-.2-.37-.3-.58-.3-.22,0-.42.13-.57.33-.15.21-.23.48-.23.77,0,.29.09.56.25.76.75.95,1.16,2.22,1.16,3.59s-.41,2.64-1.16,3.59c-.16.2-.25.49-.25.78s.08.54.23.75c.15.21.35.33.57.33,0,0,.01,0,.02,0Z"/>
      <path class="cls-1" d="m227.78,33.91c.29,0,.57-.15.78-.41,1.48-1.87,2.3-4.39,2.3-7.09s-.82-5.22-2.3-7.09c-.22-.27-.51-.42-.8-.41-.3,0-.58.17-.79.46-.21.29-.32.66-.31,1.06,0,.4.13.77.35,1.04,1.03,1.3,1.6,3.06,1.6,4.94s-.57,3.64-1.6,4.94c-.22.28-.35.67-.35,1.08s.11.75.31,1.03c.21.29.49.45.79.46,0,0,.02,0,.03,0Z"/>
      <path class="cls-1" d="m231.94,36.23c.38,0,.74-.19,1.02-.54,1.94-2.45,3.01-5.74,3.01-9.28s-1.07-6.83-3.01-9.28c-.28-.36-.66-.55-1.05-.54-.39.01-.76.23-1.03.6-.27.38-.42.87-.41,1.39,0,.52.17,1,.46,1.36,1.35,1.71,2.1,4,2.1,6.47s-.74,4.76-2.1,6.47c-.29.36-.46.88-.46,1.41s.14.98.41,1.34c.27.38.64.59,1.03.6.01,0,.02,0,.03,0Z"/>
    </g>
  </g>
</svg>