<?xml version="1.0" encoding="UTF-8"?>
<svg id="Capa_1" data-name="Capa 1" xmlns="http://www.w3.org/2000/svg" viewBox="0 0 420.5 44.1">
  <defs>
    <style>
      .cls-1 {
        fill: #24135f;
      }
    </style>
  </defs>
  <path class="cls-1" d="m20.87,23.61l5.51,1.75c-.84,3.07-2.25,5.35-4.21,6.84-1.96,1.49-4.46,2.24-7.48,2.24-3.74,0-6.81-1.28-9.21-3.83-2.41-2.55-3.61-6.04-3.61-10.47,0-4.68,1.21-8.32,3.63-10.91s5.6-3.89,9.54-3.89c3.44,0,6.24,1.02,8.39,3.05,1.28,1.2,2.24,2.93,2.88,5.18l-5.62,1.34c-.33-1.46-1.03-2.61-2.08-3.46s-2.34-1.27-3.85-1.27c-2.09,0-3.78.75-5.08,2.25s-1.95,3.92-1.95,7.28c0,3.56.64,6.09,1.92,7.6,1.28,1.51,2.94,2.27,4.99,2.27,1.51,0,2.81-.48,3.9-1.44,1.09-.96,1.87-2.47,2.34-4.53Z"/>
  <path class="cls-1" d="m35.25,19.79l-4.9-.88c.55-1.97,1.5-3.43,2.84-4.38s3.34-1.42,5.99-1.42c2.41,0,4.2.29,5.38.85s2.01,1.29,2.49,2.17c.48.88.72,2.49.72,4.83l-.06,6.3c0,1.79.09,3.11.26,3.96.17.85.5,1.76.97,2.74h-5.34c-.14-.36-.31-.89-.52-1.59-.09-.32-.15-.53-.19-.63-.92.9-1.91,1.57-2.96,2.02-1.05.45-2.17.67-3.36.67-2.1,0-3.75-.57-4.96-1.71-1.21-1.14-1.81-2.58-1.81-4.32,0-1.15.28-2.18.83-3.08.55-.9,1.32-1.59,2.31-2.07.99-.48,2.42-.9,4.29-1.26,2.52-.47,4.27-.92,5.24-1.32v-.54c0-1.04-.26-1.78-.77-2.22s-1.48-.66-2.9-.66c-.96,0-1.71.19-2.25.57-.54.38-.97,1.04-1.31,1.99Zm7.22,4.38c-.69.23-1.79.51-3.28.83-1.5.32-2.48.63-2.94.94-.7.5-1.06,1.13-1.06,1.9s.28,1.41.84,1.96c.56.55,1.28.83,2.15.83.97,0,1.9-.32,2.78-.96.65-.49,1.08-1.08,1.29-1.79.14-.46.21-1.34.21-2.63v-1.08Z"/>
  <path class="cls-1" d="m52.68,13.57h4.97v2.78c1.78-2.16,3.9-3.24,6.35-3.24,1.31,0,2.44.27,3.4.81.96.54,1.75,1.35,2.36,2.44.9-1.09,1.86-1.9,2.9-2.44,1.04-.54,2.14-.81,3.32-.81,1.5,0,2.76.3,3.8.91,1.04.61,1.81,1.5,2.32,2.68.37.87.56,2.28.56,4.22v13.04h-5.39v-11.65c0-2.02-.19-3.33-.56-3.92-.5-.77-1.27-1.15-2.3-1.15-.75,0-1.47.23-2.13.69s-1.15,1.14-1.44,2.03c-.29.89-.44,2.29-.44,4.21v9.79h-5.39v-11.17c0-1.98-.1-3.26-.29-3.84-.19-.58-.49-1-.89-1.29-.4-.28-.95-.42-1.64-.42-.83,0-1.58.22-2.25.67-.67.45-1.14,1.09-1.43,1.94s-.43,2.25-.43,4.2v9.91h-5.39V13.57Z"/>
  <path class="cls-1" d="m87.89,13.57h5.03v3c.65-1.02,1.54-1.86,2.65-2.5s2.35-.96,3.71-.96c2.37,0,4.38.93,6.03,2.78,1.65,1.86,2.48,4.44,2.48,7.75s-.83,6.05-2.5,7.94c-1.66,1.89-3.68,2.83-6.05,2.83-1.13,0-2.15-.22-3.06-.67-.92-.45-1.88-1.22-2.89-2.3v10.27h-5.39V13.57Zm5.34,9.85c0,2.29.45,3.98,1.36,5.08.91,1.09,2.02,1.64,3.32,1.64s2.3-.5,3.13-1.51,1.25-2.65,1.25-4.94c0-2.14-.43-3.72-1.29-4.76-.86-1.04-1.92-1.56-3.19-1.56s-2.41.51-3.28,1.53-1.3,2.52-1.3,4.52Z"/>
  <path class="cls-1" d="m116.09,19.79l-4.9-.88c.55-1.97,1.5-3.43,2.84-4.38s3.34-1.42,5.99-1.42c2.41,0,4.2.29,5.38.85s2.01,1.29,2.49,2.17c.48.88.72,2.49.72,4.83l-.06,6.3c0,1.79.09,3.11.26,3.96.17.85.5,1.76.97,2.74h-5.34c-.14-.36-.31-.89-.52-1.59-.09-.32-.15-.53-.19-.63-.92.9-1.91,1.57-2.96,2.02-1.05.45-2.17.67-3.36.67-2.1,0-3.75-.57-4.96-1.71-1.21-1.14-1.81-2.58-1.81-4.32,0-1.15.28-2.18.83-3.08.55-.9,1.32-1.59,2.31-2.07.99-.48,2.42-.9,4.29-1.26,2.52-.47,4.27-.92,5.24-1.32v-.54c0-1.04-.26-1.78-.77-2.22s-1.48-.66-2.9-.66c-.96,0-1.71.19-2.25.57-.54.38-.97,1.04-1.31,1.99Zm7.22,4.38c-.69.23-1.79.51-3.28.83-1.5.32-2.48.63-2.94.94-.7.5-1.06,1.13-1.06,1.9s.28,1.41.84,1.96c.56.55,1.28.83,2.15.83.97,0,1.9-.32,2.78-.96.65-.49,1.08-1.08,1.29-1.79.14-.46.21-1.34.21-2.63v-1.08Z"/>
  <path class="cls-1" d="m152.47,33.95h-5.39v-10.41c0-2.2-.12-3.62-.35-4.27-.23-.65-.6-1.15-1.12-1.51s-1.14-.54-1.87-.54c-.93,0-1.77.26-2.51.77s-1.25,1.19-1.53,2.04-.41,2.41-.41,4.68v9.23h-5.39V13.57h5.01v3c1.78-2.3,4.02-3.46,6.72-3.46,1.19,0,2.28.21,3.26.64.99.43,1.73.98,2.24,1.64.5.67.86,1.42,1.06,2.27s.3,2.05.3,3.63v12.67Zm-13.46-23.13h-2.46c-.01-.29-.02-.53-.02-.69,0-1.34.33-2.38.98-3.1.65-.72,1.49-1.08,2.51-1.08.45,0,.86.05,1.25.14s1.08.37,2.1.83c1.02.46,1.81.68,2.39.68.41,0,.75-.13,1.03-.38.27-.26.45-.68.53-1.29h2.5c-.01,1.73-.34,2.96-.97,3.71s-1.45,1.11-2.45,1.11c-.44,0-.86-.04-1.29-.13-.29-.08-1.03-.34-2.21-.79-1.18-.45-2.04-.67-2.57-.67-.41,0-.73.12-.96.38-.23.25-.35.68-.37,1.3Z"/>
  <path class="cls-1" d="m161.97,19.79l-4.9-.88c.55-1.97,1.5-3.43,2.84-4.38s3.34-1.42,5.99-1.42c2.41,0,4.2.29,5.38.85s2.01,1.29,2.49,2.17c.48.88.72,2.49.72,4.83l-.06,6.3c0,1.79.09,3.11.26,3.96.17.85.5,1.76.97,2.74h-5.34c-.14-.36-.31-.89-.52-1.59-.09-.32-.15-.53-.19-.63-.92.9-1.91,1.57-2.96,2.02-1.05.45-2.17.67-3.36.67-2.1,0-3.75-.57-4.96-1.71-1.21-1.14-1.81-2.58-1.81-4.32,0-1.15.28-2.18.83-3.08.55-.9,1.32-1.59,2.31-2.07.99-.48,2.42-.9,4.29-1.26,2.52-.47,4.27-.92,5.24-1.32v-.54c0-1.04-.26-1.78-.77-2.22s-1.48-.66-2.9-.66c-.96,0-1.71.19-2.25.57-.54.38-.97,1.04-1.31,1.99Zm7.22,4.38c-.69.23-1.79.51-3.28.83-1.5.32-2.48.63-2.94.94-.7.5-1.06,1.13-1.06,1.9s.28,1.41.84,1.96c.56.55,1.28.83,2.15.83.97,0,1.9-.32,2.78-.96.65-.49,1.08-1.08,1.29-1.79.14-.46.21-1.34.21-2.63v-1.08Z"/>
  <path class="cls-1" d="m190.86,26.95h-2.61v-4.22h3.46l1.15-5.66h-4.61v-4.24h5.47l1.52-7.49h4.3l-1.52,7.49h4.24l1.48-7.49h4.45l-1.54,7.49h2.65v4.24h-3.51l-1.15,5.66h4.67v4.22h-5.53l-1.52,7.49h-4.28l1.48-7.49h-4.26l-1.52,7.49h-4.34l1.52-7.49Zm6.32-9.89l-1.13,5.66h4.26l1.11-5.66h-4.24Z"/>
  <path class="cls-1" d="m211.19,24.8l5.53-.54c.33,1.86,1.01,3.22,2.03,4.09s2.39,1.31,4.12,1.31c1.83,0,3.21-.39,4.14-1.16s1.39-1.68,1.39-2.72c0-.67-.2-1.23-.59-1.7s-1.07-.87-2.04-1.22c-.67-.23-2.18-.64-4.55-1.23-3.05-.75-5.18-1.68-6.41-2.78-1.73-1.55-2.59-3.44-2.59-5.66,0-1.43.41-2.77,1.22-4.02s1.98-2.2,3.51-2.85,3.38-.98,5.54-.98c3.53,0,6.19.78,7.98,2.32,1.79,1.55,2.72,3.62,2.81,6.2l-5.68.25c-.24-1.45-.76-2.49-1.56-3.12s-2-.95-3.6-.95-2.94.34-3.88,1.02c-.6.43-.9,1.02-.9,1.75,0,.67.28,1.23.84,1.71.72.6,2.46,1.23,5.22,1.88,2.76.65,4.81,1.33,6.13,2.03,1.32.7,2.36,1.65,3.11,2.86.75,1.21,1.12,2.7,1.12,4.48,0,1.61-.45,3.12-1.34,4.53-.9,1.41-2.16,2.45-3.8,3.14-1.64.68-3.68,1.03-6.12,1.03-3.56,0-6.29-.82-8.2-2.47s-3.05-4.04-3.42-7.19Z"/>
  <path class="cls-1" d="m237.57,23.47c0-1.79.44-3.53,1.32-5.2.88-1.68,2.13-2.96,3.75-3.84,1.62-.88,3.43-1.32,5.42-1.32,3.08,0,5.61,1,7.58,3s2.96,4.53,2.96,7.59-1,5.64-2.99,7.67c-1.99,2.03-4.5,3.04-7.52,3.04-1.87,0-3.65-.42-5.35-1.27-1.7-.84-2.99-2.08-3.87-3.71-.88-1.63-1.32-3.62-1.32-5.96Zm5.53.29c0,2.02.48,3.57,1.44,4.65s2.14,1.61,3.55,1.61,2.59-.54,3.54-1.61c.95-1.08,1.43-2.64,1.43-4.68s-.48-3.53-1.43-4.61c-.95-1.08-2.13-1.61-3.54-1.61s-2.59.54-3.55,1.61-1.44,2.62-1.44,4.65Z"/>
  <path class="cls-1" d="m262.43,13.57h4.97v2.78c1.78-2.16,3.9-3.24,6.35-3.24,1.31,0,2.44.27,3.4.81.96.54,1.75,1.35,2.36,2.44.9-1.09,1.86-1.9,2.9-2.44,1.04-.54,2.14-.81,3.32-.81,1.5,0,2.76.3,3.8.91,1.04.61,1.81,1.5,2.32,2.68.37.87.56,2.28.56,4.22v13.04h-5.39v-11.65c0-2.02-.19-3.33-.56-3.92-.5-.77-1.27-1.15-2.3-1.15-.75,0-1.47.23-2.13.69s-1.15,1.14-1.44,2.03c-.29.89-.44,2.29-.44,4.21v9.79h-5.39v-11.17c0-1.98-.1-3.26-.29-3.84-.19-.58-.49-1-.89-1.29-.4-.28-.95-.42-1.64-.42-.83,0-1.58.22-2.25.67-.67.45-1.14,1.09-1.43,1.94s-.43,2.25-.43,4.2v9.91h-5.39V13.57Z"/>
  <path class="cls-1" d="m296.54,23.47c0-1.79.44-3.53,1.32-5.2.88-1.68,2.13-2.96,3.75-3.84,1.62-.88,3.43-1.32,5.42-1.32,3.08,0,5.61,1,7.58,3s2.96,4.53,2.96,7.59-1,5.64-2.99,7.67c-1.99,2.03-4.5,3.04-7.52,3.04-1.87,0-3.65-.42-5.35-1.27-1.7-.84-2.99-2.08-3.87-3.71-.88-1.63-1.32-3.62-1.32-5.96Zm5.53.29c0,2.02.48,3.57,1.44,4.65s2.14,1.61,3.55,1.61,2.59-.54,3.54-1.61c.95-1.08,1.43-2.64,1.43-4.68s-.48-3.53-1.43-4.61c-.95-1.08-2.13-1.61-3.54-1.61s-2.59.54-3.55,1.61-1.44,2.62-1.44,4.65Z"/>
  <path class="cls-1" d="m319.91,28.14l5.41-.83c.23,1.05.7,1.85,1.4,2.39s1.69.82,2.96.82c1.39,0,2.44-.26,3.15-.77.47-.36.71-.84.71-1.44,0-.41-.13-.75-.38-1.02-.27-.26-.87-.49-1.8-.71-4.35-.96-7.11-1.84-8.27-2.63-1.61-1.1-2.42-2.63-2.42-4.59,0-1.77.7-3.25,2.09-4.45,1.39-1.2,3.56-1.8,6.49-1.8s4.86.45,6.22,1.36c1.36.91,2.29,2.25,2.8,4.03l-5.09.94c-.22-.79-.63-1.4-1.24-1.82-.61-.42-1.48-.63-2.6-.63-1.42,0-2.44.2-3.05.59-.41.28-.61.65-.61,1.09,0,.38.18.71.54.98.49.36,2.17.86,5.04,1.52,2.87.65,4.88,1.45,6.02,2.4,1.13.96,1.69,2.3,1.69,4.01,0,1.87-.78,3.48-2.34,4.82s-3.87,2.02-6.93,2.02c-2.78,0-4.98-.56-6.59-1.69s-2.68-2.66-3.18-4.59Z"/>
  <path class="cls-1" d="m361.72,23.61l5.51,1.75c-.84,3.07-2.25,5.35-4.21,6.84-1.96,1.49-4.46,2.24-7.48,2.24-3.74,0-6.81-1.28-9.21-3.83-2.41-2.55-3.61-6.04-3.61-10.47,0-4.68,1.21-8.32,3.63-10.91s5.6-3.89,9.54-3.89c3.44,0,6.24,1.02,8.39,3.05,1.28,1.2,2.24,2.93,2.88,5.18l-5.62,1.34c-.33-1.46-1.03-2.61-2.08-3.46s-2.34-1.27-3.85-1.27c-2.09,0-3.78.75-5.08,2.25s-1.95,3.92-1.95,7.28c0,3.56.64,6.09,1.92,7.6,1.28,1.51,2.94,2.27,4.99,2.27,1.51,0,2.81-.48,3.9-1.44,1.09-.96,1.87-2.47,2.34-4.53Z"/>
  <path class="cls-1" d="m382.26,5.81h5.66v17.82c0,2.33-.21,4.12-.62,5.38-.55,1.64-1.55,2.95-2.99,3.95s-3.35,1.49-5.72,1.49c-2.78,0-4.92-.78-6.41-2.33-1.5-1.55-2.25-3.84-2.27-6.84l5.36-.61c.06,1.61.3,2.75.71,3.42.61,1.01,1.55,1.52,2.8,1.52s2.16-.36,2.69-1.08c.53-.72.79-2.22.79-4.5V5.81Z"/>
  <path class="cls-1" d="m394.01,33.95V5.81h19.29v4.76h-13.61v6.66h11.75v4.76h-11.75v11.96h-5.68Z"/>
</svg>