<?xml version="1.0" encoding="UTF-8"?>
<svg id="TODO" xmlns="http://www.w3.org/2000/svg" viewBox="0 0 100.92 100.92">
  <defs>
    <style>
      .cls-1 {
        fill: #fff;
      }

      .cls-2 {
        fill: #231f20;
      }
    </style>
  </defs>
  <path class="cls-2" d="m50.46,0C22.59,0,0,22.59,0,50.46s22.59,50.46,50.46,50.46,50.46-22.59,50.46-50.46S78.33,0,50.46,0Zm0,94.02c-24.02,0-43.55-19.54-43.55-43.55S26.45,6.91,50.46,6.91s43.55,19.54,43.55,43.55-19.54,43.55-43.55,43.55Z"/>
  <g>
    <circle class="cls-2" cx="50.46" cy="50.46" r="36.11" transform="translate(-15.47 23.15) rotate(-22.5)"/>
    <path class="cls-1" d="m69.29,61.59l-15.31-20.46,14.06-15.07h-3.07l-12.39,13.2-9.88-13.2h-11.08l14.81,19.75-14.81,15.78h3.26l12.97-13.9,10.42,13.9h11.01Zm-21.11-17.65l-11.59-15.46h4.9l9.4,12.57,1.4,1.87,12.15,16.23h-4.85l-10-13.34-1.41-1.88Z"/>
    <g>
      <path class="cls-1" d="m34.36,74.48c-1.73,0-3.13-1.4-3.13-3.13h0v-3.59c0-.49.41-.9.91-.9s.9.4.9.9v1.34h2.24c.49,0,.9.4.9.9s-.4.9-.9.9h-2.24v.45c0,.74.6,1.34,1.34,1.34h1.35c.49,0,.9.4.9.9s-.4.9-.9.9h-1.36Z"/>
      <path class="cls-1" d="m52.05,74.48c-1.72,0-3.12-1.4-3.12-3.12h0v-3.6c0-.49.4-.9.9-.9s.9.4.9.9v1.34h1.34c.49,0,.9.4.9.9s-.4.9-.9.9h-1.34v.45c0,.74.6,1.34,1.34,1.34h.45c.49,0,.9.4.9.9s-.4.9-.9.9h-.46Z"/>
      <path class="cls-1" d="m56.75,74.48c-1.72,0-3.12-1.4-3.12-3.12h0v-3.6c0-.49.4-.9.9-.9s.9.4.9.9v1.34h1.34c.49,0,.9.4.9.9s-.4.9-.9.9h-1.34v.45c0,.74.6,1.34,1.34,1.34h.45c.49,0,.9.4.9.9s-.4.9-.9.9h-.46Z"/>
      <path class="cls-1" d="m64.38,71.79c0-1.48,1.19-2.69,2.67-2.69h1.34c.49,0,.9.4.9.9s-.4.9-.9.9h-1.34c-.49,0-.9.4-.9.9v1.79c.01.49-.39.9-.88.9s-.9-.4-.9-.9v-1.79Z"/>
      <path class="cls-1" d="m44.9,69.1c-.49,0-.9.4-.9.9v1.79c0,.49-.4.9-.9.9s-.9-.4-.9-.9v-1.79c0-.49-.4-.9-.9-.9s-.9.4-.9.9v1.79c0,.49-.4.9-.9.9s-.9-.4-.9-.9v-1.79c0-.49-.4-.9-.9-.9s-.9.4-.9.9v1.79c0,1.48,1.2,2.69,2.68,2.69.66,0,1.3-.24,1.8-.69,1.1.99,2.8.9,3.79-.2.44-.49.69-1.14.69-1.8v-1.79c0-.49-.4-.9-.9-.9Z"/>
      <path class="cls-1" d="m47.36,69.1c-.49,0-.9.4-.9.9h0v3.58c0,.49.4.9.9.9s.9-.4.9-.9v-3.58c0-.49-.4-.89-.9-.89Z"/>
      <path class="cls-1" d="m47.36,66.86c.49,0,.9.4.9.9s-.4.9-.9.9-.9-.4-.9-.9.4-.9.9-.9Z"/>
      <path class="cls-1" d="m63.71,71.34c0,.31-.13.89-.6.89h-2.96c.1.4.46.67.87.67h1.91c.43,0,.78.35.78.78,0,.43-.35.78-.78.78h-1.91c-1.48,0-2.69-1.21-2.69-2.91,0-1.49,1.2-2.46,2.69-2.46s2.69,1,2.69,2.24h0Zm-1.79-.22c0-.41-.4-.75-.9-.75s-.9.33-.9.75h1.79Z"/>
    </g>
  </g>
</svg>