<?xml version="1.0" encoding="UTF-8"?>
<svg id="TODO" xmlns="http://www.w3.org/2000/svg" viewBox="0 0 100.92 101.03">
  <defs>
    <style>
      .cls-1 {
        fill: #1ed460;
      }
    </style>
  </defs>
  <g>
    <path class="cls-1" d="m50.46,0C22.59,0,0,22.59,0,50.46s22.59,50.46,50.46,50.46,50.46-22.59,50.46-50.46S78.33,0,50.46,0Zm0,98.84c-26.72,0-48.38-21.66-48.38-48.38S23.74,2.08,50.46,2.08s48.38,21.66,48.38,48.38-21.66,48.38-48.38,48.38Z"/>
    <path class="cls-1" d="m50.46,2.08C23.74,2.08,2.08,23.74,2.08,50.46s21.66,48.38,48.38,48.38,48.38-21.66,48.38-48.38S77.18,2.08,50.46,2.08Zm0,91.94c-24.02,0-43.55-19.54-43.55-43.55S26.45,6.91,50.46,6.91s43.55,19.54,43.55,43.55-19.54,43.55-43.55,43.55Z"/>
    <path class="cls-1" d="m50.46,2.08C23.74,2.08,2.08,23.74,2.08,50.46s21.66,48.38,48.38,48.38,48.38-21.66,48.38-48.38S77.18,2.08,50.46,2.08Zm0,91.94c-24.02,0-43.55-19.54-43.55-43.55S26.45,6.91,50.46,6.91s43.55,19.54,43.55,43.55-19.54,43.55-43.55,43.55Z"/>
    <path class="cls-1" d="m0,50.52c-.02,27.87,22.55,50.48,50.42,50.5,27.87.02,50.48-22.55,50.5-50.42C100.95,22.74,78.37.13,50.51.1,22.64.08.02,22.65,0,50.52Zm94.02.08c-.02,24.02-19.58,43.54-43.59,43.52-24.02-.02-43.54-19.58-43.52-43.59.02-24.02,19.58-43.54,43.59-43.52,24.02.02,43.54,19.58,43.52,43.59Z"/>
  </g>
  <g>
    <path class="cls-1" d="m50.16,22.67c-15.22,0-27.56,12.34-27.56,27.56s12.34,27.56,27.56,27.56,27.56-12.34,27.56-27.56-12.34-27.56-27.56-27.56Zm12.64,39.75c-.5.81-1.55,1.07-2.36.57-6.47-3.96-14.62-4.85-24.21-2.66-.92.21-1.85-.37-2.06-1.29-.21-.92.37-1.85,1.29-2.06,10.5-2.4,19.5-1.37,26.77,3.07.81.49,1.06,1.55.57,2.36Zm3.37-7.5c-.62,1.01-1.95,1.33-2.96.71-7.41-4.55-18.7-5.87-27.46-3.21-1.14.34-2.34-.3-2.68-1.43-.34-1.14.3-2.33,1.43-2.68,10.01-3.04,22.45-1.57,30.96,3.66,1.01.62,1.33,1.94.71,2.95Zm.29-7.81c-8.88-5.28-23.54-5.76-32.02-3.19-1.36.41-2.8-.36-3.21-1.72-.41-1.36.36-2.8,1.72-3.22,9.73-2.95,25.92-2.38,36.14,3.69,1.23.73,1.63,2.31.9,3.53-.73,1.22-2.31,1.63-3.53.9Z"/>
    <path d="m62.8,62.42c-.5.81-1.55,1.07-2.36.57-6.47-3.96-14.62-4.85-24.21-2.66-.92.21-1.85-.37-2.06-1.29-.21-.92.37-1.85,1.29-2.06,10.5-2.4,19.5-1.37,26.77,3.07.81.49,1.06,1.55.57,2.36Z"/>
    <path d="m66.18,54.91c-.62,1.01-1.95,1.33-2.96.71-7.41-4.55-18.7-5.87-27.46-3.21-1.14.34-2.34-.3-2.68-1.43-.34-1.14.3-2.33,1.43-2.68,10.01-3.04,22.45-1.57,30.96,3.66,1.01.62,1.33,1.94.71,2.95Z"/>
    <path d="m66.47,47.1c-8.88-5.28-23.54-5.76-32.02-3.19-1.36.41-2.8-.36-3.21-1.72-.41-1.36.36-2.8,1.72-3.22,9.73-2.95,25.92-2.38,36.14,3.69,1.23.73,1.63,2.31.9,3.53-.73,1.22-2.31,1.63-3.53.9Z"/>
  </g>
</svg>