<?xml version="1.0" encoding="UTF-8"?>
<svg id="TODO" xmlns="http://www.w3.org/2000/svg" xmlns:xlink="http://www.w3.org/1999/xlink" viewBox="0 0 100.92 101.03">
  <defs>
    <style>
      .cls-1 {
        fill: url(#linear-gradient);
      }

      .cls-2 {
        fill: #fff;
      }

      .cls-3 {
        fill: url(#linear-gradient-8);
      }

      .cls-4 {
        fill: url(#linear-gradient-9);
      }

      .cls-5 {
        fill: url(#linear-gradient-3);
      }

      .cls-6 {
        fill: url(#linear-gradient-4);
      }

      .cls-7 {
        fill: url(#linear-gradient-2);
      }

      .cls-8 {
        fill: url(#linear-gradient-6);
      }

      .cls-9 {
        fill: url(#linear-gradient-7);
      }

      .cls-10 {
        fill: url(#linear-gradient-5);
      }
    </style>
    <linearGradient id="linear-gradient" x1="86.63" y1="14.29" x2="9.29" y2="91.64" gradientUnits="userSpaceOnUse">
      <stop offset=".01" stop-color="#3b4f9b"/>
      <stop offset=".18" stop-color="#3d4e9a"/>
      <stop offset=".28" stop-color="#454c99"/>
      <stop offset=".37" stop-color="#544896"/>
      <stop offset=".45" stop-color="#684393"/>
      <stop offset=".52" stop-color="#833c8f"/>
      <stop offset=".58" stop-color="#a3348a"/>
      <stop offset=".62" stop-color="#be2e86"/>
      <stop offset=".76" stop-color="#e5333c"/>
      <stop offset="1" stop-color="#fac258"/>
    </linearGradient>
    <linearGradient id="linear-gradient-2" x1="86.63" y1="14.29" x2="9.29" y2="91.64" xlink:href="#linear-gradient"/>
    <linearGradient id="linear-gradient-3" x1="85.46" y1="16.1" x2="11.3" y2="90.26" xlink:href="#linear-gradient"/>
    <linearGradient id="linear-gradient-4" x1="85.46" y1="16.1" x2="11.3" y2="90.26" xlink:href="#linear-gradient"/>
    <linearGradient id="linear-gradient-5" x1="85.46" y1="16.1" x2="11.3" y2="90.26" xlink:href="#linear-gradient"/>
    <linearGradient id="linear-gradient-6" x1="85.46" y1="16.1" x2="11.3" y2="90.26" xlink:href="#linear-gradient"/>
    <linearGradient id="linear-gradient-7" x1="85.46" y1="16.11" x2="11.31" y2="90.26" xlink:href="#linear-gradient"/>
    <linearGradient id="linear-gradient-8" x1="85.46" y1="16.11" x2="11.31" y2="90.26" xlink:href="#linear-gradient"/>
    <linearGradient id="linear-gradient-9" x1="-6276.16" y1="-2557.56" x2="-6347.52" y2="-2628.93" gradientTransform="translate(2649.39 -6258.94) rotate(-89.95)" xlink:href="#linear-gradient"/>
  </defs>
  <path class="cls-2" d="m51.06,41.69c-4.89-.04-8.9,3.89-8.94,8.78-.04,4.89,3.89,8.9,8.78,8.94,4.9.04,8.9-3.89,8.94-8.78.04-4.9-3.89-8.9-8.78-8.94Z"/>
  <path class="cls-2" d="m64.42,29.19c-4.54-.7-21.58-.64-26.31-.11-4.67.52-7.77,3.41-8.47,8.04-.75,4.92-.6,23.3,0,26.98.64,3.85,2.82,6.48,6.65,7.55,4,1.12,23.26.86,27.57.39,4.69-.51,7.79-3.4,8.51-8.07.72-4.71.59-21.86.11-26.25-.51-4.7-3.4-7.81-8.06-8.52Zm-13.43,35.08c-7.57,0-13.7-6.14-13.7-13.71,0-7.57,6.14-13.7,13.71-13.7,7.57,0,13.7,6.14,13.7,13.71,0,7.57-6.14,13.7-13.71,13.7Zm14.25-24.73c-1.77,0-3.21-1.44-3.2-3.22,0-1.77,1.44-3.21,3.22-3.2,1.77,0,3.21,1.44,3.2,3.22,0,1.77-1.44,3.21-3.22,3.2Z"/>
  <path class="cls-2" d="m50.46,6.91C26.45,6.91,6.91,26.45,6.91,50.46s19.54,43.55,43.55,43.55,43.55-19.54,43.55-43.55S74.48,6.91,50.46,6.91Zm26.46,59.09c-1.6,6.08-5.56,9.7-11.71,10.69-4.65.75-25.37.89-29.59-.2-6.09-1.57-9.73-5.51-10.74-11.66-.74-4.5-1-25.46.28-30.01,1.65-5.91,5.58-9.41,11.56-10.38,5.24-.85,20.16-.64,26.44-.3,3.69.2,7.05,1.36,9.8,3.98,2.62,2.49,3.96,5.61,4.32,9.12.43,4.21.85,24.08-.37,28.74Z"/>
  <path class="cls-1" d="m50.46,0C22.59,0,0,22.59,0,50.46s22.59,50.46,50.46,50.46,50.46-22.59,50.46-50.46S78.33,0,50.46,0Zm0,98.84c-26.72,0-48.38-21.66-48.38-48.38S23.74,2.08,50.46,2.08s48.38,21.66,48.38,48.38-21.66,48.38-48.38,48.38Z"/>
  <path class="cls-2" d="m50.46,2.08C23.74,2.08,2.08,23.74,2.08,50.46s21.66,48.38,48.38,48.38,48.38-21.66,48.38-48.38S77.18,2.08,50.46,2.08Zm0,91.94c-24.02,0-43.55-19.54-43.55-43.55S26.45,6.91,50.46,6.91s43.55,19.54,43.55,43.55-19.54,43.55-43.55,43.55Z"/>
  <path class="cls-7" d="m50.46,2.08C23.74,2.08,2.08,23.74,2.08,50.46s21.66,48.38,48.38,48.38,48.38-21.66,48.38-48.38S77.18,2.08,50.46,2.08Zm0,91.94c-24.02,0-43.55-19.54-43.55-43.55S26.45,6.91,50.46,6.91s43.55,19.54,43.55,43.55-19.54,43.55-43.55,43.55Z"/>
  <path class="cls-2" d="m72.97,28.13c-2.75-2.62-6.11-3.78-9.8-3.98-6.28-.34-21.2-.56-26.44.3-5.99.98-9.91,4.47-11.56,10.38-1.27,4.55-1.02,25.51-.28,30.01,1.01,6.15,4.65,10.09,10.74,11.66,4.22,1.09,24.94.95,29.59.2,6.15-.99,10.11-4.61,11.71-10.69,1.22-4.67.79-24.53.37-28.74-.36-3.52-1.71-6.63-4.32-9.12Zm-.6,35.83c-.72,4.67-3.81,7.56-8.51,8.07-4.31.47-23.57.73-27.57-.39-3.83-1.07-6.01-3.7-6.65-7.55-.61-3.68-.76-22.06,0-26.98.7-4.63,3.8-7.52,8.47-8.04,4.74-.53,21.78-.59,26.31.11,4.66.72,7.55,3.82,8.06,8.52.48,4.39.61,21.53-.11,26.25Z"/>
  <path class="cls-5" d="m72.97,28.13c-2.75-2.62-6.11-3.78-9.8-3.98-6.28-.34-21.2-.56-26.44.3-5.99.98-9.91,4.47-11.56,10.38-1.27,4.55-1.02,25.51-.28,30.01,1.01,6.15,4.65,10.09,10.74,11.66,4.22,1.09,24.94.95,29.59.2,6.15-.99,10.11-4.61,11.71-10.69,1.22-4.67.79-24.53.37-28.74-.36-3.52-1.71-6.63-4.32-9.12Zm-.6,35.83c-.72,4.67-3.81,7.56-8.51,8.07-4.31.47-23.57.73-27.57-.39-3.83-1.07-6.01-3.7-6.65-7.55-.61-3.68-.76-22.06,0-26.98.7-4.63,3.8-7.52,8.47-8.04,4.74-.53,21.78-.59,26.31.11,4.66.72,7.55,3.82,8.06,8.52.48,4.39.61,21.53-.11,26.25Z"/>
  <path class="cls-6" d="m72.97,28.13c-2.75-2.62-6.11-3.78-9.8-3.98-6.28-.34-21.2-.56-26.44.3-5.99.98-9.91,4.47-11.56,10.38-1.27,4.55-1.02,25.51-.28,30.01,1.01,6.15,4.65,10.09,10.74,11.66,4.22,1.09,24.94.95,29.59.2,6.15-.99,10.11-4.61,11.71-10.69,1.22-4.67.79-24.53.37-28.74-.36-3.52-1.71-6.63-4.32-9.12Zm-.6,35.83c-.72,4.67-3.81,7.56-8.51,8.07-4.31.47-23.57.73-27.57-.39-3.83-1.07-6.01-3.7-6.65-7.55-.61-3.68-.76-22.06,0-26.98.7-4.63,3.8-7.52,8.47-8.04,4.74-.53,21.78-.59,26.31.11,4.66.72,7.55,3.82,8.06,8.52.48,4.39.61,21.53-.11,26.25Z"/>
  <path class="cls-2" d="m51,36.86c-7.57,0-13.71,6.13-13.71,13.7,0,7.57,6.13,13.71,13.7,13.71,7.57,0,13.71-6.13,13.71-13.7,0-7.57-6.13-13.71-13.7-13.71Zm-.09,22.56c-4.89-.04-8.83-4.05-8.78-8.94.04-4.9,4.05-8.83,8.94-8.78,4.9.04,8.83,4.05,8.78,8.94-.04,4.89-4.05,8.83-8.94,8.78Z"/>
  <path class="cls-10" d="m51,36.86c-7.57,0-13.71,6.13-13.71,13.7,0,7.57,6.13,13.71,13.7,13.71,7.57,0,13.71-6.13,13.71-13.7,0-7.57-6.13-13.71-13.7-13.71Zm-.09,22.56c-4.89-.04-8.83-4.05-8.78-8.94.04-4.9,4.05-8.83,8.94-8.78,4.9.04,8.83,4.05,8.78,8.94-.04,4.89-4.05,8.83-8.94,8.78Z"/>
  <path class="cls-8" d="m51,36.86c-7.57,0-13.71,6.13-13.71,13.7,0,7.57,6.13,13.71,13.7,13.71,7.57,0,13.71-6.13,13.71-13.7,0-7.57-6.13-13.71-13.7-13.71Zm-.09,22.56c-4.89-.04-8.83-4.05-8.78-8.94.04-4.9,4.05-8.83,8.94-8.78,4.9.04,8.83,4.05,8.78,8.94-.04,4.89-4.05,8.83-8.94,8.78Z"/>
  <path class="cls-2" d="m65.25,33.12c-1.77,0-3.21,1.43-3.22,3.2,0,1.77,1.43,3.21,3.2,3.22,1.77,0,3.21-1.43,3.22-3.2,0-1.77-1.43-3.21-3.2-3.22Z"/>
  <path class="cls-9" d="m65.25,33.12c-1.77,0-3.21,1.43-3.22,3.2,0,1.77,1.43,3.21,3.2,3.22,1.77,0,3.21-1.43,3.22-3.2,0-1.77-1.43-3.21-3.2-3.22Z"/>
  <path class="cls-3" d="m65.25,33.12c-1.77,0-3.21,1.43-3.22,3.2,0,1.77,1.43,3.21,3.2,3.22,1.77,0,3.21-1.43,3.22-3.2,0-1.77-1.43-3.21-3.2-3.22Z"/>
  <path class="cls-4" d="m0,50.52c-.02,27.87,22.55,50.48,50.42,50.5,27.87.02,50.48-22.55,50.5-50.42C100.95,22.74,78.37.13,50.51.1,22.64.08.02,22.65,0,50.52Zm94.02.08c-.02,24.02-19.58,43.54-43.59,43.52-24.02-.02-43.54-19.58-43.52-43.59.02-24.02,19.58-43.54,43.59-43.52,24.02.02,43.54,19.58,43.52,43.59Z"/>
</svg>