<?xml version="1.0" encoding="UTF-8"?>
<svg id="TODO" xmlns="http://www.w3.org/2000/svg" viewBox="0 0 100.92 100.92">
  <defs>
    <style>
      .cls-1 {
        fill: #fdfdfd;
      }

      .cls-2 {
        fill: #2967b0;
      }
    </style>
  </defs>
  <g>
    <circle class="cls-2" cx="50.21" cy="50.1" r="27.57"/>
    <g>
      <path class="cls-1" d="m52.35,46.33c.45-.51.83-1.03,1.29-1.46,1.43-1.35,3.12-2.03,5.1-2.01,1.09,0,2.16.09,3.2.39,2.39.69,3.78,2.34,4.45,4.68.5,1.75.59,3.55.59,5.36,0,3.81-.01,7.62,0,11.43,0,.36-.1.45-.45.45-1.96-.02-3.92-.02-5.89,0-.35,0-.42-.1-.42-.43.01-3.62.01-7.25,0-10.87,0-.91-.06-1.82-.32-2.7-.47-1.63-1.63-2.46-3.34-2.37-2.33.12-3.54,1.28-3.83,3.64-.07.57-.1,1.13-.1,1.7,0,3.52,0,7.05,0,10.57,0,.35-.09.46-.45.45-1.98-.02-3.95-.02-5.93,0-.32,0-.41-.08-.41-.4,0-6.98,0-13.96,0-20.94,0-.35.11-.43.44-.42,1.88.01,3.75.02,5.63,0,.35,0,.43.11.43.44-.02.83,0,1.67,0,2.5Z"/>
      <path class="cls-1" d="m41.6,54.31c0,3.45,0,6.9,0,10.36,0,.38-.09.5-.49.5-1.96-.02-3.92-.02-5.88,0-.31,0-.41-.08-.41-.4,0-6.99,0-13.98,0-20.97,0-.29.07-.39.38-.39,1.99.01,3.98.02,5.97,0,.38,0,.43.14.43.47,0,3.48,0,6.96,0,10.44Z"/>
      <path class="cls-1" d="m42.14,36.47c0,2.17-1.76,3.93-3.92,3.93-2.13,0-3.91-1.77-3.92-3.9,0-2.16,1.77-3.93,3.92-3.93,2.14,0,3.91,1.76,3.91,3.9Z"/>
    </g>
  </g>
  <path class="cls-2" d="m0,50.42c-.02,27.87,22.55,50.48,50.42,50.5,27.87.02,50.48-22.55,50.5-50.42C100.95,22.64,78.37.02,50.5,0,22.64-.02.02,22.55,0,50.42Zm94.02.08c-.02,24.02-19.58,43.54-43.59,43.52-24.02-.02-43.54-19.58-43.52-43.59.02-24.02,19.58-43.54,43.59-43.52,24.02.02,43.54,19.58,43.52,43.59Z"/>
</svg>