<?xml version="1.0" encoding="UTF-8"?>
<svg id="botones" xmlns="http://www.w3.org/2000/svg" xmlns:xlink="http://www.w3.org/1999/xlink" viewBox="0 0 306 57">
  <defs>
    <style>
      .cls-1 {
        stroke: #fff;
        stroke-miterlimit: 10;
        stroke-width: 1.14px;
      }

      .cls-1, .cls-2 {
        fill: #ff9633;
      }

      .cls-3 {
        fill: #f4a45e;
      }

      .cls-4 {
        fill: #fff;
      }

      .cls-5 {
        fill: none;
        filter: url(#drop-shadow-6);
      }
    </style>
    <filter id="drop-shadow-6" filterUnits="userSpaceOnUse">
      <feOffset dx="0" dy="4.99"/>
      <feGaussianBlur result="blur" stdDeviation="2.85"/>
      <feFlood flood-color="#492806" flood-opacity=".75"/>
      <feComposite in2="blur" operator="in"/>
      <feComposite in="SourceGraphic"/>
    </filter>
  </defs>
  <g class="cls-5">
    <path class="cls-1" d="m13.88,5.62h249.47c5.46,0,9.89,2.63,9.89,5.88v23.24c0,3.25-4.43,5.88-9.89,5.88H13.22c-5.46,0-4.93-2.63-4.93-5.88V11.5c0-3.25.13-5.88,5.59-5.88Z"/>
    <g>
      <circle class="cls-4" cx="274.9" cy="23.12" r="21.71" transform="translate(171.41 278.85) rotate(-72.77)"/>
      <path class="cls-3" d="m274.9,46.25c-12.75,0-23.12-10.37-23.12-23.12S262.15,0,274.9,0s23.12,10.37,23.12,23.12-10.37,23.12-23.12,23.12Zm0-43.43c-11.19,0-20.3,9.11-20.3,20.3s9.11,20.3,20.3,20.3,20.3-9.11,20.3-20.3-9.11-20.3-20.3-20.3Z"/>
    </g>
    <g>
      <g>
        <path class="cls-2" d="m269.05,21.45h11.4c-.11,1.57-.4,3.05-1.1,4.45-.39.78-.89,1.47-1.57,2.02-1.95,1.58-4.72,1.39-6.46-.46-1.12-1.19-1.69-2.66-2.01-4.23-.12-.57-.18-1.16-.27-1.78Z"/>
        <path class="cls-2" d="m275.87,16.46v.38h4.23c.04.19.08.35.13.56h-4.32c0,.32,0,.4,0,.4,1.23-.01,2.71,0,3.94,0h.43c.03.2.06.37.09.58h-4.52c0,.21,0,.39,0,.39,1.29,0,2.85,0,4.14,0h.42c.01.21.02.39.03.61h-4.57v.37h4.58v1.16h-11.38v-1.29h4.61c0-.2,0-.38,0-.39-1.29,0-2.85,0-4.14,0h-.45c.02-.22.07-.4.09-.61h4.55c0-.12,0-.22,0-.38h-4.54c.04-.22.11-.38.14-.57h4.39s0-.37,0-.38c-1.2.01-4.16,0-4.3,0,0,0,.15-.56.16-.56,1.26,0,2.87,0,4.13,0,0,0,0-.38,0-.38-1.13.01-3.91,0-4.05,0,0,0,.18-.46.19-.46,1.08.02,2.41,0,3.49,0h.41v-.38h-3.78s.22-.48.26-.48c.99.02,2.53,0,3.52.01,0,0,0-.1,0-.37h-3.36s.3-.39.3-.39c.18,0,1.85,0,2.69,0,.12,0,.24,0,.38,0v-.37h-2.87s.27-.34.27-.34c.8,0,1.77,0,2.59,0,0,.01,0-.23,0-.36h-2.22c.93-1.82,5.27-1.81,6.7.02h-2.34v.38c.46,0,.93,0,1.39,0,.36,0,.9,0,1.25,0,0,0,.28.32.33.37h-2.98v.4c1,0,2.18,0,3.16,0,.01,0,.31.4.3.4h-3.45c0,.14,0,.27,0,.39.09,0,2.51,0,3.57,0,0,0,.22.41.22.41h-3.8v.38h2.45c.37,0,1.07,0,1.44,0,.01,0,.23.52.22.52h-4.11Z"/>
        <path class="cls-2" d="m275.65,30.86v2h2.18v1.05h-6.15v-1.04h2.17v-2.03c-.16-.04-.32-.07-.49-.11-2.1-.52-3.6-1.83-4.71-3.63-.84-1.36-1.3-2.85-1.48-4.43-.02-.16,0-.32-.25-.37-.6-.13-.9-.6-.79-1.17.1-.5.57-.83,1.1-.76.54.07.83.5.84,1.11.06,2.62.89,4.95,2.87,6.75,2.29,2.08,5.41,2.07,7.71,0,1.57-1.42,2.4-3.23,2.73-5.29.08-.5.07-1.02.06-1.53,0-.53.34-.96.85-1.03.52-.06.99.27,1.09.77.1.52-.19,1.04-.69,1.14-.3.06-.33.2-.35.44-.29,2.36-1.15,4.46-2.87,6.15-1.01,1-2.2,1.67-3.62,1.92-.07.01-.14.04-.22.07Z"/>
      </g>
      <g>
        <rect class="cls-2" x="263.72" y="16.86" width="1.22" height="11.27" rx=".58" ry=".58"/>
        <rect class="cls-2" x="260.98" y="18.52" width="1.22" height="8.23" rx=".58" ry=".58"/>
        <rect class="cls-2" x="255.68" y="20.06" width="1.22" height="5.19" rx=".58" ry=".58"/>
        <rect class="cls-2" x="258.34" y="15.27" width="1.22" height="15.23" rx=".58" ry=".58"/>
        <rect class="cls-2" x="284.59" y="17.65" width="1.22" height="11.27" rx=".58" ry=".58" transform="translate(570.4 46.57) rotate(-180)"/>
        <rect class="cls-2" x="287.33" y="19.03" width="1.22" height="8.23" rx=".58" ry=".58" transform="translate(575.89 46.29) rotate(180)"/>
        <rect class="cls-2" x="292.64" y="20.53" width="1.22" height="5.19" rx=".58" ry=".58" transform="translate(586.5 46.24) rotate(180)"/>
        <rect class="cls-2" x="289.97" y="15.27" width="1.22" height="15.23" rx=".58" ry=".58" transform="translate(581.17 45.77) rotate(180)"/>
      </g>
    </g>
  </g>
  <g>
    <path class="cls-4" d="m17.25,32.9h-2.45l1.34-9.55h2.45l-1.34,9.55Zm.41-10.67c-.42,0-.77-.14-1.06-.44-.29-.29-.44-.64-.44-1.06s.15-.76.44-1.05c.29-.29.65-.44,1.06-.44s.76.15,1.05.44c.29.29.44.64.44,1.05s-.15.77-.44,1.06c-.29.29-.64.44-1.05.44Z"/>
    <path class="cls-4" d="m22.12,16.28h7.03l-.3,2.32h-4.56l-.38,2.7h4.59l-.3,2.3h-4.61l-.48,3.47h4.64l-.3,2.29h-7.12l1.79-13.08Z"/>
    <path class="cls-4" d="m36.36,21.04l-1.13,1.81c-.29-.43-.6-.75-.92-.96s-.62-.31-.9-.31c-.21,0-.4.06-.54.18-.15.12-.22.25-.22.4s.06.28.18.43c.11.14.45.42,1.03.83.91.65,1.51,1.21,1.8,1.68.29.47.43.97.43,1.52,0,.72-.29,1.4-.88,2.04-.59.64-1.45.96-2.57.96-.65,0-1.23-.13-1.77-.39-.53-.26-1.12-.74-1.77-1.43l1.47-1.71c.66.88,1.39,1.32,2.18,1.32.31,0,.56-.08.75-.23.19-.15.28-.33.28-.54,0-.17-.07-.34-.21-.51-.14-.17-.53-.49-1.17-.94-.74-.52-1.24-.97-1.52-1.34-.39-.52-.59-1.07-.59-1.65,0-.81.31-1.47.92-1.98.61-.51,1.34-.76,2.17-.76.59,0,1.14.14,1.67.42.53.28.97.67,1.32,1.18Z"/>
    <path class="cls-4" d="m47.91,21.69l-2.01,1.09c-.57-.72-1.33-1.08-2.29-1.08-.65,0-1.22.14-1.72.41-.5.28-.89.67-1.19,1.19-.3.52-.44,1.07-.44,1.65,0,.75.23,1.34.7,1.79.47.45,1.11.67,1.93.67,1.13,0,2-.38,2.6-1.15l1.87,1.32c-.53.63-1.18,1.12-1.97,1.48s-1.66.53-2.63.53c-1.51,0-2.69-.41-3.56-1.25-.87-.83-1.3-1.93-1.3-3.29,0-1.56.54-2.89,1.61-3.99,1.07-1.1,2.46-1.65,4.15-1.65,1.9,0,3.32.75,4.26,2.25Z"/>
    <path class="cls-4" d="m50.76,19.69h2.35l-.68,4.94c-.07.55-.11.95-.11,1.23,0,.43.15.79.44,1.08.3.29.68.44,1.16.44.61,0,1.08-.19,1.41-.56.33-.37.57-1.13.73-2.28l.66-4.85h2.35l-.69,5.2c-.16,1.17-.43,2.08-.81,2.72-.38.64-.88,1.14-1.5,1.48-.62.34-1.36.52-2.2.52-1.19,0-2.13-.34-2.84-1.03-.7-.68-1.05-1.57-1.05-2.66,0-.66.08-1.52.23-2.56l.54-3.68Z"/>
    <path class="cls-4" d="m70.5,21.69l-2.01,1.09c-.57-.72-1.33-1.08-2.29-1.08-.65,0-1.22.14-1.72.41-.5.28-.89.67-1.19,1.19-.3.52-.44,1.07-.44,1.65,0,.75.23,1.34.7,1.79.47.45,1.11.67,1.93.67,1.13,0,2-.38,2.6-1.15l1.87,1.32c-.53.63-1.18,1.12-1.97,1.48-.79.36-1.66.53-2.63.53-1.51,0-2.69-.41-3.56-1.25-.87-.83-1.3-1.93-1.3-3.29,0-1.56.54-2.89,1.61-3.99,1.07-1.1,2.46-1.65,4.15-1.65,1.9,0,3.32.75,4.26,2.25Z"/>
    <path class="cls-4" d="m73.84,15.95h2.36l-.64,4.72c.91-.82,1.85-1.23,2.83-1.23.84,0,1.52.27,2.06.8.53.53.8,1.2.8,2.01,0,.38-.05.95-.15,1.7l-.74,5.42h-2.37l.72-5.29c.07-.55.11-.95.11-1.23,0-.39-.11-.69-.33-.9-.22-.21-.54-.32-.95-.32s-.8.14-1.19.41c-.4.28-.7.66-.92,1.15-.21.49-.41,1.41-.59,2.75l-.47,3.42h-2.37l1.83-13.41Z"/>
    <path class="cls-4" d="m91.36,19.69h2.38l-1.35,9.67h-2.35l.14-1.04c-.52.48-1,.81-1.45,1-.45.19-.95.28-1.51.28-1.28,0-2.3-.47-3.06-1.41-.76-.94-1.14-2.04-1.14-3.29,0-.95.24-1.86.73-2.73.48-.86,1.13-1.54,1.95-2.02.82-.48,1.67-.72,2.56-.72.6,0,1.15.14,1.65.41.51.27.92.67,1.25,1.2l.19-1.36Zm-3.57,7.81c.58,0,1.09-.13,1.53-.39.44-.26.8-.67,1.1-1.22.29-.56.44-1.12.44-1.7,0-.77-.22-1.38-.67-1.85-.44-.47-1.03-.7-1.76-.7-.85,0-1.57.31-2.16.93-.59.62-.89,1.43-.89,2.41,0,.76.22,1.37.67,1.83.45.46,1.02.69,1.73.69Z"/>
    <path class="cls-4" d="m108.48,19.69h2.38l-1.35,9.67h-2.35l.14-1.04c-.52.48-1,.81-1.45,1-.45.19-.95.28-1.51.28-1.28,0-2.3-.47-3.06-1.41-.76-.94-1.14-2.04-1.14-3.29,0-.95.24-1.86.73-2.73.48-.86,1.13-1.54,1.95-2.02.82-.48,1.67-.72,2.56-.72.6,0,1.15.14,1.65.41.51.27.92.67,1.25,1.2l.19-1.36Zm-3.57,7.81c.58,0,1.09-.13,1.53-.39.44-.26.8-.67,1.1-1.22.29-.56.44-1.12.44-1.7,0-.77-.22-1.38-.67-1.85-.44-.47-1.03-.7-1.76-.7-.85,0-1.57.31-2.16.93-.59.62-.89,1.43-.89,2.41,0,.76.22,1.37.67,1.83.45.46,1.02.69,1.73.69Z"/>
    <path class="cls-4" d="m120.04,19.69h2.38l-1.83,13.21h-2.35l.63-4.64c-.48.5-.94.85-1.36,1.05-.42.2-.89.3-1.41.3-1.2,0-2.16-.47-2.86-1.41-.71-.94-1.06-2.04-1.06-3.29,0-.95.23-1.86.69-2.73.46-.86,1.07-1.54,1.84-2.02.77-.48,1.58-.72,2.42-.72.56,0,1.09.13,1.56.4.48.26.87.65,1.18,1.15l.18-1.3Zm-3.3,7.81c.54,0,1-.13,1.41-.4.4-.27.74-.68,1.01-1.25.27-.57.41-1.14.41-1.74,0-.75-.2-1.35-.61-1.81-.41-.46-.95-.68-1.61-.68-.78,0-1.44.31-1.98.93-.54.62-.81,1.43-.81,2.41,0,.76.21,1.37.62,1.83.41.46.94.69,1.59.69Z"/>
    <path class="cls-4" d="m125.44,19.69h2.35l-.68,4.94c-.07.55-.11.95-.11,1.23,0,.43.15.79.44,1.08.3.29.68.44,1.16.44.61,0,1.08-.19,1.41-.56.33-.37.57-1.13.73-2.28l.66-4.85h2.35l-.69,5.2c-.16,1.17-.43,2.08-.81,2.72-.38.64-.88,1.14-1.5,1.48-.62.34-1.36.52-2.2.52-1.19,0-2.13-.34-2.84-1.03-.7-.68-1.05-1.57-1.05-2.66,0-.66.08-1.52.23-2.56l.54-3.68Z"/>
    <path class="cls-4" d="m136.03,19.69h2.35l-1.3,9.67h-2.37l1.32-9.67Zm2.4-5.24h2.87l-3.74,3.48h-1.74l2.61-3.48Z"/>
    <path class="cls-4" d="m151.73,26.53l2.09,1.08c-.47.62-1.09,1.1-1.86,1.46-.77.36-1.63.54-2.57.54-1.48,0-2.64-.41-3.49-1.25-.85-.83-1.28-1.93-1.28-3.31,0-1.57.53-2.9,1.6-3.99,1.06-1.09,2.35-1.63,3.86-1.63.91,0,1.71.2,2.42.6.71.4,1.27.98,1.68,1.73.41.76.61,1.58.61,2.47,0,.28-.03.6-.09.98h-7.72c.02.67.24,1.21.66,1.61.42.4.99.6,1.73.6.89,0,1.68-.3,2.37-.89Zm.6-3.06c-.18-.59-.47-1.04-.89-1.35-.42-.31-.92-.46-1.5-.46s-1.11.16-1.57.47c-.47.31-.82.76-1.07,1.33h5.03Z"/>
    <path class="cls-4" d="m157.69,15.95h2.37l-1.83,13.41h-2.37l1.83-13.41Z"/>
    <path class="cls-4" d="m166.38,19.69h2.12l-.17,1.32c.63-1.04,1.4-1.57,2.29-1.57.21,0,.44.06.67.17l-.87,2.16c-.18-.06-.31-.1-.4-.1-.46,0-.88.27-1.24.8-.36.54-.65,1.62-.86,3.25l-.47,3.64h-2.39l1.32-9.67Z"/>
    <path class="cls-4" d="m178.68,26.53l2.09,1.08c-.47.62-1.09,1.1-1.86,1.46-.77.36-1.63.54-2.57.54-1.48,0-2.64-.41-3.49-1.25-.85-.83-1.28-1.93-1.28-3.31,0-1.57.53-2.9,1.6-3.99,1.06-1.09,2.35-1.63,3.86-1.63.91,0,1.71.2,2.42.6.71.4,1.27.98,1.68,1.73.41.76.61,1.58.61,2.47,0,.28-.03.6-.09.98h-7.72c.02.67.24,1.21.66,1.61.42.4.99.6,1.73.6.89,0,1.68-.3,2.37-.89Zm.6-3.06c-.18-.59-.47-1.04-.89-1.35-.42-.31-.92-.46-1.5-.46s-1.11.16-1.57.47c-.47.31-.82.76-1.07,1.33h5.03Z"/>
    <path class="cls-4" d="m189.7,21.04l-1.13,1.81c-.29-.43-.6-.75-.92-.96-.32-.2-.62-.31-.9-.31-.21,0-.4.06-.54.18-.15.12-.22.25-.22.4s.06.28.18.43c.11.14.45.42,1.03.83.91.65,1.51,1.21,1.8,1.68.29.47.43.97.43,1.52,0,.72-.29,1.4-.88,2.04-.59.64-1.45.96-2.57.96-.65,0-1.23-.13-1.77-.39-.53-.26-1.12-.74-1.77-1.43l1.47-1.71c.66.88,1.39,1.32,2.18,1.32.31,0,.56-.08.75-.23.19-.15.28-.33.28-.54,0-.17-.07-.34-.21-.51-.14-.17-.53-.49-1.17-.94-.74-.52-1.24-.97-1.52-1.34-.39-.52-.59-1.07-.59-1.65,0-.81.31-1.47.92-1.98.61-.51,1.34-.76,2.17-.76.59,0,1.14.14,1.67.42.53.28.97.67,1.32,1.18Z"/>
    <path class="cls-4" d="m192.45,19.69h2.35l-.68,4.94c-.07.55-.11.95-.11,1.23,0,.43.15.79.44,1.08.3.29.68.44,1.16.44.61,0,1.08-.19,1.41-.56.33-.37.57-1.13.73-2.28l.66-4.85h2.35l-.69,5.2c-.16,1.17-.43,2.08-.81,2.72-.38.64-.88,1.14-1.5,1.48-.62.34-1.36.52-2.2.52-1.19,0-2.13-.34-2.84-1.03-.7-.68-1.05-1.57-1.05-2.66,0-.66.08-1.52.23-2.56l.54-3.68Z"/>
    <path class="cls-4" d="m203.35,19.69h2.38l-.15,1.06c.86-.87,1.82-1.31,2.89-1.31.43,0,.84.07,1.21.22.38.15.68.34.92.57.23.23.43.55.6.97.44-.57.97-1.01,1.56-1.31.6-.3,1.22-.45,1.87-.45.81,0,1.48.27,2.02.82.53.54.8,1.25.8,2.12,0,.33-.03.73-.09,1.22l-.8,5.77h-2.37l.68-4.97c.09-.67.13-1.11.13-1.33,0-.46-.11-.8-.34-1.04-.23-.24-.55-.36-.97-.36s-.81.14-1.23.43c-.41.29-.73.67-.95,1.15-.22.48-.4,1.3-.55,2.46l-.5,3.66h-2.37l.72-5.26c.06-.43.09-.79.09-1.1,0-.42-.12-.76-.37-1-.24-.25-.57-.37-.96-.37s-.77.13-1.18.4c-.4.26-.71.62-.94,1.08-.22.45-.4,1.15-.52,2.09l-.54,4.18h-2.37l1.32-9.67Z"/>
    <path class="cls-4" d="m226.39,26.53l2.09,1.08c-.47.62-1.09,1.1-1.86,1.46-.77.36-1.63.54-2.57.54-1.48,0-2.64-.41-3.49-1.25-.85-.83-1.28-1.93-1.28-3.31,0-1.57.53-2.9,1.6-3.99,1.06-1.09,2.35-1.63,3.86-1.63.91,0,1.71.2,2.42.6.71.4,1.27.98,1.68,1.73.41.76.61,1.58.61,2.47,0,.28-.03.6-.09.98h-7.72c.02.67.24,1.21.66,1.61.42.4.99.6,1.73.6.89,0,1.68-.3,2.37-.89Zm.6-3.06c-.18-.59-.47-1.04-.89-1.35-.42-.31-.92-.46-1.5-.46s-1.11.16-1.57.47c-.47.31-.82.76-1.07,1.33h5.03Z"/>
    <path class="cls-4" d="m232.13,19.69h2.37l-.13.98c.91-.82,1.85-1.23,2.83-1.23.84,0,1.52.27,2.06.8.53.53.8,1.2.8,2.01,0,.38-.05.95-.15,1.7l-.74,5.42h-2.37l.72-5.29c.07-.55.11-.95.11-1.23,0-.39-.11-.69-.33-.9-.22-.21-.54-.32-.95-.32s-.8.14-1.2.41c-.4.28-.7.66-.92,1.15-.21.49-.41,1.41-.59,2.75l-.46,3.42h-2.37l1.32-9.67Z"/>
    <path class="cls-4" d="m243.23,26.62c.41,0,.76.15,1.05.44.29.29.44.64.44,1.06s-.15.76-.44,1.05c-.29.29-.64.44-1.05.44s-.77-.15-1.06-.44c-.29-.29-.44-.64-.44-1.05s.15-.77.44-1.06c.29-.29.64-.44,1.06-.44Zm.41-10.67h2.45l-1.34,9.55h-2.44l1.34-9.55Z"/>
  </g>
</svg>