<?xml version="1.0" encoding="UTF-8"?>
<svg id="botones" xmlns="http://www.w3.org/2000/svg" viewBox="0 0 245 52">
  <defs>
    <style>
      .cls-1 {
        fill: #fff;
      }

      .cls-2 {
        fill: #0e55c5;
      }
    </style>
  </defs>
  <g>
    <path class="cls-2" d="m31.04,16.2h3.6l4.3,13.15h.05l4.25-13.15h3.34l-5.64,16.76h-4.13l-5.76-16.76Z"/>
    <path class="cls-2" d="m57.06,32.26c-1.18.65-2.52.98-4.25.98-4.08,0-6.46-2.35-6.46-6.41,0-3.58,1.9-6.53,5.74-6.53,4.59,0,5.88,3.14,5.88,7.47h-8.55c.14,1.99,1.54,3.12,3.53,3.12,1.56,0,2.9-.58,4.1-1.25v2.62Zm-2.16-6.7c-.1-1.56-.82-2.91-2.62-2.91s-2.71,1.25-2.86,2.91h5.47Z"/>
    <path class="cls-2" d="m67.72,21.25c1.25-.58,2.93-.94,4.3-.94,3.77,0,5.33,1.56,5.33,5.21v1.58c0,1.25.02,2.18.05,3.1.02.94.07,1.8.14,2.76h-2.83c-.12-.65-.12-1.46-.14-1.85h-.05c-.74,1.37-2.35,2.14-3.82,2.14-2.18,0-4.32-1.32-4.32-3.67,0-1.85.89-2.93,2.11-3.53s2.81-.72,4.15-.72h1.78c0-1.99-.89-2.66-2.78-2.66-1.37,0-2.74.53-3.82,1.34l-.1-2.76Zm3.77,9.65c.98,0,1.75-.43,2.26-1.1.53-.7.67-1.58.67-2.54h-1.39c-1.44,0-3.58.24-3.58,2.14,0,1.06.89,1.51,2.04,1.51Z"/>
    <path class="cls-2" d="m80.58,14.96h3.22v18h-3.22V14.96Z"/>
    <path class="cls-2" d="m92.48,20.6h3.46l3.07,9h.05l2.98-9h3.22l-4.56,12.36h-3.62l-4.58-12.36Z"/>
    <path class="cls-2" d="m107.27,15.27h3.22v3.07h-3.22v-3.07Zm0,5.33h3.22v12.36h-3.22v-12.36Z"/>
    <path class="cls-2" d="m122.1,31.57h-.05c-.96,1.2-2.28,1.68-3.79,1.68-3.79,0-5.19-3.12-5.19-6.51s1.39-6.43,5.19-6.43c1.61,0,2.74.55,3.7,1.73h.05v-7.08h3.22v18h-3.12v-1.39Zm-2.95-.82c2.14,0,2.83-2.26,2.83-4.01s-.82-3.94-2.88-3.94-2.66,2.28-2.66,3.94.6,4.01,2.71,4.01Z"/>
    <path class="cls-2" d="m138.44,32.26c-1.18.65-2.52.98-4.25.98-4.08,0-6.46-2.35-6.46-6.41,0-3.58,1.9-6.53,5.74-6.53,4.59,0,5.88,3.14,5.88,7.47h-8.55c.14,1.99,1.54,3.12,3.53,3.12,1.56,0,2.9-.58,4.1-1.25v2.62Zm-2.16-6.7c-.1-1.56-.82-2.91-2.62-2.91s-2.71,1.25-2.86,2.91h5.47Z"/>
    <path class="cls-2" d="m147.54,20.31c3.67,0,6.48,2.47,6.48,6.55,0,3.55-2.38,6.39-6.48,6.39s-6.46-2.83-6.46-6.39c0-4.08,2.81-6.55,6.46-6.55Zm0,10.44c2.47,0,3.12-2.21,3.12-4.27,0-1.9-1.01-3.67-3.12-3.67s-3.1,1.82-3.1,3.67c0,2.04.65,4.27,3.1,4.27Z"/>
  </g>
  <g>
    <circle class="cls-2" cx="189.96" cy="26" r="24" transform="translate(145.37 212.47) rotate(-84.35)"/>
    <polygon class="cls-1" points="183.41 26 183.41 14.95 192.98 20.47 202.55 26 192.98 31.53 183.41 37.05 183.41 26"/>
  </g>
</svg>