<?xml version="1.0" encoding="UTF-8"?>
<svg id="botones" xmlns="http://www.w3.org/2000/svg" xmlns:xlink="http://www.w3.org/1999/xlink" viewBox="0 0 337.53 106">
  <defs>
    <style>
      .cls-1 {
        fill: #f98213;
      }

      .cls-2 {
        fill: #fff;
      }

      .cls-3 {
        fill: none;
        filter: url(#drop-shadow-54);
      }
    </style>
    <filter id="drop-shadow-54" filterUnits="userSpaceOnUse">
      <feOffset dx="0" dy="5.37"/>
      <feGaussianBlur result="blur" stdDeviation="2.68"/>
      <feFlood flood-color="#0a4940" flood-opacity=".7"/>
      <feComposite in2="blur" operator="in"/>
      <feComposite in="SourceGraphic"/>
    </filter>
  </defs>
  <g class="cls-3">
    <path class="cls-1" d="m28.89,22.95h239.42c6.25,0,11.33,4.03,11.33,9v35.56c0,4.97-5.07,9-11.33,9H28.89c-6.25,0-11.33-4.03-11.33-9V31.94c0-4.97,5.07-9,11.33-9Z"/>
    <g>
      <circle class="cls-2" cx="284.51" cy="49.32" r="46.19" transform="translate(-3.1 23.63) rotate(-4.73)"/>
      <path class="cls-1" d="m284.51,98.51c-27.12,0-49.19-22.07-49.19-49.19S257.38.13,284.51.13s49.19,22.07,49.19,49.19-22.07,49.19-49.19,49.19Zm0-92.38c-23.81,0-43.19,19.37-43.19,43.19s19.38,43.19,43.19,43.19,43.19-19.37,43.19-43.19-19.38-43.19-43.19-43.19Z"/>
      <path class="cls-1" d="m284.71,16.36c-18.2,0-32.95,14.75-32.95,32.95s14.75,32.95,32.95,32.95,32.95-14.75,32.95-32.95-14.75-32.95-32.95-32.95Zm15.11,47.53c-.59.97-1.86,1.28-2.82.68-7.74-4.73-17.48-5.8-28.95-3.18-1.11.25-2.21-.44-2.46-1.54-.25-1.11.44-2.21,1.54-2.46,12.55-2.87,23.32-1.63,32.01,3.67.97.59,1.27,1.86.68,2.82Zm4.03-8.97c-.75,1.21-2.33,1.59-3.53.85-8.86-5.44-22.36-7.02-32.84-3.84-1.36.41-2.79-.36-3.21-1.71-.41-1.36.36-2.79,1.71-3.2,11.97-3.63,26.85-1.87,37.02,4.38,1.21.74,1.59,2.33.85,3.53Zm.35-9.34c-10.62-6.31-28.14-6.89-38.28-3.81-1.63.49-3.35-.43-3.84-2.05-.49-1.63.42-3.35,2.05-3.85,11.64-3.53,30.99-2.85,43.22,4.41,1.46.87,1.95,2.76,1.08,4.22-.87,1.46-2.76,1.95-4.22,1.08Z"/>
      <path class="cls-2" d="m299.83,63.89c-.59.97-1.86,1.28-2.82.68-7.74-4.73-17.48-5.8-28.95-3.18-1.11.25-2.21-.44-2.46-1.54-.25-1.11.44-2.21,1.54-2.46,12.55-2.87,23.32-1.63,32.01,3.67.97.59,1.27,1.86.68,2.82Z"/>
      <path class="cls-2" d="m303.86,54.92c-.75,1.21-2.33,1.59-3.53.85-8.86-5.44-22.36-7.02-32.84-3.84-1.36.41-2.79-.36-3.21-1.71-.41-1.36.36-2.79,1.71-3.2,11.97-3.63,26.85-1.87,37.02,4.38,1.21.74,1.59,2.33.85,3.53Z"/>
      <path class="cls-2" d="m304.21,45.58c-10.62-6.31-28.14-6.89-38.28-3.81-1.63.49-3.35-.43-3.84-2.05-.49-1.63.42-3.35,2.05-3.85,11.64-3.53,30.99-2.85,43.22,4.41,1.46.87,1.95,2.76,1.08,4.22-.87,1.46-2.76,1.95-4.22,1.08Z"/>
    </g>
    <g>
      <path class="cls-2" d="m63.8,47.62c0,3.06-1.13,6.04-3.14,8.3-1.96,2.18-4.81,3.14-7.95,3.14-4.62,0-7.39-3.33-7.39-7.79,0-2.98,1.05-5.88,2.96-8.11,2.04-2.34,4.65-3.49,7.71-3.49,5.08,0,7.81,2.95,7.81,7.95Zm-14.55,3.87c0,2.44,1.23,4.62,3.95,4.62,4.3,0,6.69-5.16,6.69-8.89,0-2.5-1.29-4.59-4-4.59-4.38,0-6.63,5.08-6.63,8.86Z"/>
      <path class="cls-2" d="m74.83,46.71c.13-.67.24-1.21.29-1.8h3.41l-.4,1.83h.05c1.05-1.48,2.34-2.15,4.16-2.15,3.44,0,5.08,2.34,5.08,5.61,0,4.32-2.39,8.86-7.2,8.86-1.58,0-3.22-.54-3.81-2.47h-.05l-1.58,7.79h-3.6l3.65-17.67Zm6.31.67c-2.44,0-3.81,3.22-3.81,5.64,0,1.77.62,3.25,2.36,3.25,3.01,0,3.97-3.76,3.97-5.94,0-1.69-.86-2.95-2.53-2.95Z"/>
      <path class="cls-2" d="m103.86,50.66c0,4.86-3.36,8.41-8.24,8.41-3.92,0-6.29-2.42-6.29-6.31,0-4.62,3.54-8.16,8.19-8.16,3.73,0,6.34,2.26,6.34,6.07Zm-3.76.03c0-1.8-.62-3.3-2.74-3.3-2.85,0-4.27,3.14-4.27,5.64,0,1.83.75,3.25,2.82,3.25,2.79,0,4.19-3.22,4.19-5.59Z"/>
      <path class="cls-2" d="m107.67,46.76c.11-.59.21-1.21.32-1.85h3.44l-.48,2.6h.05c.64-1.5,2.42-2.93,4.08-2.93.46,0,.94.03,1.37.13l-.75,3.52c-.4-.13-.91-.21-1.37-.21-2.55,0-3.79,2.28-4.24,4.51l-1.29,6.2h-3.6l2.47-11.98Z"/>
      <path class="cls-2" d="m136.51,43.59c-1.1-.56-2.52-.97-3.89-.97s-3.14.54-3.14,2.15c0,3.01,6.39,2.82,6.39,8.03,0,4.59-3.6,6.26-7.71,6.26-1.8,0-3.65-.43-5.34-1.05l.97-3.2c1.45.67,2.98,1.29,4.59,1.29,1.8,0,3.57-.91,3.57-2.93,0-3.38-6.39-2.85-6.39-7.84,0-3.95,3.38-5.67,6.98-5.67,1.64,0,3.33.21,4.86.83l-.89,3.09Z"/>
      <path class="cls-2" d="m140.48,46.71c.13-.67.24-1.21.29-1.8h3.41l-.4,1.83h.05c1.05-1.48,2.34-2.15,4.16-2.15,3.44,0,5.08,2.34,5.08,5.61,0,4.32-2.39,8.86-7.2,8.86-1.58,0-3.22-.54-3.81-2.47h-.05l-1.58,7.79h-3.6l3.65-17.67Zm6.31.67c-2.44,0-3.81,3.22-3.81,5.64,0,1.77.62,3.25,2.36,3.25,3.01,0,3.97-3.76,3.97-5.94,0-1.69-.86-2.95-2.53-2.95Z"/>
      <path class="cls-2" d="m169.5,50.66c0,4.86-3.36,8.41-8.24,8.41-3.92,0-6.29-2.42-6.29-6.31,0-4.62,3.54-8.16,8.19-8.16,3.73,0,6.34,2.26,6.34,6.07Zm-3.76.03c0-1.8-.62-3.3-2.74-3.3-2.85,0-4.27,3.14-4.27,5.64,0,1.83.75,3.25,2.82,3.25,2.79,0,4.19-3.22,4.19-5.59Z"/>
      <path class="cls-2" d="m172.27,44.91h2.6l.62-2.85,3.87-1.26-.89,4.11h3.22l-.56,2.63h-3.22l-1.32,6.04c-.08.32-.16.81-.16,1.34,0,.83.56,1.34,1.37,1.34.64,0,1.29-.13,1.75-.32l-.62,2.79c-.62.13-1.32.32-1.93.32-2.44,0-4.16-.97-4.16-3.62,0-1.07.21-2.12.46-3.22l1.02-4.67h-2.6l.56-2.63Z"/>
      <path class="cls-2" d="m184.24,44.91h3.6l-2.95,13.83h-3.6l2.96-13.83Zm1.32-5.96h3.6l-.75,3.44h-3.6l.75-3.44Z"/>
      <path class="cls-2" d="m192.4,47.54h-2.79l.56-2.63h2.79c.72-3.52,1.91-6.63,6.1-6.63.83,0,1.64.16,2.23.35l-.83,2.69c-.32-.16-.72-.24-1.1-.24-1.99,0-2.44,2.39-2.79,3.84h3.22l-.56,2.63h-3.22l-2.36,11.2h-3.6l2.36-11.2Z"/>
      <path class="cls-2" d="m204.08,44.91l1.29,10.29h.05l5.5-10.29h3.95l-9.37,15.92c-1.1,1.88-2.47,3.87-5.51,3.87-.91,0-1.8-.13-2.69-.38l.81-2.74c.43.16.86.32,1.58.32,1.07,0,1.88-.54,3.14-2.5l-2.44-14.5h3.68Z"/>
    </g>
  </g>
</svg>