<?xml version="1.0" encoding="UTF-8"?>
<svg id="botones" xmlns="http://www.w3.org/2000/svg" xmlns:xlink="http://www.w3.org/1999/xlink" viewBox="0 0 278 91">
  <defs>
    <style>
      .cls-1 {
        fill: #fff;
      }

      .cls-2 {
        fill: #3993ce;
      }

      .cls-3 {
        fill: none;
        filter: url(#drop-shadow-42);
      }
    </style>
    <filter id="drop-shadow-42" filterUnits="userSpaceOnUse">
      <feOffset dx="0" dy="4.79"/>
      <feGaussianBlur result="blur" stdDeviation="2.4"/>
      <feFlood flood-color="#172242" flood-opacity=".8"/>
      <feComposite in2="blur" operator="in"/>
      <feComposite in="SourceGraphic"/>
    </filter>
  </defs>
  <g class="cls-3">
    <path class="cls-2" d="m13.02,19.54h238.26c5.59,0,10.11,3.6,10.11,8.03v31.75c0,4.44-4.53,8.03-10.11,8.03H13.02c-5.58,0-10.11-3.6-10.11-8.03v-31.75c0-4.44,4.53-8.03,10.11-8.03Z"/>
    <g>
      <path class="cls-1" d="m13.88,34.43h9.85l-.5,2.64h-6.54l-.86,4.12h5.85l-.53,2.64h-5.87l-.98,4.7h6.62l-.58,2.64h-9.97l3.52-16.73Z"/>
      <path class="cls-1" d="m32.37,41.45c-.84-.31-1.73-.58-2.64-.58-.96,0-2.16.26-2.16,1.25,0,1.56,4.17,2.13,4.17,5.15,0,3.21-2.8,4.17-5.56,4.17-1.29,0-2.59-.19-3.76-.74l.7-2.57c.91.5,1.82.96,3.07.96,1.08,0,2.21-.36,2.21-1.37,0-1.99-4.17-2.18-4.17-5.27,0-2.9,2.8-3.93,5.35-3.93,1.17,0,2.37.22,3.5.5l-.7,2.42Z"/>
      <path class="cls-1" d="m43.32,41.64c-.62-.41-1.46-.62-2.35-.62-2.56,0-4,2.4-4,4.72,0,1.61.53,3.21,2.73,3.21.79,0,1.77-.22,2.61-.62l-.36,2.54c-.98.48-2.04.58-3.09.58-3.19,0-5.25-2.13-5.25-5.32,0-4.31,2.85-7.6,7.29-7.6,1.2,0,2.35.22,3.21.48l-.79,2.64Z"/>
      <path class="cls-1" d="m54.9,49.39c-.14.74-.26,1.39-.31,1.77h-3.14l.22-1.2h-.05c-.89.81-2.11,1.49-3.5,1.49-2.42,0-4.03-1.51-4.03-3.96,0-.93.24-1.92.41-2.68l1.29-5.99h3.21l-1.2,5.83c-.17.84-.36,1.68-.36,2.59,0,1.03.72,1.73,1.75,1.73,2.23,0,3.04-2.09,3.45-3.93l1.32-6.21h3.21l-2.28,10.57Z"/>
      <path class="cls-1" d="m67.65,41.64c-.62-.41-1.46-.62-2.35-.62-2.56,0-4,2.4-4,4.72,0,1.61.53,3.21,2.73,3.21.79,0,1.77-.22,2.61-.62l-.36,2.54c-.98.48-2.04.58-3.09.58-3.19,0-5.25-2.13-5.25-5.32,0-4.31,2.85-7.6,7.29-7.6,1.2,0,2.35.22,3.21.48l-.79,2.64Z"/>
      <path class="cls-1" d="m71.46,33.18h3.21l-1.53,6.83h.05c.89-.82,2.11-1.49,3.5-1.49,2.42,0,4.03,1.51,4.03,3.96,0,.93-.24,1.92-.41,2.68l-1.29,5.99h-3.21l1.2-5.83c.17-.84.36-1.68.36-2.59,0-1.03-.72-1.73-1.75-1.73-2.23,0-3.04,2.08-3.45,3.93l-1.32,6.21h-3.21l3.84-17.98Z"/>
      <path class="cls-1" d="m89.63,49.27h-.05c-1.1,1.39-2.21,2.18-3.98,2.18-2.23,0-3.81-1.25-3.81-3.52,0-4.08,4.55-4.39,7.58-4.39h1.13c.1-.34.1-.7.1-1.05,0-1.25-1.34-1.61-2.47-1.61-1.41,0-2.78.36-4.05.96l.46-2.56c1.37-.48,2.76-.74,4.2-.74,2.47,0,4.79.91,4.79,3.81,0,1.65-1.22,6.5-1.51,8.82h-2.71l.33-1.89Zm-3.14-.17c2.4,0,3.14-1.65,3.64-3.64h-1.13c-1.56,0-4.15.26-4.15,2.35,0,.86.82,1.29,1.63,1.29Z"/>
      <path class="cls-1" d="m104.16,45.98c0,2.28,1.22,3.12,3.43,3.12,1.32,0,2.59-.34,3.79-.89l-.41,2.54c-1.25.38-2.61.7-3.93.7-3.55,0-5.95-1.73-5.95-5.39s2.97-7.53,7.02-7.53c3.04,0,5.06,1.56,5.06,4.7,0,.93-.12,1.85-.31,2.76h-8.7Zm5.87-2.21c.05-.29.07-.55.07-.84,0-1.32-.7-2.06-2.04-2.06-1.99,0-2.85,1.2-3.48,2.9h5.44Z"/>
      <path class="cls-1" d="m117.48,33.18h3.21l-3.81,17.98h-3.21l3.81-17.98Z"/>
      <path class="cls-1" d="m133.88,49.27h-.05c-1.1,1.39-2.21,2.18-3.98,2.18-2.23,0-3.81-1.25-3.81-3.52,0-4.08,4.55-4.39,7.58-4.39h1.13c.1-.34.1-.7.1-1.05,0-1.25-1.34-1.61-2.47-1.61-1.41,0-2.78.36-4.05.96l.46-2.56c1.37-.48,2.76-.74,4.2-.74,2.47,0,4.79.91,4.79,3.81,0,1.65-1.22,6.5-1.51,8.82h-2.71l.33-1.89Zm-3.14-.17c2.4,0,3.14-1.65,3.64-3.64h-1.13c-1.56,0-4.15.26-4.15,2.35,0,.86.82,1.29,1.63,1.29Z"/>
      <path class="cls-1" d="m150.49,49.39c-.14.74-.26,1.39-.31,1.77h-3.14l.22-1.2h-.05c-.89.81-2.11,1.49-3.5,1.49-2.42,0-4.03-1.51-4.03-3.96,0-.93.24-1.92.41-2.68l1.29-5.99h3.21l-1.2,5.83c-.17.84-.36,1.68-.36,2.59,0,1.03.72,1.73,1.75,1.73,2.23,0,3.04-2.09,3.45-3.93l1.32-6.21h3.21l-2.28,10.57Z"/>
      <path class="cls-1" d="m168.33,33.18l-3.33,15.25c-.19,1.05-.38,2.11-.46,2.73h-3l.31-1.82h-.05c-.96,1.34-2.16,2.11-4.03,2.11-2.92,0-4.24-2.45-4.24-5.13,0-3.69,2.01-7.79,6.21-7.79,1.58,0,2.8.6,3.81,1.75l1.56-7.1h3.21Zm-11.43,12.85c0,1.25.38,2.92,1.97,2.92,2.35,0,3.74-2.73,3.74-5.01,0-1.44-.7-2.92-2.33-2.92-2.3,0-3.38,3.16-3.38,5.01Z"/>
      <path class="cls-1" d="m169.86,38.82h3.21l-2.64,12.35h-3.21l2.64-12.35Zm1.17-5.32h3.21l-.67,3.07h-3.21l.67-3.07Z"/>
      <path class="cls-1" d="m186.85,43.95c0,4.34-3,7.5-7.36,7.5-3.5,0-5.61-2.16-5.61-5.63,0-4.12,3.17-7.29,7.31-7.29,3.33,0,5.66,2.01,5.66,5.42Zm-3.36.02c0-1.61-.55-2.95-2.45-2.95-2.54,0-3.81,2.8-3.81,5.03,0,1.63.67,2.9,2.52,2.9,2.49,0,3.74-2.88,3.74-4.99Z"/>
    </g>
    <g>
      <circle class="cls-1" cx="230.9" cy="43.19" r="39.62"/>
      <path class="cls-2" d="m230.9,85.38c-23.26,0-42.19-18.93-42.19-42.19S207.63,1,230.9,1s42.19,18.93,42.19,42.19-18.93,42.19-42.19,42.19Zm0-79.24c-20.43,0-37.04,16.62-37.04,37.04s16.62,37.04,37.04,37.04,37.04-16.62,37.04-37.04S251.32,6.15,230.9,6.15Z"/>
    </g>
    <g>
      <g>
        <path class="cls-2" d="m221.49,41.35h18.56c-.17,2.55-.66,4.97-1.8,7.24-.63,1.26-1.45,2.39-2.55,3.29-3.17,2.58-7.69,2.26-10.51-.75-1.82-1.94-2.74-4.33-3.27-6.88-.19-.93-.29-1.89-.44-2.89Z"/>
        <path class="cls-2" d="m232.6,33.23v.61h6.88c.07.3.13.56.21.91h-7.03c0,.52,0,.65,0,.65,2-.02,4.41,0,6.41,0h.7c.05.32.1.6.15.95h-7.35c0,.35-.01.63,0,.63,2.1-.02,4.63,0,6.73,0h.69c.02.35.03.64.05.99h-7.43v.6h7.45v1.89h-18.52v-2.1h7.51c0-.33,0-.62,0-.64-2.1.02-4.64,0-6.73,0h-.73c.03-.35.12-.65.14-.99h7.41c0-.19,0-.36,0-.61h-7.39c.06-.36.18-.62.23-.93h7.14s0-.61,0-.61c-1.96.02-6.76,0-7,0,0,0,.25-.91.27-.91,2.06,0,4.66,0,6.72,0,0,0,0-.62-.01-.62-1.84.02-6.37,0-6.6,0,0,0,.29-.75.31-.75,1.76.04,3.92.01,5.67.01h.66v-.61h-6.15s.36-.78.42-.78c1.62.04,4.11,0,5.73.02,0,0,0-.17,0-.61h-5.48s.48-.64.49-.64c.29,0,3.01,0,4.38.01.2,0,.39,0,.62,0v-.6h-4.67s.44-.55.44-.55c1.3,0,2.88,0,4.22,0,0,.02-.01-.38-.01-.59h-3.61c1.51-2.96,8.57-2.95,10.9.03h-3.81v.61c.75,0,1.51,0,2.26,0,.58,0,1.47,0,2.04,0,0,0,.46.52.54.61h-4.85v.64c1.63,0,3.54-.01,5.14-.01.02,0,.51.65.49.65h-5.62c0,.22,0,.43,0,.63.15,0,4.09,0,5.81,0,.02,0,.35.67.36.67h-6.18v.62h3.98c.6,0,1.75-.01,2.34-.01.02,0,.38.84.36.84h-6.69Z"/>
        <path class="cls-2" d="m232.24,56.67v3.26h3.55v1.72h-10v-1.69h3.53v-3.31c-.26-.06-.52-.12-.79-.18-3.42-.84-5.86-2.98-7.67-5.91-1.36-2.21-2.12-4.64-2.41-7.21-.03-.27.01-.52-.4-.61-.97-.21-1.47-.98-1.29-1.9.16-.81.93-1.35,1.78-1.24.87.11,1.35.81,1.37,1.8.1,4.27,1.44,8.05,4.66,10.98,3.72,3.38,8.81,3.36,12.55,0,2.56-2.3,3.91-5.26,4.44-8.61.13-.82.11-1.66.1-2.49,0-.87.55-1.57,1.39-1.67.85-.1,1.61.44,1.77,1.26.16.84-.3,1.69-1.12,1.85-.48.09-.53.33-.58.72-.47,3.84-1.88,7.25-4.66,10.01-1.64,1.62-3.58,2.72-5.88,3.13-.11.02-.22.07-.35.11Z"/>
      </g>
      <g>
        <rect class="cls-2" x="212.82" y="33.89" width="1.99" height="18.34" rx=".94" ry=".94"/>
        <rect class="cls-2" x="208.36" y="36.59" width="1.99" height="13.39" rx=".94" ry=".94"/>
        <rect class="cls-2" x="199.73" y="39.09" width="1.99" height="8.45" rx=".95" ry=".95"/>
        <rect class="cls-2" x="204.06" y="31.31" width="1.99" height="24.78" rx=".94" ry=".94"/>
        <rect class="cls-2" x="246.78" y="35.17" width="1.99" height="18.34" rx=".94" ry=".94" transform="translate(495.55 88.68) rotate(180)"/>
        <rect class="cls-2" x="251.25" y="37.42" width="1.99" height="13.39" rx=".95" ry=".95" transform="translate(504.48 88.23) rotate(-180)"/>
        <rect class="cls-2" x="259.88" y="39.86" width="1.99" height="8.45" rx=".95" ry=".95" transform="translate(521.75 88.16) rotate(180)"/>
        <rect class="cls-2" x="255.54" y="31.31" width="1.99" height="24.78" rx=".94" ry=".94" transform="translate(513.07 87.4) rotate(180)"/>
      </g>
    </g>
  </g>
</svg>