<?xml version="1.0" encoding="UTF-8"?>
<svg id="botones" xmlns="http://www.w3.org/2000/svg" xmlns:xlink="http://www.w3.org/1999/xlink" viewBox="0 0 278 91">
  <defs>
    <style>
      .cls-1, .cls-2 {
        fill: #fff;
      }

      .cls-3, .cls-4 {
        fill: #510377;
      }

      .cls-5 {
        fill: none;
        filter: url(#drop-shadow-58);
      }

      .cls-4, .cls-2 {
        fill-rule: evenodd;
      }
    </style>
    <filter id="drop-shadow-58" filterUnits="userSpaceOnUse">
      <feOffset dx="0" dy="4.6"/>
      <feGaussianBlur result="blur" stdDeviation="2.3"/>
      <feFlood flood-color="#5a585e" flood-opacity=".7"/>
      <feComposite in2="blur" operator="in"/>
      <feComposite in="SourceGraphic"/>
    </filter>
  </defs>
  <g class="cls-5">
    <path class="cls-3" d="m12.45,22.55h224.89c5.36,0,9.71,3.45,9.71,7.71v30.48c0,4.26-4.35,7.71-9.71,7.71H12.45c-5.36,0-9.71-3.45-9.71-7.71v-30.48c0-4.26,4.35-7.71,9.71-7.71Z"/>
    <g>
      <path class="cls-1" d="m14.8,37.09h3.22l1.5,12.5h.05l6.67-12.5h3.5l-8.98,16.07h-3.84l-2.12-16.07Z"/>
      <path class="cls-1" d="m31.44,48.18c0,2.19,1.17,2.99,3.29,2.99,1.27,0,2.49-.32,3.64-.85l-.39,2.44c-1.2.37-2.51.67-3.77.67-3.41,0-5.71-1.66-5.71-5.18s2.85-7.23,6.74-7.23c2.92,0,4.86,1.5,4.86,4.51,0,.9-.11,1.77-.3,2.65h-8.35Zm5.64-2.12c.05-.28.07-.53.07-.81,0-1.27-.67-1.98-1.96-1.98-1.91,0-2.74,1.15-3.34,2.79h5.22Z"/>
      <path class="cls-1" d="m56.81,51.33h-.05c-1.06,1.34-2.12,2.1-3.82,2.1-2.14,0-3.66-1.2-3.66-3.38,0-3.91,4.37-4.21,7.27-4.21h1.08c.09-.32.09-.67.09-1.01,0-1.2-1.29-1.54-2.37-1.54-1.36,0-2.67.35-3.89.92l.44-2.46c1.31-.46,2.65-.71,4.03-.71,2.37,0,4.6.88,4.6,3.66,0,1.59-1.17,6.24-1.45,8.47h-2.6l.32-1.82Zm-3.02-.16c2.3,0,3.02-1.59,3.5-3.5h-1.08c-1.5,0-3.98.25-3.98,2.25,0,.83.78,1.24,1.57,1.24Z"/>
      <path class="cls-1" d="m66.65,35.89h3.08l-3.66,17.26h-3.08l3.66-17.26Z"/>
      <path class="cls-1" d="m86.66,43.83c-.81-.3-1.66-.55-2.53-.55-.92,0-2.07.25-2.07,1.2,0,1.5,4.01,2.05,4.01,4.95,0,3.08-2.69,4.01-5.34,4.01-1.24,0-2.49-.18-3.61-.71l.67-2.46c.88.48,1.75.92,2.95.92,1.04,0,2.12-.35,2.12-1.31,0-1.91-4-2.09-4-5.06,0-2.78,2.69-3.77,5.13-3.77,1.13,0,2.28.21,3.36.48l-.67,2.33Z"/>
      <path class="cls-1" d="m91.3,41.3h3.08l-2.53,11.85h-3.08l2.53-11.85Zm1.13-5.11h3.08l-.64,2.95h-3.08l.64-2.95Z"/>
      <path class="cls-1" d="m97.31,41.3h2.23l.53-2.44,3.32-1.08-.76,3.52h2.76l-.48,2.26h-2.76l-1.13,5.18c-.07.28-.14.69-.14,1.15,0,.71.48,1.15,1.17,1.15.55,0,1.11-.11,1.5-.28l-.53,2.39c-.53.11-1.13.28-1.66.28-2.09,0-3.57-.83-3.57-3.11,0-.92.18-1.82.39-2.76l.87-4h-2.23l.48-2.26Z"/>
      <path class="cls-1" d="m108.49,41.3h3.08l-2.53,11.85h-3.08l2.53-11.85Zm1.13-5.11h3.08l-.64,2.95h-3.08l.64-2.95Z"/>
      <path class="cls-1" d="m126.19,46.22c0,4.17-2.88,7.2-7.07,7.2-3.36,0-5.39-2.07-5.39-5.41,0-3.96,3.04-7,7.02-7,3.2,0,5.43,1.93,5.43,5.2Zm-3.22.02c0-1.54-.53-2.83-2.35-2.83-2.44,0-3.66,2.69-3.66,4.83,0,1.56.64,2.78,2.42,2.78,2.39,0,3.59-2.76,3.59-4.79Z"/>
      <path class="cls-1" d="m136.62,41.3h3.08l.85,8.91h.05l4.35-8.91h3.43l.64,8.91h.05l4.56-8.91h3.15l-6.58,11.85h-3.47l-.67-9.07h-.05l-4.33,9.07h-3.5l-1.57-11.85Z"/>
      <path class="cls-1" d="m160.16,48.18c0,2.19,1.17,2.99,3.29,2.99,1.27,0,2.49-.32,3.64-.85l-.39,2.44c-1.2.37-2.51.67-3.77.67-3.41,0-5.71-1.66-5.71-5.18s2.85-7.23,6.74-7.23c2.92,0,4.86,1.5,4.86,4.51,0,.9-.11,1.77-.3,2.65h-8.36Zm5.64-2.12c.05-.28.07-.53.07-.81,0-1.27-.67-1.98-1.96-1.98-1.91,0-2.74,1.15-3.34,2.79h5.22Z"/>
      <path class="cls-1" d="m177.49,35.89l-1.52,6.58v.05l.05-.05.02.05c.76-.85,1.82-1.5,3.18-1.5,2.95,0,4.35,2,4.35,4.81,0,3.71-2.05,7.6-6.17,7.6-1.68,0-2.44-.3-3.41-1.96h-.05l-.37,1.68h-2.9l3.66-17.26h3.15Zm-.55,15.14c2.58,0,3.41-3.22,3.41-5.09,0-1.45-.74-2.53-2.16-2.53-2.09,0-3.27,2.76-3.27,4.83,0,1.52.53,2.78,2.03,2.78Z"/>
    </g>
    <g>
      <circle class="cls-1" cx="231.07" cy="45.5" r="39.62"/>
      <path class="cls-3" d="m231.07,87.69c-23.26,0-42.19-18.93-42.19-42.19S207.81,3.31,231.07,3.31s42.19,18.93,42.19,42.19-18.93,42.19-42.19,42.19Zm0-79.24c-20.43,0-37.04,16.62-37.04,37.04s16.62,37.04,37.04,37.04,37.04-16.62,37.04-37.04-16.62-37.04-37.04-37.04Z"/>
    </g>
  </g>
  <g>
    <path class="cls-2" d="m225.58,54.31l-15.16-17.1c-1.2-1.35-1.2-3.55,0-4.9,1.2-1.35,3.15-1.35,4.35,0l10.87,12.25c-1.2-1.35-1.2-3.55,0-4.9,1.07-1.21,2.73-1.34,3.93-.39-.84-1.35-.72-3.23.35-4.44s2.88-1.35,4.09-.26c-.97-1.36-.89-3.35.23-4.61,1.2-1.35,3.15-1.35,4.34,0l9.36,10.56c.12.14.23.28.33.44l3.23,3.64c2.6,2.93,2.6,7.69,0,10.62l-7.84,8.85c-2.06,2.32-5.13,2.8-7.62,1.45-.11-.03-.23-.06-.34-.1l-17.21-6.47c-1.61-.6-2.48-2.57-1.94-4.38.54-1.81,2.28-2.8,3.89-2.19l5.15,1.94Z"/>
    <path class="cls-4" d="m225.58,54.31l-15.16-17.1c-1.2-1.35-1.2-3.55,0-4.9,1.2-1.35,3.15-1.35,4.35,0l10.87,12.25c-1.2-1.35-1.2-3.55,0-4.9,1.07-1.21,2.73-1.34,3.93-.39-.84-1.35-.72-3.23.35-4.44s2.88-1.35,4.09-.26c-.97-1.36-.89-3.35.23-4.61,1.2-1.35,3.15-1.35,4.34,0l9.36,10.56c.12.14.23.28.33.44l3.23,3.64c2.6,2.93,2.6,7.69,0,10.62l-7.84,8.85c-2.06,2.32-5.13,2.8-7.62,1.45-.11-.03-.23-.06-.34-.1l-17.21-6.47c-1.61-.6-2.48-2.57-1.94-4.38.54-1.81,2.28-2.8,3.89-2.19l5.15,1.94Zm4.6-24.04c.3-1.11.84-2.16,1.62-3.04,2.54-2.87,6.67-2.87,9.21,0l9.36,10.56c.17.2.34.4.48.61l3.07,3.47c3.94,4.45,3.94,11.66,0,16.11l-7.84,8.85c-3.03,3.41-7.5,4.21-11.2,2.38-.09-.03-.18-.06-.27-.09l-17.21-6.47c-3.41-1.28-5.26-5.44-4.12-9.29.53-1.79,1.62-3.2,2.97-4.07l-8.26-9.32c-2.54-2.87-2.54-7.52,0-10.39,2.54-2.87,6.67-2.87,9.21,0l6.27,7.07c.71-.72,1.53-1.23,2.4-1.54.3-1.1.84-2.14,1.61-3.01.78-.88,1.71-1.49,2.7-1.83Z"/>
  </g>
</svg>