<?xml version="1.0" encoding="UTF-8"?>
<svg xmlns="http://www.w3.org/2000/svg" xmlns:xlink="http://www.w3.org/1999/xlink" viewBox="0 0 278 91">
  <defs>
    <style>
      .cls-1, .cls-2, .cls-3, .cls-4 {
        fill: none;
      }

      .cls-5 {
        fill: #fff;
      }

      .cls-6 {
        fill: #b9ff8b;
      }

      .cls-7 {
        fill: #df667e;
      }

      .cls-8 {
        fill: #d9264a;
      }

      .cls-2 {
        filter: url(#drop-shadow-54);
      }

      .cls-3 {
        opacity: .1;
      }

      .cls-4 {
        clip-path: url(#clippath);
      }
    </style>
    <clipPath id="clippath">
      <rect class="cls-1" x="-522.01" y="-1223.07" width="1279.29" height="365.76"/>
    </clipPath>
    <filter id="drop-shadow-54" filterUnits="userSpaceOnUse">
      <feOffset dx="0" dy="4.6"/>
      <feGaussianBlur result="blur" stdDeviation="2.3"/>
      <feFlood flood-color="#511c34" flood-opacity=".7"/>
      <feComposite in2="blur" operator="in"/>
      <feComposite in="SourceGraphic"/>
    </filter>
  </defs>
  <g id="TODO">
    <g class="cls-4">
      <g class="cls-3">
        <g>
          <rect class="cls-6" x="246.58" y="68.09" width="8.44" height="8.16"/>
          <rect class="cls-6" x="215.17" y="22.55" width="8.73" height="8.45"/>
          <rect class="cls-6" x="215.36" y="83.26" width="8.34" height="8.07"/>
          <rect class="cls-6" x="183.85" y="7.37" width="8.83" height="8.54"/>
          <rect class="cls-6" x="183.95" y="37.73" width="8.63" height="8.36"/>
          <rect class="cls-6" x="184.05" y="68.09" width="8.43" height="8.16"/>
          <rect class="cls-6" x="152.49" y="-7.86" width="9.02" height="8.73"/>
          <rect class="cls-6" x="152.74" y="52.91" width="8.53" height="8.26"/>
          <rect class="cls-6" x="152.83" y="83.26" width="8.34" height="8.07"/>
          <rect class="cls-6" x="121.32" y="7.37" width="8.83" height="8.54"/>
          <rect class="cls-6" x="121.42" y="37.73" width="8.63" height="8.36"/>
          <rect class="cls-6" x="121.52" y="68.09" width="8.43" height="8.16"/>
          <rect class="cls-6" x="90.2" y="52.91" width="8.53" height="8.26"/>
          <rect class="cls-6" x="58.89" y="37.73" width="8.63" height="8.36"/>
          <rect class="cls-6" x="27.43" y="-7.86" width="9.02" height="8.73"/>
        </g>
      </g>
    </g>
  </g>
  <g id="botones">
    <g class="cls-2">
      <path class="cls-8" d="m12.36,21.06h204.95c5.36,0,9.71,3.45,9.71,7.71v30.48c0,4.26-4.35,7.71-9.71,7.71H12.36c-5.36,0-9.71-3.45-9.71-7.71v-30.48c0-4.26,4.35-7.71,9.71-7.71Z"/>
      <g>
        <circle class="cls-7" cx="231.14" cy="43.5" r="42.21" transform="translate(73.9 218.41) rotate(-58.7)"/>
        <path class="cls-8" d="m265.72,54.6c6.13-19.1-4.38-39.55-23.48-45.68-19.1-6.13-39.55,4.38-45.68,23.48-6.13,19.1,4.38,39.55,23.48,45.68,19.1,6.13,39.55-4.38,45.68-23.48Z"/>
        <g>
          <circle class="cls-7" cx="231.14" cy="43.5" r="30.91"/>
          <circle class="cls-5" cx="231.14" cy="43.5" r="24.55"/>
          <polygon class="cls-8" points="249.29 39.64 235 39.64 235 25.35 227.28 25.35 227.28 39.64 212.99 39.64 212.99 47.36 227.28 47.36 227.28 61.65 235 61.65 235 47.36 249.29 47.36 249.29 39.64"/>
        </g>
        <g>
          <path class="cls-5" d="m27.88,38.55c-.74-.51-1.96-.94-3.68-.94-3.57,0-6.07,2.69-6.07,6.47,0,2.69,1.75,5.09,4.58,5.09,1.36,0,2.46-.44,3.38-.99l-.51,3.08c-1.17.32-2.42.44-3.63.44-4.86,0-7.18-3.27-7.18-7.62,0-5.18,3.52-9,9.2-9,1.61,0,3.31.21,4.72.78l-.8,2.69Z"/>
          <path class="cls-5" d="m40.17,44.49c0,4.16-2.88,7.2-7.06,7.2-3.36,0-5.38-2.07-5.38-5.41,0-3.96,3.04-7,7.02-7,3.2,0,5.43,1.93,5.43,5.2Zm-3.22.02c0-1.54-.53-2.83-2.35-2.83-2.44,0-3.66,2.69-3.66,4.83,0,1.56.64,2.78,2.42,2.78,2.39,0,3.59-2.76,3.59-4.79Z"/>
          <path class="cls-5" d="m43.05,41.27c.14-.71.25-1.33.3-1.7h3.01l-.21,1.15h.05c.85-.78,2.02-1.43,3.36-1.43,2.32,0,3.87,1.45,3.87,3.8,0,.9-.23,1.84-.39,2.58l-1.24,5.75h-3.08l1.15-5.59c.16-.81.34-1.61.34-2.49,0-.99-.69-1.66-1.68-1.66-2.14,0-2.92,2-3.31,3.77l-1.27,5.96h-3.08l2.19-10.15Z"/>
          <path class="cls-5" d="m63.48,42.09c-.81-.3-1.66-.55-2.53-.55-.92,0-2.07.25-2.07,1.2,0,1.5,4,2.05,4,4.95,0,3.08-2.69,4-5.34,4-1.24,0-2.49-.18-3.61-.71l.67-2.46c.87.48,1.75.92,2.95.92,1.04,0,2.12-.35,2.12-1.31,0-1.91-4-2.09-4-5.06,0-2.78,2.69-3.77,5.13-3.77,1.13,0,2.28.21,3.36.48l-.67,2.32Z"/>
          <path class="cls-5" d="m75.35,49.71c-.14.71-.25,1.34-.3,1.7h-3.01l.21-1.15h-.05c-.85.78-2.02,1.43-3.36,1.43-2.32,0-3.87-1.45-3.87-3.8,0-.9.23-1.84.39-2.58l1.24-5.75h3.08l-1.15,5.59c-.16.81-.35,1.61-.35,2.49,0,.99.69,1.66,1.68,1.66,2.14,0,2.92-2,3.31-3.77l1.27-5.96h3.08l-2.19,10.15Z"/>
          <path class="cls-5" d="m81.47,34.16h3.08l-3.66,17.26h-3.08l3.66-17.26Z"/>
          <path class="cls-5" d="m84.97,39.56h2.23l.53-2.44,3.31-1.08-.76,3.52h2.76l-.48,2.25h-2.76l-1.13,5.18c-.07.28-.14.69-.14,1.15,0,.71.48,1.15,1.17,1.15.55,0,1.1-.11,1.5-.28l-.53,2.39c-.53.11-1.13.28-1.66.28-2.09,0-3.57-.83-3.57-3.11,0-.92.18-1.82.39-2.76l.87-4h-2.23l.48-2.25Z"/>
          <path class="cls-5" d="m99.77,49.6h-.05c-1.06,1.33-2.12,2.09-3.82,2.09-2.14,0-3.66-1.2-3.66-3.38,0-3.91,4.37-4.21,7.27-4.21h1.08c.09-.32.09-.67.09-1.01,0-1.2-1.29-1.54-2.37-1.54-1.36,0-2.67.34-3.89.92l.44-2.46c1.31-.46,2.65-.71,4.03-.71,2.37,0,4.6.87,4.6,3.66,0,1.59-1.17,6.24-1.45,8.47h-2.6l.32-1.82Zm-3.01-.16c2.3,0,3.01-1.59,3.5-3.5h-1.08c-1.5,0-3.98.25-3.98,2.26,0,.83.78,1.24,1.56,1.24Z"/>
          <path class="cls-5" d="m114.17,34.16h3.08l-3.66,17.26h-3.08l3.66-17.26Z"/>
          <path class="cls-5" d="m123.98,49.6h-.05c-1.06,1.33-2.12,2.09-3.82,2.09-2.14,0-3.66-1.2-3.66-3.38,0-3.91,4.37-4.21,7.27-4.21h1.08c.09-.32.09-.67.09-1.01,0-1.2-1.29-1.54-2.37-1.54-1.36,0-2.67.34-3.89.92l.44-2.46c1.31-.46,2.65-.71,4.03-.71,2.37,0,4.6.87,4.6,3.66,0,1.59-1.17,6.24-1.45,8.47h-2.6l.32-1.82Zm-3.01-.16c2.3,0,3.01-1.59,3.5-3.5h-1.08c-1.5,0-3.98.25-3.98,2.26,0,.83.78,1.24,1.56,1.24Z"/>
          <path class="cls-5" d="m136.91,41.27c.14-.71.25-1.33.3-1.7h3.01l-.21,1.15h.05c.85-.78,2.02-1.43,3.36-1.43,2.32,0,3.87,1.45,3.87,3.8,0,.9-.23,1.84-.39,2.58l-1.24,5.75h-3.08l1.15-5.59c.16-.81.34-1.61.34-2.49,0-.99-.69-1.66-1.68-1.66-2.14,0-2.92,2-3.31,3.77l-1.27,5.96h-3.08l2.19-10.15Z"/>
          <path class="cls-5" d="m161.23,44.49c0,4.16-2.88,7.2-7.06,7.2-3.36,0-5.38-2.07-5.38-5.41,0-3.96,3.04-7,7.02-7,3.2,0,5.43,1.93,5.43,5.2Zm-3.22.02c0-1.54-.53-2.83-2.35-2.83-2.44,0-3.66,2.69-3.66,4.83,0,1.56.64,2.78,2.42,2.78,2.39,0,3.59-2.76,3.59-4.79Z"/>
          <path class="cls-5" d="m163.14,39.56h2.23l.53-2.44,3.31-1.08-.76,3.52h2.76l-.48,2.25h-2.76l-1.13,5.18c-.07.28-.14.69-.14,1.15,0,.71.48,1.15,1.17,1.15.55,0,1.1-.11,1.5-.28l-.53,2.39c-.53.11-1.13.28-1.66.28-2.09,0-3.57-.83-3.57-3.11,0-.92.18-1.82.39-2.76l.87-4h-2.23l.48-2.25Z"/>
          <path class="cls-5" d="m177.94,49.6h-.05c-1.06,1.33-2.12,2.09-3.82,2.09-2.14,0-3.66-1.2-3.66-3.38,0-3.91,4.37-4.21,7.27-4.21h1.08c.09-.32.09-.67.09-1.01,0-1.2-1.29-1.54-2.37-1.54-1.36,0-2.67.34-3.89.92l.44-2.46c1.31-.46,2.65-.71,4.03-.71,2.37,0,4.6.87,4.6,3.66,0,1.59-1.17,6.24-1.45,8.47h-2.6l.32-1.82Zm-3.01-.16c2.3,0,3.01-1.59,3.5-3.5h-1.08c-1.5,0-3.98.25-3.98,2.26,0,.83.78,1.24,1.56,1.24Z"/>
        </g>
      </g>
    </g>
  </g>
</svg>