<?xml version="1.0" encoding="UTF-8"?>
<svg id="botones" xmlns="http://www.w3.org/2000/svg" xmlns:xlink="http://www.w3.org/1999/xlink" viewBox="0 0 278 91">
  <defs>
    <style>
      .cls-1, .cls-2 {
        fill: #fff;
      }

      .cls-3, .cls-4 {
        fill: #4c4387;
      }

      .cls-5 {
        fill: none;
        filter: url(#drop-shadow-107);
      }

      .cls-4, .cls-2 {
        fill-rule: evenodd;
      }
    </style>
    <filter id="drop-shadow-107" filterUnits="userSpaceOnUse">
      <feOffset dx="0" dy="2.66"/>
      <feGaussianBlur result="blur" stdDeviation="2.65"/>
      <feFlood flood-color="#4c4387" flood-opacity=".8"/>
      <feComposite in2="blur" operator="in"/>
      <feComposite in="SourceGraphic"/>
    </filter>
  </defs>
  <g class="cls-5">
    <rect class="cls-3" x="63.74" y="31.25" width="193.84" height="46.64" rx="7.83" ry="7.83"/>
    <g>
      <path class="cls-2" d="m49.25,55.4l-22.41-25.28c-1.77-2-1.77-5.25,0-7.25,1.77-2,4.65-2,6.42,0l16.07,18.12c-1.77-2-1.77-5.25,0-7.25,1.58-1.78,4.04-1.98,5.81-.58-1.24-2-1.07-4.77.51-6.56,1.65-1.86,4.27-1.99,6.05-.38-1.43-2.01-1.32-4.96.34-6.82,1.77-2,4.65-2,6.42,0l13.84,15.61c.18.2.34.42.49.65l4.77,5.39c3.84,4.33,3.84,11.37,0,15.7l-11.59,13.08c-3.04,3.43-7.59,4.15-11.26,2.14-.17-.04-.33-.09-.5-.15l-25.45-9.56c-2.38-.89-3.67-3.8-2.87-6.48.79-2.68,3.37-4.14,5.75-3.24l7.61,2.86Z"/>
      <path class="cls-4" d="m49.25,55.4l-22.41-25.28c-1.77-2-1.77-5.25,0-7.25,1.77-2,4.65-2,6.42,0l16.07,18.12c-1.77-2-1.77-5.25,0-7.25,1.58-1.78,4.04-1.98,5.81-.58-1.24-2-1.07-4.77.51-6.56,1.65-1.86,4.27-1.99,6.05-.38-1.43-2.01-1.32-4.96.34-6.82,1.77-2,4.65-2,6.42,0l13.84,15.61c.18.2.34.42.49.65l4.77,5.39c3.84,4.33,3.84,11.37,0,15.7l-11.59,13.08c-3.04,3.43-7.59,4.15-11.26,2.14-.17-.04-.33-.09-.5-.15l-25.45-9.56c-2.38-.89-3.67-3.8-2.87-6.48.79-2.68,3.37-4.14,5.75-3.24l7.61,2.86Zm6.8-35.55c.44-1.65,1.24-3.2,2.39-4.5,3.76-4.24,9.86-4.24,13.61,0l13.84,15.61c.26.29.5.59.72.91l4.54,5.13c5.83,6.57,5.83,17.24,0,23.81l-11.59,13.08c-4.47,5.05-11.09,6.22-16.56,3.51-.13-.04-.27-.09-.4-.14l-25.45-9.56c-5.04-1.89-7.77-8.05-6.09-13.73.78-2.65,2.39-4.74,4.39-6.01l-12.22-13.78c-3.76-4.24-3.76-11.12,0-15.36,3.76-4.24,9.86-4.24,13.61,0l9.27,10.46c1.06-1.07,2.27-1.82,3.55-2.27.45-1.63,1.24-3.16,2.38-4.45,1.15-1.3,2.53-2.2,3.99-2.7Z"/>
    </g>
  </g>
  <g>
    <path class="cls-1" d="m129.1,49.31c-.74-.51-1.96-.94-3.68-.94-3.57,0-6.07,2.69-6.07,6.47,0,2.69,1.75,5.08,4.58,5.08,1.36,0,2.46-.44,3.38-.99l-.51,3.08c-1.17.32-2.42.44-3.64.44-4.85,0-7.18-3.27-7.18-7.62,0-5.18,3.52-9,9.2-9,1.61,0,3.31.21,4.72.78l-.81,2.69Z"/>
    <path class="cls-1" d="m143,55.24c0,4.17-2.88,7.2-7.06,7.2-3.36,0-5.38-2.07-5.38-5.41,0-3.96,3.04-7,7.02-7,3.2,0,5.43,1.93,5.43,5.2Zm-3.22.02c0-1.54-.53-2.83-2.35-2.83-2.44,0-3.66,2.69-3.66,4.83,0,1.56.64,2.78,2.42,2.78,2.39,0,3.59-2.76,3.59-4.79Z"/>
    <path class="cls-1" d="m147.49,52.02c.14-.71.25-1.33.3-1.7h3.01l-.21,1.15h.05c.85-.78,2.03-1.43,3.36-1.43,2.32,0,3.87,1.45,3.87,3.8,0,.9-.23,1.84-.39,2.58l-1.24,5.75h-3.08l1.15-5.59c.16-.8.34-1.61.34-2.48,0-.99-.69-1.66-1.68-1.66-2.14,0-2.92,2-3.31,3.77l-1.27,5.96h-3.08l2.19-10.15Z"/>
    <path class="cls-1" d="m173.43,55.24c0,4.17-2.88,7.2-7.06,7.2-3.36,0-5.38-2.07-5.38-5.41,0-3.96,3.04-7,7.02-7,3.2,0,5.43,1.93,5.43,5.2Zm-3.22.02c0-1.54-.53-2.83-2.35-2.83-2.44,0-3.66,2.69-3.66,4.83,0,1.56.64,2.78,2.42,2.78,2.39,0,3.59-2.76,3.59-4.79Zm-1.43-9.92h3.06l-2.95,3.36h-1.98l1.86-3.36Z"/>
    <path class="cls-1" d="m185.51,53.03c-.6-.39-1.4-.6-2.25-.6-2.46,0-3.84,2.3-3.84,4.53,0,1.54.51,3.08,2.62,3.08.76,0,1.7-.21,2.51-.6l-.34,2.44c-.94.46-1.96.55-2.97.55-3.06,0-5.04-2.05-5.04-5.11,0-4.14,2.74-7.29,7-7.29,1.15,0,2.25.21,3.08.46l-.76,2.53Z"/>
    <path class="cls-1" d="m190.3,57.2c0,2.19,1.17,2.99,3.29,2.99,1.27,0,2.49-.32,3.64-.85l-.39,2.44c-1.2.37-2.51.67-3.77.67-3.41,0-5.71-1.66-5.71-5.18s2.85-7.22,6.74-7.22c2.92,0,4.85,1.5,4.85,4.51,0,.9-.11,1.77-.3,2.65h-8.35Zm5.64-2.12c.05-.28.07-.53.07-.81,0-1.27-.67-1.98-1.96-1.98-1.91,0-2.74,1.15-3.34,2.78h5.22Z"/>
    <path class="cls-1" d="m204.71,44.91h3.08l-3.66,17.26h-3.08l3.66-17.26Z"/>
    <path class="cls-1" d="m221.51,55.24c0,4.17-2.88,7.2-7.06,7.2-3.36,0-5.38-2.07-5.38-5.41,0-3.96,3.04-7,7.02-7,3.2,0,5.43,1.93,5.43,5.2Zm-3.22.02c0-1.54-.53-2.83-2.35-2.83-2.44,0-3.66,2.69-3.66,4.83,0,1.56.64,2.78,2.42,2.78,2.39,0,3.59-2.76,3.59-4.79Z"/>
  </g>
</svg>