<?xml version="1.0" encoding="UTF-8"?>
<svg id="botones" xmlns="http://www.w3.org/2000/svg" xmlns:xlink="http://www.w3.org/1999/xlink" viewBox="0 0 278 91">
  <defs>
    <style>
      .cls-1 {
        fill: #fff;
      }

      .cls-2 {
        fill: #c82980;
      }

      .cls-3 {
        fill: none;
        filter: url(#drop-shadow-107);
      }
    </style>
    <filter id="drop-shadow-107" filterUnits="userSpaceOnUse">
      <feOffset dx="0" dy="4.6"/>
      <feGaussianBlur result="blur" stdDeviation="2.3"/>
      <feFlood flood-color="#421732" flood-opacity=".7"/>
      <feComposite in2="blur" operator="in"/>
      <feComposite in="SourceGraphic"/>
    </filter>
  </defs>
  <g class="cls-3">
    <path class="cls-2" d="m12.45,20.24h224.89c5.36,0,9.71,3.45,9.71,7.71v30.48c0,4.26-4.35,7.71-9.71,7.71H12.45c-5.36,0-9.71-3.45-9.71-7.71v-30.48c0-4.26,4.35-7.71,9.71-7.71Z"/>
    <g>
      <path class="cls-1" d="m38.86,34.78h3.22l1.5,12.5h.05l6.67-12.5h3.5l-8.97,16.06h-3.84l-2.12-16.06Z"/>
      <path class="cls-1" d="m55.5,45.87c0,2.19,1.17,2.99,3.29,2.99,1.27,0,2.49-.32,3.64-.85l-.39,2.44c-1.2.37-2.51.67-3.77.67-3.41,0-5.71-1.66-5.71-5.18s2.85-7.22,6.74-7.22c2.92,0,4.86,1.5,4.86,4.51,0,.9-.12,1.77-.3,2.65h-8.35Zm5.64-2.12c.05-.28.07-.53.07-.81,0-1.27-.67-1.98-1.96-1.98-1.91,0-2.74,1.15-3.34,2.78h5.22Z"/>
      <path class="cls-1" d="m80.86,49.03h-.05c-1.06,1.33-2.12,2.09-3.82,2.09-2.14,0-3.66-1.2-3.66-3.38,0-3.91,4.37-4.21,7.27-4.21h1.08c.09-.32.09-.67.09-1.01,0-1.2-1.29-1.54-2.37-1.54-1.36,0-2.67.34-3.89.92l.44-2.46c1.31-.46,2.65-.71,4.03-.71,2.37,0,4.6.87,4.6,3.66,0,1.59-1.17,6.24-1.45,8.47h-2.6l.32-1.82Zm-3.01-.16c2.3,0,3.01-1.59,3.5-3.5h-1.08c-1.5,0-3.98.25-3.98,2.25,0,.83.78,1.24,1.56,1.24Z"/>
      <path class="cls-1" d="m90.71,33.59h3.08l-3.66,17.26h-3.08l3.66-17.26Z"/>
      <path class="cls-1" d="m102.72,38.99h3.15l1.2,8.7h.05l4.67-8.7h3.27l-6.93,11.85h-3.41l-2-11.85Z"/>
      <path class="cls-1" d="m117.94,38.99h3.08l-2.53,11.85h-3.08l2.53-11.85Zm1.13-5.11h3.08l-.64,2.95h-3.08l.64-2.95Z"/>
      <path class="cls-1" d="m137.38,33.59l-3.2,14.63c-.18,1.01-.37,2.02-.44,2.62h-2.88l.3-1.75h-.05c-.92,1.29-2.07,2.03-3.87,2.03-2.81,0-4.07-2.35-4.07-4.92,0-3.54,1.93-7.48,5.96-7.48,1.52,0,2.69.58,3.66,1.68l1.5-6.81h3.08Zm-10.98,12.33c0,1.2.37,2.81,1.89,2.81,2.25,0,3.59-2.62,3.59-4.81,0-1.38-.67-2.81-2.23-2.81-2.21,0-3.24,3.04-3.24,4.81Z"/>
      <path class="cls-1" d="m140.9,45.87c0,2.19,1.17,2.99,3.29,2.99,1.27,0,2.49-.32,3.64-.85l-.39,2.44c-1.2.37-2.51.67-3.77.67-3.41,0-5.71-1.66-5.71-5.18s2.85-7.22,6.74-7.22c2.92,0,4.85,1.5,4.85,4.51,0,.9-.11,1.77-.3,2.65h-8.35Zm5.64-2.12c.05-.28.07-.53.07-.81,0-1.27-.67-1.98-1.96-1.98-1.91,0-2.74,1.15-3.34,2.78h5.22Z"/>
      <path class="cls-1" d="m164.33,43.92c0,4.16-2.88,7.2-7.06,7.2-3.36,0-5.38-2.07-5.38-5.41,0-3.96,3.04-7,7.02-7,3.2,0,5.43,1.93,5.43,5.2Zm-3.22.02c0-1.54-.53-2.83-2.35-2.83-2.44,0-3.66,2.69-3.66,4.83,0,1.56.64,2.78,2.42,2.78,2.39,0,3.59-2.76,3.59-4.79Z"/>
    </g>
    <g>
      <circle class="cls-1" cx="231.07" cy="43.19" r="39.62" transform="translate(168 269.65) rotate(-85.02)"/>
      <path class="cls-2" d="m231.07,85.38c-23.26,0-42.19-18.93-42.19-42.19S207.81,1,231.07,1s42.19,18.93,42.19,42.19-18.93,42.19-42.19,42.19Zm0-79.24c-20.43,0-37.04,16.62-37.04,37.04s16.62,37.04,37.04,37.04,37.04-16.62,37.04-37.04S251.5,6.15,231.07,6.15Z"/>
    </g>
    <polygon class="cls-2" points="220.26 43.19 220.26 24.95 236.06 34.07 251.86 43.19 236.06 52.31 220.26 61.44 220.26 43.19"/>
  </g>
</svg>