<?xml version="1.0" encoding="UTF-8"?>
<svg id="botones" xmlns="http://www.w3.org/2000/svg" xmlns:xlink="http://www.w3.org/1999/xlink" viewBox="0 0 278 91">
  <defs>
    <style>
      .cls-1 {
        fill: #f88113;
      }

      .cls-2 {
        fill: #fff;
      }

      .cls-3 {
        fill: none;
        filter: url(#drop-shadow-128);
      }
    </style>
    <filter id="drop-shadow-128" filterUnits="userSpaceOnUse">
      <feOffset dx="0" dy="4.31"/>
      <feGaussianBlur result="blur" stdDeviation="2.16"/>
      <feFlood flood-color="#0a4940" flood-opacity=".7"/>
      <feComposite in2="blur" operator="in"/>
      <feComposite in="SourceGraphic"/>
    </filter>
  </defs>
  <g class="cls-3">
    <path class="cls-1" d="m19.09,20.33h192.37c5.03,0,9.1,3.24,9.1,7.23v28.57c0,3.99-4.07,7.23-9.1,7.23H19.09c-5.03,0-9.1-3.24-9.1-7.23v-28.57c0-3.99,4.07-7.23,9.1-7.23Z"/>
    <g>
      <circle class="cls-2" cx="224.48" cy="41.52" r="37.11"/>
      <path class="cls-1" d="m224.48,81.05c-21.79,0-39.52-17.73-39.52-39.53S202.69,2,224.48,2s39.52,17.73,39.52,39.52-17.73,39.53-39.52,39.53Zm0-74.23c-19.13,0-34.7,15.57-34.7,34.7s15.57,34.7,34.7,34.7,34.7-15.57,34.7-34.7-15.57-34.7-34.7-34.7Z"/>
      <path class="cls-1" d="m224.65,15.05c-14.62,0-26.48,11.85-26.48,26.48s11.85,26.48,26.48,26.48,26.48-11.85,26.48-26.48-11.85-26.48-26.48-26.48Zm12.14,38.19c-.48.78-1.49,1.02-2.27.55-6.22-3.8-14.04-4.66-23.26-2.55-.89.2-1.77-.35-1.98-1.24-.2-.89.35-1.77,1.24-1.98,10.09-2.31,18.74-1.31,25.72,2.95.78.48,1.02,1.49.55,2.27Zm3.24-7.21c-.6.97-1.87,1.28-2.84.68-7.12-4.37-17.97-5.64-26.38-3.09-1.09.33-2.24-.29-2.58-1.38-.33-1.09.29-2.24,1.38-2.57,9.62-2.92,21.57-1.5,29.74,3.52.97.6,1.28,1.87.68,2.84Zm.28-7.51c-8.54-5.07-22.61-5.53-30.76-3.06-1.31.4-2.69-.34-3.09-1.65-.4-1.31.34-2.69,1.65-3.09,9.35-2.84,24.9-2.29,34.73,3.54,1.18.7,1.56,2.22.87,3.39-.7,1.18-2.22,1.56-3.39.87Z"/>
      <path class="cls-2" d="m236.79,53.24c-.48.78-1.49,1.02-2.27.55-6.22-3.8-14.04-4.66-23.26-2.55-.89.2-1.77-.35-1.98-1.24-.2-.89.35-1.77,1.24-1.98,10.09-2.31,18.74-1.31,25.72,2.95.78.48,1.02,1.49.55,2.27Z"/>
      <path class="cls-2" d="m240.03,46.03c-.6.97-1.87,1.28-2.84.68-7.12-4.37-17.97-5.64-26.38-3.09-1.09.33-2.24-.29-2.58-1.38-.33-1.09.29-2.24,1.38-2.57,9.62-2.92,21.57-1.5,29.74,3.52.97.6,1.28,1.87.68,2.84Z"/>
      <path class="cls-2" d="m240.31,38.52c-8.54-5.07-22.61-5.53-30.76-3.06-1.31.4-2.69-.34-3.09-1.65-.4-1.31.34-2.69,1.65-3.09,9.35-2.84,24.9-2.29,34.73,3.54,1.18.7,1.56,2.22.87,3.39-.7,1.18-2.22,1.56-3.39.87Z"/>
    </g>
    <g>
      <path class="cls-2" d="m47.07,34.04h3.02l1.4,11.71h.04l6.26-11.71h3.28l-8.41,15.06h-3.6l-1.99-15.06Z"/>
      <path class="cls-2" d="m61.81,44.44c0,2.05,1.1,2.8,3.08,2.8,1.19,0,2.33-.3,3.41-.8l-.37,2.29c-1.12.35-2.35.63-3.54.63-3.19,0-5.35-1.55-5.35-4.85s2.67-6.77,6.32-6.77c2.74,0,4.55,1.4,4.55,4.23,0,.84-.11,1.66-.28,2.48h-7.83Zm5.29-1.98c.04-.26.06-.5.06-.75,0-1.19-.63-1.86-1.83-1.86-1.79,0-2.57,1.08-3.13,2.61h4.9Z"/>
      <path class="cls-2" d="m83.86,47.39h-.04c-.99,1.25-1.99,1.96-3.58,1.96-2.01,0-3.43-1.12-3.43-3.17,0-3.67,4.1-3.95,6.82-3.95h1.01c.09-.3.09-.63.09-.95,0-1.12-1.21-1.44-2.22-1.44-1.27,0-2.5.32-3.65.86l.41-2.31c1.23-.43,2.48-.67,3.77-.67,2.22,0,4.31.82,4.31,3.43,0,1.49-1.1,5.85-1.36,7.94h-2.44l.3-1.7Zm-2.83-.15c2.16,0,2.83-1.49,3.28-3.28h-1.01c-1.4,0-3.73.24-3.73,2.11,0,.78.73,1.16,1.47,1.16Z"/>
      <path class="cls-2" d="m105.56,36.93c-.88-.45-2.03-.78-3.13-.78s-2.52.43-2.52,1.73c0,2.42,5.13,2.26,5.13,6.45,0,3.69-2.89,5.03-6.19,5.03-1.44,0-2.93-.35-4.29-.84l.78-2.57c1.16.54,2.39,1.03,3.69,1.03,1.44,0,2.87-.73,2.87-2.35,0-2.72-5.13-2.29-5.13-6.3,0-3.17,2.72-4.55,5.61-4.55,1.32,0,2.67.17,3.9.67l-.71,2.48Z"/>
      <path class="cls-2" d="m108.75,39.43c.11-.54.19-.97.24-1.44h2.74l-.32,1.47h.04c.84-1.19,1.88-1.73,3.34-1.73,2.76,0,4.08,1.88,4.08,4.51,0,3.47-1.92,7.12-5.78,7.12-1.27,0-2.59-.43-3.06-1.99h-.04l-1.27,6.26h-2.89l2.93-14.19Zm5.07.54c-1.96,0-3.06,2.59-3.06,4.53,0,1.42.5,2.61,1.9,2.61,2.42,0,3.19-3.02,3.19-4.77,0-1.36-.69-2.37-2.03-2.37Z"/>
      <path class="cls-2" d="m132.07,42.6c0,3.9-2.7,6.75-6.62,6.75-3.15,0-5.05-1.94-5.05-5.07,0-3.71,2.85-6.56,6.58-6.56,3,0,5.09,1.81,5.09,4.88Zm-3.02.02c0-1.44-.5-2.65-2.2-2.65-2.29,0-3.43,2.52-3.43,4.53,0,1.47.6,2.61,2.26,2.61,2.24,0,3.37-2.59,3.37-4.49Z"/>
      <path class="cls-2" d="m134.3,37.99h2.09l.5-2.29,3.11-1.01-.71,3.3h2.59l-.45,2.11h-2.59l-1.06,4.85c-.06.26-.13.65-.13,1.08,0,.67.45,1.08,1.1,1.08.52,0,1.03-.11,1.4-.26l-.5,2.24c-.5.11-1.06.26-1.55.26-1.96,0-3.34-.78-3.34-2.91,0-.86.17-1.7.37-2.59l.82-3.75h-2.09l.45-2.11Z"/>
      <path class="cls-2" d="m143.92,37.99h2.89l-2.37,11.11h-2.89l2.37-11.11Zm1.06-4.79h2.89l-.6,2.76h-2.89l.6-2.76Z"/>
      <path class="cls-2" d="m150.48,40.1h-2.24l.45-2.11h2.24c.58-2.83,1.53-5.33,4.9-5.33.67,0,1.31.13,1.79.28l-.67,2.16c-.26-.13-.58-.19-.88-.19-1.6,0-1.96,1.92-2.24,3.08h2.59l-.45,2.11h-2.59l-1.9,8.99h-2.89l1.9-8.99Z"/>
      <path class="cls-2" d="m159.86,37.99l1.04,8.26h.04l4.42-8.26h3.17l-7.53,12.79c-.88,1.51-1.98,3.11-4.42,3.11-.73,0-1.45-.11-2.16-.3l.65-2.2c.35.13.69.26,1.27.26.86,0,1.51-.43,2.52-2.01l-1.96-11.65h2.95Z"/>
    </g>
  </g>
</svg>