<?xml version="1.0" encoding="UTF-8"?>
<svg xmlns="http://www.w3.org/2000/svg" xmlns:xlink="http://www.w3.org/1999/xlink" viewBox="0 0 331.52 106">
  <defs>
    <style>
      .cls-1, .cls-2, .cls-3, .cls-4, .cls-5, .cls-6 {
        fill: none;
      }

      .cls-2 {
        clip-path: url(#clippath-1);
      }

      .cls-7 {
        fill: #e6e6e6;
      }

      .cls-8 {
        fill: #e71d25;
      }

      .cls-9 {
        fill: #fff;
      }

      .cls-3 {
        opacity: .07;
      }

      .cls-4 {
        filter: url(#drop-shadow-117);
      }

      .cls-5 {
        clip-path: url(#clippath);
      }

      .cls-6 {
        opacity: .15;
      }
    </style>
    <clipPath id="clippath">
      <path class="cls-1" d="m-412.4,1909.89V820.09c0-102.66-100.13-101.25-100.13-101.25h-999.4s0,1089.8,0,1089.8c0,102.66,100.13,101.25,100.13,101.25H-412.4Z"/>
    </clipPath>
    <clipPath id="clippath-1">
      <rect class="cls-1" x="-1603.63" y="319.86" width="1337.79" height="1712.71"/>
    </clipPath>
    <filter id="drop-shadow-117" filterUnits="userSpaceOnUse">
      <feOffset dx="0" dy="0"/>
      <feGaussianBlur result="blur" stdDeviation="5.34"/>
      <feFlood flood-color="#143819" flood-opacity="1"/>
      <feComposite in2="blur" operator="in"/>
      <feComposite in="SourceGraphic"/>
    </filter>
  </defs>
  <g id="TODO">
    <g class="cls-5">
      <g class="cls-6">
        <g class="cls-2">
          <g class="cls-3">
            <polygon class="cls-7" points="-20.16 -22.78 -354.49 288.34 99.64 581.43 -20.16 -22.78"/>
          </g>
        </g>
      </g>
    </g>
  </g>
  <g id="botones">
    <g class="cls-4">
      <rect class="cls-8" x="7.11" y="22.77" width="315.88" height="53.55" rx="9" ry="9"/>
      <g>
        <path class="cls-9" d="m23.82,62.52l3.38-13.24h2.98l-2.15,13.24h-4.21Zm3.33-14.98l.78-3.76h3.76l-.78,3.76h-3.76Z"/>
        <path class="cls-9" d="m37.99,38.86h11.04l-.56,2.95h-7.33l-.97,4.62h6.55l-.59,2.95h-6.58l-1.1,5.26h7.41l-.64,2.95h-11.17l3.95-18.75Z"/>
        <path class="cls-9" d="m50.72,45.76c.16-.83.29-1.56.35-1.99h3.52l-.24,1.34h.05c.99-.91,2.36-1.66,3.92-1.66,2.71,0,4.51,1.69,4.51,4.43,0,1.05-.27,2.15-.46,3.01l-1.45,6.71h-3.6l1.34-6.53c.19-.94.4-1.88.4-2.9,0-1.16-.8-1.93-1.96-1.93-2.5,0-3.41,2.34-3.87,4.4l-1.48,6.96h-3.6l2.55-11.84Z"/>
        <path class="cls-9" d="m65.46,43.78h2.61l.62-2.85,3.87-1.26-.89,4.11h3.22l-.56,2.63h-3.22l-1.31,6.04c-.08.32-.16.81-.16,1.34,0,.83.56,1.34,1.37,1.34.64,0,1.29-.13,1.75-.32l-.62,2.79c-.62.13-1.32.32-1.93.32-2.44,0-4.16-.97-4.16-3.62,0-1.07.21-2.12.46-3.22l1.02-4.67h-2.61l.56-2.63Z"/>
        <path class="cls-9" d="m77.68,51.8c0,2.55,1.37,3.49,3.84,3.49,1.48,0,2.9-.38,4.24-.99l-.46,2.85c-1.4.43-2.93.78-4.4.78-3.97,0-6.66-1.93-6.66-6.04s3.33-8.43,7.87-8.43c3.41,0,5.67,1.75,5.67,5.26,0,1.05-.13,2.07-.35,3.09h-9.75Zm6.58-2.47c.05-.32.08-.62.08-.94,0-1.48-.78-2.31-2.28-2.31-2.23,0-3.2,1.34-3.89,3.25h6.1Zm-1.42-11.36h3.57l-3.44,3.92h-2.31l2.18-3.92Z"/>
        <path class="cls-9" d="m90.81,45.63c.11-.59.21-1.21.32-1.85h3.44l-.48,2.6h.05c.64-1.5,2.42-2.93,4.08-2.93.46,0,.94.03,1.37.13l-.75,3.52c-.4-.13-.91-.21-1.37-.21-2.55,0-3.79,2.28-4.24,4.51l-1.29,6.2h-3.6l2.47-11.98Z"/>
        <path class="cls-9" d="m107.03,55.48h-.05c-1.24,1.56-2.47,2.44-4.46,2.44-2.5,0-4.27-1.4-4.27-3.95,0-4.57,5.1-4.92,8.49-4.92h1.26c.11-.38.11-.78.11-1.18,0-1.4-1.5-1.8-2.77-1.8-1.58,0-3.12.4-4.54,1.07l.51-2.87c1.53-.54,3.09-.83,4.7-.83,2.77,0,5.37,1.02,5.37,4.27,0,1.85-1.37,7.28-1.69,9.88h-3.04l.38-2.12Zm-3.52-.19c2.69,0,3.52-1.85,4.08-4.08h-1.26c-1.75,0-4.65.3-4.65,2.63,0,.97.91,1.45,1.83,1.45Z"/>
        <path class="cls-9" d="m114.06,43.78h2.61l.62-2.85,3.87-1.26-.88,4.11h3.22l-.56,2.63h-3.22l-1.32,6.04c-.08.32-.16.81-.16,1.34,0,.83.56,1.34,1.37,1.34.64,0,1.29-.13,1.75-.32l-.62,2.79c-.62.13-1.31.32-1.93.32-2.44,0-4.16-.97-4.16-3.62,0-1.07.21-2.12.46-3.22l1.02-4.67h-2.6l.56-2.63Z"/>
        <path class="cls-9" d="m126.28,51.8c0,2.55,1.37,3.49,3.84,3.49,1.48,0,2.9-.38,4.24-.99l-.46,2.85c-1.4.43-2.93.78-4.4.78-3.97,0-6.66-1.93-6.66-6.04s3.33-8.43,7.87-8.43c3.41,0,5.67,1.75,5.67,5.26,0,1.05-.13,2.07-.35,3.09h-9.75Zm6.58-2.47c.05-.32.08-.62.08-.94,0-1.48-.78-2.31-2.28-2.31-2.23,0-3.2,1.34-3.89,3.25h6.1Z"/>
        <path class="cls-9" d="m146.31,45.57c.13-.67.24-1.21.29-1.8h3.41l-.4,1.83h.05c1.05-1.48,2.34-2.15,4.16-2.15,3.44,0,5.08,2.34,5.08,5.61,0,4.32-2.39,8.86-7.2,8.86-1.59,0-3.22-.54-3.81-2.47h-.05l-1.59,7.79h-3.6l3.65-17.67Zm6.31.67c-2.44,0-3.81,3.22-3.81,5.64,0,1.77.62,3.25,2.36,3.25,3.01,0,3.97-3.76,3.97-5.94,0-1.69-.86-2.95-2.53-2.95Z"/>
        <path class="cls-9" d="m174.8,49.52c0,4.86-3.36,8.41-8.24,8.41-3.92,0-6.28-2.42-6.28-6.31,0-4.62,3.54-8.16,8.19-8.16,3.73,0,6.34,2.26,6.34,6.07Zm-3.76.03c0-1.8-.62-3.3-2.74-3.3-2.85,0-4.27,3.14-4.27,5.64,0,1.83.75,3.25,2.82,3.25,2.79,0,4.19-3.22,4.19-5.59Z"/>
        <path class="cls-9" d="m178.07,45.63c.11-.59.21-1.21.32-1.85h3.44l-.48,2.6h.05c.64-1.5,2.42-2.93,4.08-2.93.46,0,.94.03,1.37.13l-.75,3.52c-.4-.13-.91-.21-1.37-.21-2.55,0-3.79,2.28-4.24,4.51l-1.29,6.2h-3.6l2.47-11.98Z"/>
        <path class="cls-9" d="m199.15,49.84l-4.4-10.98h3.97l2.79,7.87,6.1-7.87h4.38l-9.08,10.98-1.64,7.76h-3.76l1.64-7.76Z"/>
        <path class="cls-9" d="m222.56,49.52c0,4.86-3.36,8.41-8.24,8.41-3.92,0-6.28-2.42-6.28-6.31,0-4.62,3.54-8.16,8.19-8.16,3.73,0,6.34,2.26,6.34,6.07Zm-3.76.03c0-1.8-.62-3.3-2.74-3.3-2.85,0-4.27,3.14-4.27,5.64,0,1.83.75,3.25,2.82,3.25,2.79,0,4.19-3.22,4.19-5.59Z"/>
        <path class="cls-9" d="m236.37,55.62c-.16.83-.3,1.56-.35,1.99h-3.52l.24-1.34h-.05c-.99.91-2.36,1.67-3.92,1.67-2.71,0-4.51-1.69-4.51-4.43,0-1.05.27-2.15.46-3.01l1.45-6.71h3.6l-1.34,6.53c-.19.94-.4,1.88-.4,2.9,0,1.15.81,1.93,1.96,1.93,2.5,0,3.41-2.34,3.87-4.4l1.48-6.96h3.6l-2.55,11.84Z"/>
        <path class="cls-9" d="m240.66,43.78h2.61l.62-2.85,3.87-1.26-.89,4.11h3.22l-.56,2.63h-3.22l-1.31,6.04c-.08.32-.16.81-.16,1.34,0,.83.56,1.34,1.37,1.34.64,0,1.29-.13,1.75-.32l-.62,2.79c-.62.13-1.32.32-1.93.32-2.44,0-4.16-.97-4.16-3.62,0-1.07.21-2.12.46-3.22l1.02-4.67h-2.61l.56-2.63Z"/>
        <path class="cls-9" d="m262.14,55.62c-.16.83-.3,1.56-.35,1.99h-3.52l.24-1.34h-.05c-.99.91-2.36,1.67-3.92,1.67-2.71,0-4.51-1.69-4.51-4.43,0-1.05.27-2.15.46-3.01l1.45-6.71h3.6l-1.34,6.53c-.19.94-.4,1.88-.4,2.9,0,1.15.81,1.93,1.96,1.93,2.5,0,3.41-2.34,3.87-4.4l1.48-6.96h3.6l-2.55,11.84Z"/>
        <path class="cls-9" d="m272.96,37.46l-1.77,7.68v.05l.05-.05.03.05c.89-.99,2.12-1.75,3.71-1.75,3.44,0,5.08,2.34,5.08,5.61,0,4.32-2.39,8.86-7.2,8.86-1.96,0-2.85-.35-3.97-2.28h-.05l-.43,1.96h-3.38l4.27-20.14h3.68Zm-.64,17.67c3.01,0,3.97-3.76,3.97-5.94,0-1.69-.86-2.95-2.52-2.95-2.45,0-3.81,3.22-3.81,5.64,0,1.77.62,3.25,2.36,3.25Z"/>
        <path class="cls-9" d="m284.61,51.8c0,2.55,1.37,3.49,3.84,3.49,1.48,0,2.9-.38,4.24-.99l-.46,2.85c-1.4.43-2.93.78-4.4.78-3.97,0-6.66-1.93-6.66-6.04s3.33-8.43,7.87-8.43c3.41,0,5.67,1.75,5.67,5.26,0,1.05-.13,2.07-.35,3.09h-9.75Zm6.58-2.47c.05-.32.08-.62.08-.94,0-1.48-.78-2.31-2.28-2.31-2.23,0-3.2,1.34-3.89,3.25h6.1Z"/>
        <path class="cls-9" d="m301.31,53.85l-.78,3.76h-3.76l.78-3.76h3.76Zm-.88-14.99h4.21l-3.38,13.24h-2.98l2.15-13.24Z"/>
      </g>
    </g>
  </g>
</svg>