<?xml version="1.0" encoding="UTF-8"?>
<svg id="botones" xmlns="http://www.w3.org/2000/svg" viewBox="0 0 245 52">
  <defs>
    <style>
      .cls-1 {
        fill: #fff;
      }

      .cls-2 {
        fill: #ff009a;
      }
    </style>
  </defs>
  <g>
    <path class="cls-2" d="m15.01,32.72c-1.22.29-2.54.53-3.82.53-5.42,0-9.19-2.71-9.19-8.38s3.5-8.95,9.19-8.95c1.11,0,2.57.22,3.79.7l-.24,2.83c-1.27-.72-2.42-.89-3.62-.89-3.46,0-5.62,2.64-5.62,6.07s2.11,5.98,5.69,5.98c1.32,0,2.88-.29,3.67-.7l.14,2.81Z"/>
    <path class="cls-2" d="m22.86,20.31c3.67,0,6.48,2.47,6.48,6.55,0,3.55-2.38,6.39-6.48,6.39s-6.46-2.83-6.46-6.39c0-4.08,2.81-6.55,6.46-6.55Zm0,10.44c2.47,0,3.12-2.21,3.12-4.27,0-1.9-1.01-3.67-3.12-3.67s-3.1,1.82-3.1,3.67c0,2.04.65,4.27,3.1,4.27Z"/>
    <path class="cls-2" d="m31.86,20.6h3.05v1.68h.05c1.01-1.42,2.38-1.97,4.06-1.97,2.93,0,4.2,2.06,4.2,4.85v7.8h-3.22v-6.6c0-1.51-.02-3.55-2.09-3.55-2.33,0-2.83,2.52-2.83,4.11v6.05h-3.22v-12.36Z"/>
    <path class="cls-2" d="m53.87,23.19c-.98-.34-1.71-.53-2.88-.53-.86,0-1.9.31-1.9,1.37,0,1.97,5.59.72,5.59,5.18,0,2.88-2.57,4.03-5.19,4.03-1.22,0-2.47-.22-3.65-.53l.19-2.64c1.01.5,2.06.82,3.17.82.82,0,2.11-.31,2.11-1.51,0-2.42-5.59-.77-5.59-5.23,0-2.66,2.33-3.84,4.85-3.84,1.51,0,2.5.24,3.51.46l-.22,2.42Z"/>
    <path class="cls-2" d="m68.53,32.96h-3.05v-1.68h-.05c-.98,1.2-2.38,1.97-4.06,1.97-2.93,0-4.2-2.06-4.2-4.85v-7.8h3.22v6.6c0,1.51.02,3.55,2.09,3.55,2.33,0,2.83-2.52,2.83-4.11v-6.05h3.22v12.36Z"/>
    <path class="cls-2" d="m71.91,14.96h3.22v18h-3.22V14.96Z"/>
    <path class="cls-2" d="m79.57,22.95h-2.38v-2.35h2.38v-2.47l3.22-1.03v3.5h2.86v2.35h-2.86v5.76c0,1.06.29,2.04,1.51,2.04.58,0,1.13-.12,1.46-.34l.1,2.54c-.67.19-1.42.29-2.38.29-2.52,0-3.91-1.56-3.91-4.01v-6.29Z"/>
    <path class="cls-2" d="m88.4,21.25c1.25-.58,2.93-.94,4.3-.94,3.77,0,5.33,1.56,5.33,5.21v1.58c0,1.25.02,2.18.05,3.1.02.94.07,1.8.14,2.76h-2.83c-.12-.65-.12-1.46-.14-1.85h-.05c-.74,1.37-2.35,2.14-3.82,2.14-2.18,0-4.32-1.32-4.32-3.67,0-1.85.89-2.93,2.11-3.53,1.22-.6,2.81-.72,4.15-.72h1.78c0-1.99-.89-2.66-2.78-2.66-1.37,0-2.74.53-3.82,1.34l-.09-2.76Zm3.77,9.65c.98,0,1.75-.43,2.26-1.1.53-.7.67-1.58.67-2.54h-1.39c-1.44,0-3.58.24-3.58,2.14,0,1.06.89,1.51,2.04,1.51Z"/>
    <path class="cls-2" d="m107.94,14.96h3.22v18h-3.22V14.96Z"/>
    <path class="cls-2" d="m115.09,21.25c1.25-.58,2.93-.94,4.3-.94,3.77,0,5.33,1.56,5.33,5.21v1.58c0,1.25.02,2.18.05,3.1.02.94.07,1.8.14,2.76h-2.83c-.12-.65-.12-1.46-.14-1.85h-.05c-.74,1.37-2.35,2.14-3.82,2.14-2.18,0-4.32-1.32-4.32-3.67,0-1.85.89-2.93,2.11-3.53,1.22-.6,2.81-.72,4.15-.72h1.78c0-1.99-.89-2.66-2.78-2.66-1.37,0-2.74.53-3.82,1.34l-.09-2.76Zm3.77,9.65c.98,0,1.75-.43,2.26-1.1.53-.7.67-1.58.67-2.54h-1.39c-1.44,0-3.58.24-3.58,2.14,0,1.06.89,1.51,2.04,1.51Z"/>
    <path class="cls-2" d="m134.55,20.6h3.05v1.68h.05c1.01-1.42,2.38-1.97,4.06-1.97,2.93,0,4.2,2.06,4.2,4.85v7.8h-3.22v-6.6c0-1.51-.02-3.55-2.09-3.55-2.33,0-2.83,2.52-2.83,4.11v6.05h-3.22v-12.36Z"/>
    <path class="cls-2" d="m154.88,20.31c3.67,0,6.48,2.47,6.48,6.55,0,3.55-2.38,6.39-6.48,6.39s-6.46-2.83-6.46-6.39c0-4.08,2.81-6.55,6.46-6.55Zm0,10.44c2.47,0,3.12-2.21,3.12-4.27,0-1.9-1.01-3.67-3.12-3.67s-3.1,1.82-3.1,3.67c0,2.04.65,4.27,3.1,4.27Z"/>
    <path class="cls-2" d="m164.94,22.95h-2.38v-2.35h2.38v-2.47l3.22-1.03v3.5h2.86v2.35h-2.86v5.76c0,1.06.29,2.04,1.51,2.04.58,0,1.13-.12,1.46-.34l.1,2.54c-.67.19-1.42.29-2.38.29-2.52,0-3.91-1.56-3.91-4.01v-6.29Z"/>
    <path class="cls-2" d="m173.77,21.25c1.25-.58,2.93-.94,4.3-.94,3.77,0,5.33,1.56,5.33,5.21v1.58c0,1.25.02,2.18.05,3.1.02.94.07,1.8.14,2.76h-2.83c-.12-.65-.12-1.46-.14-1.85h-.05c-.74,1.37-2.35,2.14-3.82,2.14-2.18,0-4.32-1.32-4.32-3.67,0-1.85.89-2.93,2.11-3.53,1.22-.6,2.81-.72,4.15-.72h1.78c0-1.99-.89-2.66-2.78-2.66-1.37,0-2.74.53-3.82,1.34l-.1-2.76Zm3.77,9.65c.98,0,1.75-.43,2.26-1.1.53-.7.67-1.58.67-2.54h-1.39c-1.44,0-3.58.24-3.58,2.14,0,1.06.89,1.51,2.04,1.51Z"/>
  </g>
  <g>
    <circle class="cls-2" cx="219" cy="26" r="24" transform="translate(171.55 241.37) rotate(-84.35)"/>
    <g>
      <path class="cls-1" d="m225.1,41h0c.14,0,.27-.05.38-.15l5.89-5.55c.11-.11.17-.25.17-.4.06-.1.09-.21.09-.33V14c0-1.28-1.04-2.33-2.32-2.33h-19.61c-1.28,0-2.32,1.04-2.32,2.33v24.82c0,1.28,1.04,2.32,2.32,2.32h14.99c.16,0,.3-.06.41-.15Zm.55-1.82v-2.13c0-.88.72-1.6,1.6-1.6h2.36l-3.96,3.73Zm-1.61.68h-14.34c-.57,0-1.03-.46-1.03-1.03V14c0-.57.46-1.03,1.03-1.03h19.61c.57,0,1.03.46,1.03,1.03v19.92h-3.01c-1.81,0-3.28,1.47-3.28,3.28v2.65Z"/>
      <path class="cls-1" d="m212.39,20.25h14.21c.36,0,.65-.29.65-.65v-1.16c0-.36-.29-.65-.65-.65h-14.21c-.36,0-.65.29-.65.65v1.16c0,.36.29.65.65.65Zm.13-1.67h13.95v.9h-13.95v-.9Z"/>
      <path class="cls-1" d="m212.39,24.3h14.21c.36,0,.65-.29.65-.65v-1.16c0-.36-.29-.65-.65-.65h-14.21c-.36,0-.65.29-.65.65v1.16c0,.36.29.65.65.65Zm.13-1.67h13.95v.9h-13.95v-.9Z"/>
      <path class="cls-1" d="m227.25,27.7v-1.16c0-.36-.29-.65-.65-.65h-14.21c-.36,0-.65.29-.65.65v1.16c0,.36.29.65.65.65h14.21c.36,0,.65-.29.65-.65Zm-.77-.13h-13.95v-.9h13.95v.9Z"/>
    </g>
  </g>
</svg>