<?xml version="1.0" encoding="UTF-8"?>
<svg id="botones" xmlns="http://www.w3.org/2000/svg" viewBox="0 0 245 52">
  <defs>
    <style>
      .cls-1 {
        fill: #fff;
      }

      .cls-2 {
        fill: #ff7800;
      }
    </style>
  </defs>
  <g>
    <path class="cls-2" d="m25.01,16.23h3.6l4.3,13.15h.05l4.25-13.15h3.34l-5.64,16.76h-4.13l-5.76-16.76Z"/>
    <path class="cls-2" d="m51.02,32.29c-1.18.65-2.52.98-4.25.98-4.08,0-6.46-2.35-6.46-6.41,0-3.58,1.9-6.53,5.74-6.53,4.59,0,5.88,3.14,5.88,7.47h-8.55c.14,1.99,1.54,3.12,3.53,3.12,1.56,0,2.9-.58,4.1-1.25v2.62Zm-2.16-6.7c-.1-1.56-.82-2.91-2.62-2.91s-2.71,1.25-2.86,2.91h5.47Z"/>
    <path class="cls-2" d="m61.68,21.27c1.25-.58,2.93-.94,4.3-.94,3.77,0,5.33,1.56,5.33,5.21v1.58c0,1.25.02,2.18.05,3.1.02.94.07,1.8.14,2.76h-2.83c-.12-.65-.12-1.46-.14-1.85h-.05c-.74,1.37-2.35,2.14-3.82,2.14-2.18,0-4.32-1.32-4.32-3.67,0-1.85.89-2.93,2.11-3.53s2.81-.72,4.15-.72h1.78c0-1.99-.89-2.66-2.78-2.66-1.37,0-2.74.53-3.82,1.34l-.1-2.76Zm3.77,9.65c.98,0,1.75-.43,2.26-1.1.53-.7.67-1.58.67-2.54h-1.39c-1.44,0-3.58.24-3.58,2.14,0,1.06.89,1.51,2.04,1.51Z"/>
    <path class="cls-2" d="m90.43,19.3c-1.06-.46-2.23-.72-3.41-.72s-2.64.5-2.64,2.33c0,2.9,7.35,1.68,7.35,7.3,0,3.67-2.91,5.07-6.29,5.07-1.82,0-2.64-.24-4.3-.65l.31-3.02c1.15.62,2.47,1.03,3.79,1.03s2.98-.65,2.98-2.16c0-3.19-7.35-1.87-7.35-7.42,0-3.75,2.91-5.11,5.86-5.11,1.44,0,2.78.19,4.01.6l-.31,2.76Z"/>
    <path class="cls-2" d="m94.49,20.62h3.07v1.75h.05c.72-1.2,1.95-2.04,3.84-2.04,3.79,0,5.19,3.03,5.19,6.43s-1.39,6.51-5.26,6.51c-1.37,0-2.5-.34-3.62-1.7h-.05v6.46h-3.22v-17.4Zm3.24,6.15c0,1.75.7,4.01,2.83,4.01s2.71-2.3,2.71-4.01-.58-3.94-2.66-3.94-2.88,2.21-2.88,3.94Z"/>
    <path class="cls-2" d="m114.82,20.34c3.67,0,6.48,2.47,6.48,6.55,0,3.55-2.38,6.39-6.48,6.39s-6.46-2.83-6.46-6.39c0-4.08,2.81-6.55,6.46-6.55Zm0,10.44c2.47,0,3.12-2.21,3.12-4.27,0-1.9-1.01-3.67-3.12-3.67s-3.1,1.82-3.1,3.67c0,2.04.65,4.27,3.1,4.27Z"/>
    <path class="cls-2" d="m124.87,22.98h-2.38v-2.35h2.38v-2.47l3.22-1.03v3.5h2.86v2.35h-2.86v5.76c0,1.06.29,2.04,1.51,2.04.58,0,1.13-.12,1.46-.34l.1,2.54c-.67.19-1.42.29-2.38.29-2.52,0-3.91-1.56-3.91-4.01v-6.29Z"/>
    <path class="cls-2" d="m133.22,15.3h3.22v3.07h-3.22v-3.07Zm0,5.33h3.22v12.36h-3.22v-12.36Z"/>
    <path class="cls-2" d="m141,22.98h-2.38v-2.35h2.38v-1.73c0-2.47,1.39-4.2,3.94-4.2.82,0,1.73.12,2.35.26l-.26,2.66c-.29-.17-.7-.43-1.39-.43-1.08,0-1.42.94-1.42,1.9v1.54h2.81v2.35h-2.81v10.01h-3.22v-10.01Z"/>
    <path class="cls-2" d="m154.29,29.65h.05l2.98-9.03h3.26l-4.63,12.27c-1.03,2.74-1.78,5.43-5.14,5.43-.77,0-1.54-.12-2.28-.34l.22-2.38c.41.14.86.22,1.66.22,1.3,0,2.09-.89,2.09-2.21l-4.73-12.99h3.55l2.98,9.03Z"/>
  </g>
  <g>
    <path class="cls-2" d="m195.99,2c-13.25,0-24,10.75-24,24s10.75,24,24,24,24-10.74,24-24-10.74-24-24-24Zm11.01,34.62c-.43.71-1.35.93-2.06.5-5.64-3.44-12.73-4.22-21.08-2.31-.81.18-1.61-.32-1.79-1.12-.18-.8.32-1.61,1.12-1.79,9.14-2.09,16.98-1.19,23.31,2.68.71.43.93,1.35.5,2.06Zm2.94-6.54c-.54.88-1.69,1.16-2.57.62-6.45-3.96-16.28-5.11-23.92-2.8-.99.3-2.03-.26-2.34-1.25-.3-.99.26-2.03,1.25-2.33,8.72-2.65,19.55-1.36,26.96,3.19.88.54,1.16,1.69.62,2.57Zm.25-6.8c-7.74-4.59-20.5-5.02-27.88-2.78-1.19.36-2.44-.31-2.8-1.5-.36-1.19.31-2.44,1.5-2.8,8.48-2.57,22.57-2.08,31.48,3.21,1.07.63,1.42,2.01.78,3.08-.63,1.07-2.01,1.42-3.08.78Z"/>
    <path class="cls-1" d="m207,36.62c-.43.71-1.35.93-2.06.5-5.64-3.44-12.73-4.22-21.08-2.31-.81.18-1.61-.32-1.79-1.12-.18-.8.32-1.61,1.12-1.79,9.14-2.09,16.98-1.19,23.31,2.68.71.43.93,1.35.5,2.06Z"/>
    <path class="cls-1" d="m209.94,30.08c-.54.88-1.69,1.16-2.57.62-6.45-3.96-16.28-5.11-23.92-2.8-.99.3-2.03-.26-2.34-1.25-.3-.99.26-2.03,1.25-2.33,8.72-2.65,19.55-1.36,26.96,3.19.88.54,1.16,1.69.62,2.57Z"/>
    <path class="cls-1" d="m210.19,23.28c-7.74-4.59-20.5-5.02-27.88-2.78-1.19.36-2.44-.31-2.8-1.5-.36-1.19.31-2.44,1.5-2.8,8.48-2.57,22.57-2.08,31.48,3.21,1.07.63,1.42,2.01.78,3.08-.63,1.07-2.01,1.42-3.08.78Z"/>
  </g>
</svg>