<?xml version="1.0" encoding="UTF-8"?>
<svg id="botones" xmlns="http://www.w3.org/2000/svg" viewBox="0 0 245 52">
  <defs>
    <style>
      .cls-1 {
        fill: #fff;
      }

      .cls-2 {
        fill: #333369;
      }
    </style>
  </defs>
  <g>
    <path class="cls-2" d="m39.24,32.72c-1.22.29-2.54.53-3.82.53-5.42,0-9.19-2.71-9.19-8.38s3.5-8.95,9.19-8.95c1.11,0,2.57.22,3.79.7l-.24,2.83c-1.27-.72-2.42-.89-3.62-.89-3.46,0-5.62,2.64-5.62,6.07s2.11,5.98,5.69,5.98c1.32,0,2.88-.29,3.67-.7l.14,2.81Z"/>
    <path class="cls-2" d="m47.09,20.31c3.67,0,6.48,2.47,6.48,6.55,0,3.55-2.38,6.39-6.48,6.39s-6.46-2.83-6.46-6.39c0-4.08,2.81-6.55,6.46-6.55Zm0,10.44c2.47,0,3.12-2.21,3.12-4.27,0-1.9-1.01-3.67-3.12-3.67s-3.1,1.82-3.1,3.67c0,2.04.65,4.27,3.1,4.27Z"/>
    <path class="cls-2" d="m56.09,20.6h3.05v1.68h.05c1.01-1.42,2.38-1.97,4.06-1.97,2.93,0,4.2,2.06,4.2,4.85v7.8h-3.22v-6.6c0-1.51-.02-3.55-2.09-3.55-2.33,0-2.83,2.52-2.83,4.11v6.05h-3.22v-12.36Z"/>
    <path class="cls-2" d="m76.42,20.31c3.67,0,6.48,2.47,6.48,6.55,0,3.55-2.38,6.39-6.48,6.39s-6.46-2.83-6.46-6.39c0-4.08,2.81-6.55,6.46-6.55Zm0,10.44c2.47,0,3.12-2.21,3.12-4.27,0-1.9-1.01-3.67-3.12-3.67s-3.1,1.82-3.1,3.67c0,2.04.65,4.27,3.1,4.27Z"/>
    <path class="cls-2" d="m93.44,23.26c-.58-.26-1.2-.46-2.18-.46-1.99,0-3.26,1.58-3.26,3.91s1.08,4.03,3.34,4.03c.91,0,1.92-.34,2.47-.58l.14,2.66c-.94.29-1.9.41-3.22.41-4.06,0-6.1-2.76-6.1-6.53s2.11-6.41,5.98-6.41c1.3,0,2.23.14,3.12.41l-.29,2.54Z"/>
    <path class="cls-2" d="m105.99,32.26c-1.18.65-2.52.98-4.25.98-4.08,0-6.46-2.35-6.46-6.41,0-3.58,1.9-6.53,5.74-6.53,4.59,0,5.88,3.14,5.88,7.47h-8.55c.14,1.99,1.54,3.12,3.53,3.12,1.56,0,2.9-.58,4.1-1.25v2.62Zm-2.16-6.7c-.1-1.56-.82-2.91-2.62-2.91s-2.71,1.25-2.86,2.91h5.47Z"/>
    <path class="cls-2" d="m116.04,20.6h3v1.73h.05c1.01-1.51,2.47-2.02,3.67-2.02,1.73,0,2.95.65,3.65,2.18.74-1.49,2.35-2.18,3.86-2.18,3.05,0,3.91,2.09,3.91,4.85v7.8h-3.22v-7.37c0-1.15,0-2.78-1.85-2.78-2.14,0-2.4,2.54-2.4,4.15v6h-3.22v-7.37c0-1.15,0-2.78-1.85-2.78-2.14,0-2.4,2.54-2.4,4.15v6h-3.22v-12.36Z"/>
    <path class="cls-2" d="m137.98,21.25c1.25-.58,2.93-.94,4.3-.94,3.77,0,5.33,1.56,5.33,5.21v1.58c0,1.25.02,2.18.05,3.1.02.94.07,1.8.14,2.76h-2.83c-.12-.65-.12-1.46-.14-1.85h-.05c-.74,1.37-2.35,2.14-3.82,2.14-2.18,0-4.32-1.32-4.32-3.67,0-1.85.89-2.93,2.11-3.53s2.81-.72,4.15-.72h1.78c0-1.99-.89-2.66-2.78-2.66-1.37,0-2.74.53-3.82,1.34l-.1-2.76Zm3.77,9.65c.98,0,1.75-.43,2.26-1.1.53-.7.67-1.58.67-2.54h-1.39c-1.44,0-3.58.24-3.58,2.14,0,1.06.89,1.51,2.04,1.51Zm.91-15.48h3.29l-3.29,3.5h-1.99l1.99-3.5Z"/>
    <path class="cls-2" d="m158.12,23.19c-.98-.34-1.71-.53-2.88-.53-.86,0-1.9.31-1.9,1.37,0,1.97,5.59.72,5.59,5.18,0,2.88-2.57,4.03-5.19,4.03-1.22,0-2.47-.22-3.65-.53l.19-2.64c1.01.5,2.06.82,3.17.82.82,0,2.11-.31,2.11-1.51,0-2.42-5.59-.77-5.59-5.23,0-2.66,2.33-3.84,4.85-3.84,1.51,0,2.5.24,3.51.46l-.22,2.42Z"/>
  </g>
  <g>
    <circle class="cls-2" cx="194.77" cy="26" r="24" transform="translate(149.7 217.26) rotate(-84.35)"/>
    <polygon class="cls-1" points="207.93 23.18 197.4 23.18 197.4 12.65 191.72 12.65 191.72 23.18 181.19 23.18 181.19 28.86 191.72 28.86 191.72 39.39 197.4 39.39 197.4 28.86 207.93 28.86 207.93 23.18"/>
  </g>
</svg>