<?xml version="1.0" encoding="utf-8"?>
<!-- Generator: Adobe Illustrator 27.7.0, SVG Export Plug-In . SVG Version: 6.00 Build 0)  -->
<svg version="1.1" id="Capa_1" xmlns="http://www.w3.org/2000/svg" xmlns:xlink="http://www.w3.org/1999/xlink" x="0px" y="0px"
	 viewBox="0 0 1600 61.17" style="enable-background:new 0 0 1600 61.17;" xml:space="preserve">
<style type="text/css">
	.st0{fill:#FF9633;}
	.st1{fill:#FFFFFF;}
	.st2{fill:none;}
	.st3{display:none;}
</style>
<g id="TODO">
	<g>
		<g>
			<rect class="st0" width="1600" height="61.17"/>
		</g>
		<g>
			<path class="st1" d="M724.55,22.1l-2.93,2.58c-1.03-1.43-2.07-2.14-3.14-2.14c-0.52,0-0.94,0.14-1.27,0.42s-0.49,0.59-0.49,0.94
				s0.12,0.68,0.35,0.99c0.32,0.41,1.29,1.3,2.9,2.67c1.51,1.26,2.42,2.06,2.74,2.38c0.8,0.81,1.37,1.58,1.7,2.32
				c0.33,0.74,0.5,1.54,0.5,2.42c0,1.7-0.59,3.11-1.77,4.22s-2.71,1.66-4.6,1.66c-1.48,0-2.77-0.36-3.86-1.09s-2.04-1.86-2.82-3.41
				l3.32-2c1,1.83,2.15,2.75,3.45,2.75c0.68,0,1.25-0.2,1.71-0.59s0.69-0.85,0.69-1.37c0-0.47-0.17-0.94-0.52-1.41
				s-1.12-1.19-2.3-2.16c-2.26-1.84-3.72-3.27-4.38-4.27c-0.66-1-0.99-2-0.99-3c0-1.44,0.55-2.67,1.65-3.7
				c1.1-1.03,2.45-1.54,4.06-1.54c1.04,0,2.02,0.24,2.96,0.72C722.44,19.95,723.46,20.83,724.55,22.1z"/>
			<path class="st1" d="M730.42,16.34h4.56l-5.16,5.53h-2.77L730.42,16.34z M727.84,24.68h3.85v15.35h-3.85V24.68z"/>
			<path class="st1" d="M746.53,24.68h3.84v13.15c0,2.6-0.52,4.51-1.57,5.73c-1.4,1.65-3.51,2.48-6.34,2.48
				c-1.5,0-2.77-0.19-3.79-0.56c-1.03-0.38-1.89-0.93-2.6-1.66c-0.71-0.73-1.23-1.62-1.57-2.66h4.25c0.38,0.43,0.86,0.76,1.45,0.98
				s1.29,0.33,2.1,0.33c1.04,0,1.87-0.16,2.5-0.48s1.07-0.73,1.33-1.24s0.39-1.38,0.39-2.62c-0.68,0.68-1.39,1.16-2.13,1.46
				s-1.58,0.45-2.53,0.45c-2.06,0-3.8-0.74-5.22-2.23c-1.42-1.49-2.13-3.37-2.13-5.64c0-2.44,0.75-4.39,2.26-5.87
				c1.36-1.33,2.99-2,4.88-2c0.88,0,1.72,0.16,2.5,0.49s1.57,0.86,2.36,1.6v-1.71H746.53z M742.54,27.88
				c-1.21,0-2.22,0.41-3.01,1.22c-0.79,0.81-1.19,1.84-1.19,3.07c0,1.28,0.4,2.33,1.21,3.15s1.82,1.23,3.05,1.23
				c1.19,0,2.18-0.4,2.96-1.2s1.16-1.85,1.16-3.15c0-1.28-0.39-2.32-1.17-3.12C744.78,28.28,743.77,27.88,742.54,27.88z"/>
			<path class="st1" d="M754.25,24.68h3.89v7.39c0,1.44,0.1,2.44,0.3,3s0.52,1,0.96,1.31s0.98,0.46,1.62,0.46s1.19-0.15,1.63-0.46
				c0.45-0.3,0.78-0.75,1-1.35c0.16-0.44,0.24-1.39,0.24-2.84v-7.52h3.85v6.5c0,2.68-0.21,4.52-0.63,5.5
				c-0.52,1.2-1.28,2.13-2.29,2.77c-1.01,0.64-2.29,0.97-3.84,0.97c-1.68,0-3.04-0.38-4.08-1.13c-1.04-0.75-1.77-1.8-2.19-3.15
				c-0.3-0.93-0.45-2.62-0.45-5.08L754.25,24.68L754.25,24.68z"/>
			<path class="st1" d="M786.98,33.47H774.6c0.18,1.09,0.66,1.96,1.43,2.6c0.78,0.64,1.77,0.97,2.97,0.97c1.44,0,2.68-0.5,3.71-1.51
				l3.25,1.52c-0.81,1.15-1.78,2-2.91,2.55c-1.13,0.55-2.47,0.83-4.02,0.83c-2.41,0-4.37-0.76-5.88-2.28s-2.27-3.42-2.27-5.71
				c0-2.34,0.75-4.29,2.26-5.83s3.4-2.32,5.68-2.32c2.42,0,4.38,0.77,5.9,2.32S787,30.2,787,32.74L786.98,33.47z M783.13,30.44
				c-0.25-0.86-0.76-1.55-1.5-2.09c-0.75-0.54-1.62-0.8-2.61-0.8c-1.07,0-2.02,0.3-2.83,0.9c-0.51,0.38-0.98,1.04-1.41,1.99H783.13z
				"/>
			<path class="st1" d="M790.1,24.68h3.85v1.57c0.87-0.74,1.67-1.25,2.37-1.54c0.71-0.29,1.43-0.43,2.18-0.43
				c1.52,0,2.81,0.53,3.88,1.59c0.89,0.9,1.34,2.24,1.34,4.01v10.14h-3.81V33.3c0-1.83-0.08-3.05-0.25-3.65s-0.45-1.06-0.86-1.38
				c-0.41-0.31-0.91-0.47-1.51-0.47c-0.78,0-1.45,0.26-2,0.78c-0.56,0.52-0.95,1.24-1.16,2.16c-0.11,0.48-0.17,1.52-0.17,3.11v6.16
				h-3.85V24.68H790.1z"/>
			<path class="st1" d="M814.65,24.29c1.45,0,2.81,0.36,4.08,1.09s2.27,1.71,2.98,2.95c0.71,1.24,1.07,2.58,1.07,4.02
				c0,1.45-0.36,2.8-1.08,4.06c-0.72,1.26-1.7,2.25-2.94,2.96s-2.61,1.06-4.11,1.06c-2.2,0-4.08-0.78-5.64-2.35
				s-2.33-3.47-2.33-5.71c0-2.4,0.88-4.4,2.64-6C810.88,24.98,812.65,24.29,814.65,24.29z M814.72,27.91c-1.2,0-2.19,0.42-2.99,1.25
				s-1.19,1.9-1.19,3.2c0,1.34,0.39,2.42,1.18,3.24c0.79,0.83,1.78,1.24,2.99,1.24c1.21,0,2.21-0.42,3.01-1.26s1.2-1.91,1.2-3.23
				s-0.39-2.39-1.18-3.21C816.95,28.32,815.94,27.91,814.72,27.91z"/>
			<path class="st1" d="M835.34,26.82l-2.38,2.38c-0.97-0.96-1.85-1.44-2.64-1.44c-0.43,0-0.77,0.09-1.02,0.28
				c-0.25,0.18-0.37,0.41-0.37,0.68c0,0.21,0.08,0.4,0.23,0.57s0.54,0.41,1.15,0.71l1.41,0.71c1.49,0.73,2.51,1.48,3.06,2.24
				c0.55,0.76,0.83,1.66,0.83,2.68c0,1.36-0.5,2.5-1.5,3.41s-2.34,1.37-4.03,1.37c-2.24,0-4.03-0.88-5.36-2.62l2.37-2.58
				c0.45,0.53,0.98,0.95,1.59,1.28s1.15,0.49,1.62,0.49c0.51,0,0.92-0.12,1.23-0.37c0.31-0.24,0.47-0.53,0.47-0.85
				c0-0.59-0.56-1.17-1.68-1.74l-1.3-0.65c-2.48-1.25-3.73-2.82-3.73-4.7c0-1.21,0.47-2.25,1.4-3.11c0.94-0.86,2.13-1.29,3.59-1.29
				c1,0,1.94,0.22,2.81,0.65C833.98,25.38,834.73,26.01,835.34,26.82z"/>
			<path class="st1" d="M862.12,33.47h-12.38c0.18,1.09,0.66,1.96,1.43,2.6c0.78,0.64,1.77,0.97,2.97,0.97
				c1.44,0,2.68-0.5,3.71-1.51l3.25,1.52c-0.81,1.15-1.78,2-2.91,2.55c-1.13,0.55-2.47,0.83-4.02,0.83c-2.41,0-4.37-0.76-5.88-2.28
				s-2.27-3.42-2.27-5.71c0-2.34,0.75-4.29,2.26-5.83s3.4-2.32,5.68-2.32c2.42,0,4.38,0.77,5.9,2.32s2.27,3.59,2.27,6.13
				L862.12,33.47z M858.27,30.44c-0.25-0.86-0.76-1.55-1.5-2.09c-0.75-0.54-1.62-0.8-2.61-0.8c-1.07,0-2.02,0.3-2.83,0.9
				c-0.51,0.38-0.98,1.04-1.41,1.99H858.27z"/>
			<path class="st1" d="M865.24,24.68h3.85v1.57c0.87-0.74,1.67-1.25,2.37-1.54c0.71-0.29,1.43-0.43,2.18-0.43
				c1.52,0,2.81,0.53,3.88,1.59c0.89,0.9,1.34,2.24,1.34,4.01v10.14h-3.81V33.3c0-1.83-0.08-3.05-0.25-3.65s-0.45-1.06-0.86-1.38
				c-0.41-0.31-0.91-0.47-1.51-0.47c-0.78,0-1.45,0.26-2,0.78c-0.56,0.52-0.95,1.24-1.16,2.16c-0.11,0.48-0.17,1.52-0.17,3.11v6.16
				h-3.85V24.68H865.24z"/>
			<path class="st1" d="M884.68,24.29c0.61,0,1.13,0.21,1.57,0.65c0.43,0.43,0.65,0.96,0.65,1.57c0,0.6-0.22,1.12-0.65,1.55
				c-0.43,0.43-0.95,0.65-1.57,0.65c-0.61,0-1.13-0.21-1.57-0.64s-0.65-0.95-0.65-1.56s0.22-1.13,0.65-1.57
				C883.55,24.5,884.07,24.29,884.68,24.29z M884.68,36.01c0.61,0,1.13,0.21,1.57,0.64c0.43,0.43,0.65,0.95,0.65,1.56
				s-0.22,1.13-0.65,1.57c-0.43,0.43-0.95,0.65-1.57,0.65c-0.61,0-1.13-0.22-1.57-0.65c-0.43-0.43-0.65-0.96-0.65-1.57
				s0.22-1.13,0.65-1.56C883.55,36.22,884.07,36.01,884.68,36.01z"/>
		</g>
	</g>
	
		<rect id="_x3C_Sector_x3E__00000152223558334239248080000017466086322481603210_" y="-52.05" class="st2" width="1600" height="113.08"/>
</g>
<g id="botones_00000047058490104243868160000006997731581790246019_" class="st3">
</g>
</svg>
