<?xml version="1.0" encoding="UTF-8"?>
<svg id="botones" xmlns="http://www.w3.org/2000/svg" xmlns:xlink="http://www.w3.org/1999/xlink" viewBox="0 0 280.17 98.45">
  <defs>
    <style>
      .cls-1 {
        fill: #fff;
      }

      .cls-2 {
        fill: #f99;
      }

      .cls-3 {
        fill: #d86f6f;
      }

      .cls-4 {
        fill: none;
        filter: url(#drop-shadow-23);
      }
    </style>
    <filter id="drop-shadow-23" filterUnits="userSpaceOnUse">
      <feOffset dx="5.61" dy="5.61"/>
      <feGaussianBlur result="blur" stdDeviation="2.81"/>
      <feFlood flood-color="#0e2823" flood-opacity=".6"/>
      <feComposite in2="blur" operator="in"/>
      <feComposite in="SourceGraphic"/>
    </filter>
  </defs>
  <g class="cls-4">
    <rect class="cls-3" x="2.2" y="26.52" width="211.29" height="47.13" rx="9.91" ry="9.91"/>
    <circle class="cls-3" cx="231.87" cy="49.23" r="42.1"/>
    <path class="cls-2" d="m266.36,60.3c6.12-19.05-4.37-39.46-23.43-45.57-19.05-6.12-39.46,4.37-45.57,23.43-6.12,19.05,4.37,39.46,23.43,45.57,19.05,6.12,39.46-4.37,45.57-23.43Z"/>
    <g>
      <circle class="cls-3" cx="231.87" cy="49.23" r="30.84" transform="translate(9.37 130.97) rotate(-32.16)"/>
      <circle class="cls-1" cx="231.87" cy="49.23" r="24.49" transform="translate(-5.12 54.12) rotate(-13.17)"/>
      <polygon class="cls-3" points="249.97 45.38 235.71 45.38 235.71 31.12 228.02 31.12 228.02 45.38 213.76 45.38 213.76 53.07 228.02 53.07 228.02 67.34 235.71 67.34 235.71 53.07 249.97 53.07 249.97 45.38"/>
    </g>
    <g>
      <path class="cls-1" d="m44.89,44.78c-.74-.51-1.96-.94-3.68-.94-3.57,0-6.07,2.69-6.07,6.47,0,2.69,1.75,5.08,4.58,5.08,1.36,0,2.46-.44,3.38-.99l-.51,3.08c-1.17.32-2.42.44-3.63.44-4.86,0-7.18-3.27-7.18-7.62,0-5.18,3.52-9,9.2-9,1.61,0,3.31.21,4.72.78l-.81,2.69Z"/>
      <path class="cls-1" d="m58.79,50.72c0,4.16-2.88,7.2-7.06,7.2-3.36,0-5.38-2.07-5.38-5.41,0-3.96,3.04-7,7.02-7,3.2,0,5.43,1.93,5.43,5.2Zm-3.22.02c0-1.54-.53-2.83-2.35-2.83-2.44,0-3.66,2.69-3.66,4.83,0,1.56.64,2.78,2.42,2.78,2.39,0,3.59-2.76,3.59-4.79Z"/>
      <path class="cls-1" d="m63.28,47.5c.14-.71.25-1.33.3-1.7h3.01l-.21,1.15h.05c.85-.78,2.03-1.43,3.36-1.43,2.32,0,3.87,1.45,3.87,3.8,0,.9-.23,1.84-.39,2.58l-1.24,5.75h-3.08l1.15-5.59c.16-.8.34-1.61.34-2.48,0-.99-.69-1.66-1.68-1.66-2.14,0-2.92,2-3.31,3.77l-1.27,5.96h-3.08l2.19-10.15Z"/>
      <path class="cls-1" d="m89.21,50.72c0,4.16-2.88,7.2-7.06,7.2-3.36,0-5.38-2.07-5.38-5.41,0-3.96,3.04-7,7.02-7,3.2,0,5.43,1.93,5.43,5.2Zm-3.22.02c0-1.54-.53-2.83-2.35-2.83-2.44,0-3.66,2.69-3.66,4.83,0,1.56.64,2.78,2.42,2.78,2.39,0,3.59-2.76,3.59-4.79Z"/>
      <path class="cls-1" d="m101.3,48.51c-.6-.39-1.4-.6-2.26-.6-2.46,0-3.84,2.3-3.84,4.53,0,1.54.51,3.08,2.62,3.08.76,0,1.7-.21,2.51-.6l-.35,2.44c-.94.46-1.96.55-2.97.55-3.06,0-5.04-2.05-5.04-5.11,0-4.14,2.74-7.29,7-7.29,1.15,0,2.25.21,3.08.46l-.76,2.53Z"/>
      <path class="cls-1" d="m106.09,52.68c0,2.19,1.17,2.99,3.29,2.99,1.27,0,2.48-.32,3.63-.85l-.39,2.44c-1.2.37-2.51.67-3.77.67-3.41,0-5.71-1.66-5.71-5.18s2.85-7.22,6.74-7.22c2.92,0,4.86,1.5,4.86,4.51,0,.9-.12,1.77-.3,2.65h-8.35Zm5.64-2.12c.05-.28.07-.53.07-.81,0-1.27-.67-1.98-1.96-1.98-1.91,0-2.74,1.15-3.34,2.78h5.22Z"/>
      <path class="cls-1" d="m126.55,47.11c.09-.46.18-.94.25-1.31h2.88l-.28,1.59h.04c.83-1.22,2.19-1.86,3.64-1.86s2.85.83,3.01,2.25h.05c.78-1.54,2.51-2.25,4.17-2.25,1.77,0,3.29,1.45,3.29,3.24,0,1.06-.28,2.25-.53,3.22l-1.24,5.66h-3.08l1.24-5.78c.16-.71.39-1.82.39-2.53,0-.87-.67-1.43-1.45-1.43-2.14,0-2.67,2.49-3.06,4.1l-1.22,5.64h-3.08l1.24-5.78c.16-.71.39-1.82.39-2.53,0-.87-.67-1.43-1.45-1.43-2.09,0-2.67,2.51-3.06,4.1l-1.22,5.64h-3.08l2.16-10.54Z"/>
      <path class="cls-1" d="m153.52,55.83h-.05c-1.06,1.33-2.12,2.09-3.82,2.09-2.14,0-3.66-1.2-3.66-3.38,0-3.91,4.37-4.21,7.27-4.21h1.08c.09-.32.09-.67.09-1.01,0-1.2-1.29-1.54-2.37-1.54-1.36,0-2.67.34-3.89.92l.44-2.46c1.31-.46,2.65-.71,4.03-.71,2.37,0,4.6.87,4.6,3.66,0,1.59-1.17,6.24-1.45,8.47h-2.6l.32-1.82Zm-3.01-.16c2.3,0,3.01-1.59,3.5-3.5h-1.08c-1.5,0-3.98.25-3.98,2.25,0,.83.78,1.24,1.56,1.24Zm3.11-14.84h3.06l-2.95,3.36h-1.98l1.86-3.36Z"/>
      <path class="cls-1" d="m168.96,48.33c-.81-.3-1.66-.55-2.53-.55-.92,0-2.07.25-2.07,1.2,0,1.5,4,2.05,4,4.95,0,3.08-2.69,4-5.34,4-1.24,0-2.48-.18-3.61-.71l.67-2.46c.88.48,1.75.92,2.95.92,1.04,0,2.12-.35,2.12-1.31,0-1.91-4-2.09-4-5.06,0-2.78,2.69-3.77,5.13-3.77,1.13,0,2.28.21,3.36.48l-.67,2.32Z"/>
    </g>
  </g>
</svg>