<?xml version="1.0" encoding="UTF-8"?>
<svg id="botones" xmlns="http://www.w3.org/2000/svg" xmlns:xlink="http://www.w3.org/1999/xlink" viewBox="0 0 687.07 117.51">
  <defs>
    <style>
      .cls-1 {
        fill: #f98213;
      }

      .cls-2 {
        fill: #fff;
      }

      .cls-3 {
        fill: #231f20;
      }

      .cls-4 {
        filter: url(#drop-shadow-21);
      }

      .cls-4, .cls-5 {
        fill: none;
      }

      .cls-5 {
        filter: url(#drop-shadow-20);
      }
    </style>
    <filter id="drop-shadow-20" filterUnits="userSpaceOnUse">
      <feOffset dx="0" dy="0"/>
      <feGaussianBlur result="blur" stdDeviation="5.34"/>
      <feFlood flood-color="#14373a" flood-opacity="1"/>
      <feComposite in2="blur" operator="in"/>
      <feComposite in="SourceGraphic"/>
    </filter>
    <filter id="drop-shadow-21" filterUnits="userSpaceOnUse">
      <feOffset dx="0" dy="5.37"/>
      <feGaussianBlur result="blur-2" stdDeviation="2.68"/>
      <feFlood flood-color="#0a4940" flood-opacity=".6"/>
      <feComposite in2="blur-2" operator="in"/>
      <feComposite in="SourceGraphic"/>
    </filter>
  </defs>
  <g class="cls-5">
    <rect class="cls-3" x="2.82" y="31.98" width="315.88" height="53.55" rx="9" ry="9"/>
    <g>
      <path class="cls-2" d="m52.44,71.73l3.38-13.24h2.98l-2.15,13.24h-4.22Zm3.33-14.98l.78-3.76h3.76l-.78,3.76h-3.76Z"/>
      <path class="cls-2" d="m66.62,48.07h11.04l-.56,2.95h-7.33l-.97,4.62h6.55l-.59,2.95h-6.58l-1.1,5.26h7.41l-.64,2.95h-11.17l3.95-18.75Z"/>
      <path class="cls-2" d="m87.32,55.94c-.94-.35-1.93-.64-2.95-.64-1.07,0-2.42.3-2.42,1.4,0,1.75,4.67,2.39,4.67,5.77,0,3.6-3.14,4.67-6.23,4.67-1.45,0-2.9-.21-4.22-.83l.78-2.87c1.02.56,2.04,1.07,3.44,1.07,1.21,0,2.47-.4,2.47-1.53,0-2.23-4.67-2.44-4.67-5.91,0-3.25,3.14-4.4,5.99-4.4,1.32,0,2.66.24,3.92.56l-.78,2.71Z"/>
      <path class="cls-2" d="m99.6,56.15c-.7-.46-1.64-.7-2.63-.7-2.87,0-4.49,2.69-4.49,5.29,0,1.8.59,3.6,3.06,3.6.89,0,1.99-.24,2.93-.7l-.4,2.85c-1.1.54-2.28.64-3.46.64-3.57,0-5.88-2.39-5.88-5.96,0-4.83,3.2-8.51,8.16-8.51,1.34,0,2.63.24,3.6.54l-.89,2.95Z"/>
      <path class="cls-2" d="m112.56,64.83c-.16.83-.3,1.56-.35,1.99h-3.52l.24-1.34h-.05c-.99.91-2.36,1.67-3.92,1.67-2.71,0-4.51-1.69-4.51-4.43,0-1.05.27-2.15.46-3.01l1.45-6.71h3.6l-1.34,6.53c-.19.94-.4,1.88-.4,2.9,0,1.15.81,1.93,1.96,1.93,2.5,0,3.41-2.34,3.87-4.4l1.48-6.96h3.6l-2.55,11.84Zm-3.36-17.64h3.57l-3.44,3.92h-2.31l2.17-3.92Z"/>
      <path class="cls-2" d="m126.85,56.15c-.7-.46-1.64-.7-2.63-.7-2.87,0-4.48,2.69-4.48,5.29,0,1.8.59,3.6,3.06,3.6.89,0,1.99-.24,2.93-.7l-.4,2.85c-1.1.54-2.28.64-3.46.64-3.57,0-5.88-2.39-5.88-5.96,0-4.83,3.2-8.51,8.16-8.51,1.34,0,2.63.24,3.6.54l-.89,2.95Z"/>
      <path class="cls-2" d="m131.11,46.67h3.6l-1.72,7.65h.05c.99-.91,2.36-1.66,3.92-1.66,2.71,0,4.51,1.69,4.51,4.43,0,1.05-.27,2.15-.46,3.01l-1.45,6.71h-3.6l1.34-6.53c.19-.94.4-1.88.4-2.9,0-1.16-.81-1.93-1.96-1.93-2.5,0-3.41,2.34-3.87,4.4l-1.48,6.96h-3.6l4.3-20.14Z"/>
      <path class="cls-2" d="m151.47,64.69h-.05c-1.24,1.56-2.47,2.44-4.46,2.44-2.5,0-4.27-1.4-4.27-3.95,0-4.57,5.1-4.92,8.49-4.92h1.26c.11-.38.11-.78.11-1.18,0-1.4-1.5-1.8-2.77-1.8-1.58,0-3.12.4-4.54,1.07l.51-2.87c1.53-.54,3.09-.83,4.7-.83,2.77,0,5.37,1.02,5.37,4.27,0,1.85-1.37,7.28-1.69,9.88h-3.04l.38-2.12Zm-3.52-.19c2.69,0,3.52-1.85,4.08-4.08h-1.26c-1.75,0-4.65.3-4.65,2.63,0,.97.91,1.45,1.83,1.45Z"/>
      <path class="cls-2" d="m159.63,54.97c.16-.83.3-1.56.35-1.99h3.52l-.24,1.34h.05c.99-.91,2.36-1.66,3.92-1.66,2.71,0,4.51,1.69,4.51,4.43,0,1.05-.27,2.15-.46,3.01l-1.45,6.71h-3.6l1.34-6.53c.19-.94.4-1.88.4-2.9,0-1.16-.81-1.93-1.96-1.93-2.5,0-3.41,2.34-3.87,4.4l-1.48,6.96h-3.6l2.55-11.84Z"/>
      <path class="cls-2" d="m188.01,58.73c0,4.86-3.36,8.41-8.25,8.41-3.92,0-6.28-2.42-6.28-6.31,0-4.62,3.54-8.16,8.19-8.16,3.73,0,6.34,2.26,6.34,6.07Zm-3.76.03c0-1.8-.62-3.3-2.74-3.3-2.85,0-4.27,3.14-4.27,5.64,0,1.83.75,3.25,2.82,3.25,2.79,0,4.19-3.22,4.19-5.59Z"/>
      <path class="cls-2" d="m199.34,55.94c-.94-.35-1.93-.64-2.95-.64-1.07,0-2.42.3-2.42,1.4,0,1.75,4.67,2.39,4.67,5.77,0,3.6-3.14,4.67-6.23,4.67-1.45,0-2.9-.21-4.22-.83l.78-2.87c1.02.56,2.04,1.07,3.44,1.07,1.21,0,2.47-.4,2.47-1.53,0-2.23-4.67-2.44-4.67-5.91,0-3.25,3.14-4.4,5.99-4.4,1.32,0,2.66.24,3.92.56l-.78,2.71Z"/>
      <path class="cls-2" d="m215.91,64.69h-.05c-1.24,1.56-2.47,2.44-4.46,2.44-2.5,0-4.27-1.4-4.27-3.95,0-4.57,5.1-4.92,8.49-4.92h1.26c.11-.38.11-.78.11-1.18,0-1.4-1.5-1.8-2.77-1.8-1.58,0-3.12.4-4.54,1.07l.51-2.87c1.53-.54,3.09-.83,4.7-.83,2.77,0,5.37,1.02,5.37,4.27,0,1.85-1.37,7.28-1.69,9.88h-3.03l.38-2.12Zm-3.52-.19c2.69,0,3.52-1.85,4.08-4.08h-1.26c-1.75,0-4.65.3-4.65,2.63,0,.97.91,1.45,1.83,1.45Z"/>
      <path class="cls-2" d="m231,65.02l-.05-.05c-.81,1.48-2.23,2.18-4.14,2.18-3.28,0-4.75-2.74-4.75-5.75,0-4.14,2.26-8.73,6.96-8.73,2.01,0,3.38.64,4.11,2.63h.05l.51-2.31h3.46c-.16.54-.38,1.34-.59,2.36l-3.63,17.11h-3.6l1.67-7.44Zm-2.98-.67c2.63,0,4.19-3.06,4.19-5.61,0-1.61-.78-3.28-2.61-3.28-2.58,0-3.79,3.54-3.79,5.61,0,1.4.43,3.28,2.2,3.28Z"/>
      <path class="cls-2" d="m250.39,64.83c-.16.83-.3,1.56-.35,1.99h-3.52l.24-1.34h-.05c-.99.91-2.36,1.67-3.92,1.67-2.71,0-4.51-1.69-4.51-4.43,0-1.05.27-2.15.46-3.01l1.45-6.71h3.6l-1.34,6.53c-.19.94-.4,1.88-.4,2.9,0,1.15.81,1.93,1.96,1.93,2.5,0,3.41-2.34,3.87-4.4l1.48-6.96h3.6l-2.55,11.84Z"/>
      <path class="cls-2" d="m256.21,52.99h3.6l-2.95,13.83h-3.6l2.95-13.83Zm2.2-5.8h3.57l-3.44,3.92h-2.31l2.17-3.92Z"/>
      <path class="cls-2" d="m266.23,63.06l-.78,3.76h-3.76l.78-3.76h3.76Zm-.89-14.99h4.22l-3.38,13.24h-2.98l2.15-13.24Z"/>
    </g>
  </g>
  <g class="cls-4">
    <path class="cls-1" d="m377.44,32.38h239.42c6.25,0,11.33,4.03,11.33,9v35.56c0,4.97-5.07,9-11.33,9h-239.42c-6.25,0-11.33-4.03-11.33-9v-35.56c0-4.97,5.07-9,11.33-9Z"/>
    <g>
      <circle class="cls-2" cx="633.06" cy="58.76" r="46.19" transform="translate(-2.69 52.41) rotate(-4.73)"/>
      <path class="cls-1" d="m633.06,107.95c-27.12,0-49.19-22.07-49.19-49.19s22.07-49.19,49.19-49.19,49.19,22.07,49.19,49.19-22.07,49.19-49.19,49.19Zm0-92.38c-23.81,0-43.19,19.37-43.19,43.19s19.38,43.19,43.19,43.19,43.19-19.37,43.19-43.19-19.38-43.19-43.19-43.19Z"/>
      <path class="cls-1" d="m633.27,25.8c-18.2,0-32.95,14.75-32.95,32.95s14.75,32.95,32.95,32.95,32.95-14.75,32.95-32.95-14.75-32.95-32.95-32.95Zm15.11,47.53c-.59.97-1.86,1.28-2.82.68-7.74-4.73-17.48-5.8-28.95-3.18-1.11.25-2.21-.44-2.46-1.54-.25-1.11.44-2.21,1.54-2.46,12.55-2.87,23.32-1.63,32.01,3.67.97.59,1.27,1.86.68,2.82Zm4.03-8.97c-.75,1.21-2.33,1.59-3.53.85-8.86-5.44-22.36-7.02-32.84-3.84-1.36.41-2.79-.36-3.21-1.71-.41-1.36.36-2.79,1.71-3.2,11.97-3.63,26.85-1.87,37.02,4.38,1.21.74,1.59,2.33.85,3.53Zm.35-9.34c-10.62-6.31-28.14-6.89-38.28-3.81-1.63.49-3.35-.43-3.84-2.05-.49-1.63.42-3.35,2.05-3.85,11.64-3.53,30.99-2.85,43.22,4.41,1.46.87,1.95,2.76,1.08,4.22-.87,1.46-2.76,1.95-4.22,1.08Z"/>
      <path class="cls-2" d="m648.38,73.33c-.59.97-1.86,1.28-2.82.68-7.74-4.73-17.48-5.8-28.95-3.18-1.11.25-2.21-.44-2.46-1.54-.25-1.11.44-2.21,1.54-2.46,12.55-2.87,23.32-1.63,32.01,3.67.97.59,1.27,1.86.68,2.82Z"/>
      <path class="cls-2" d="m652.41,64.36c-.75,1.21-2.33,1.59-3.53.85-8.86-5.44-22.36-7.02-32.84-3.84-1.36.41-2.79-.36-3.21-1.71-.41-1.36.36-2.79,1.71-3.2,11.97-3.63,26.85-1.87,37.02,4.38,1.21.74,1.59,2.33.85,3.53Z"/>
      <path class="cls-2" d="m652.76,55.02c-10.62-6.31-28.14-6.89-38.28-3.81-1.63.49-3.35-.43-3.84-2.05-.49-1.63.42-3.35,2.05-3.85,11.64-3.53,30.99-2.85,43.22,4.41,1.46.87,1.95,2.76,1.08,4.22-.87,1.46-2.76,1.95-4.22,1.08Z"/>
    </g>
    <g>
      <path class="cls-2" d="m412.35,57.06c0,3.06-1.13,6.04-3.14,8.3-1.96,2.18-4.81,3.14-7.95,3.14-4.62,0-7.39-3.33-7.39-7.79,0-2.98,1.05-5.88,2.96-8.11,2.04-2.34,4.65-3.49,7.71-3.49,5.08,0,7.81,2.95,7.81,7.95Zm-14.55,3.87c0,2.44,1.23,4.62,3.95,4.62,4.3,0,6.69-5.16,6.69-8.89,0-2.5-1.29-4.59-4-4.59-4.38,0-6.63,5.08-6.63,8.86Z"/>
      <path class="cls-2" d="m423.38,56.15c.13-.67.24-1.21.29-1.8h3.41l-.4,1.83h.05c1.05-1.48,2.34-2.15,4.16-2.15,3.44,0,5.08,2.34,5.08,5.61,0,4.32-2.39,8.86-7.2,8.86-1.58,0-3.22-.54-3.81-2.47h-.05l-1.58,7.79h-3.6l3.65-17.67Zm6.31.67c-2.44,0-3.81,3.22-3.81,5.64,0,1.77.62,3.25,2.36,3.25,3.01,0,3.97-3.76,3.97-5.94,0-1.69-.86-2.95-2.53-2.95Z"/>
      <path class="cls-2" d="m452.41,60.1c0,4.86-3.36,8.41-8.24,8.41-3.92,0-6.29-2.42-6.29-6.31,0-4.62,3.54-8.16,8.19-8.16,3.73,0,6.34,2.26,6.34,6.07Zm-3.76.03c0-1.8-.62-3.3-2.74-3.3-2.85,0-4.27,3.14-4.27,5.64,0,1.83.75,3.25,2.82,3.25,2.79,0,4.19-3.22,4.19-5.59Z"/>
      <path class="cls-2" d="m456.22,56.2c.11-.59.21-1.21.32-1.85h3.44l-.48,2.6h.05c.64-1.5,2.42-2.93,4.08-2.93.46,0,.94.03,1.37.13l-.75,3.52c-.4-.13-.91-.21-1.37-.21-2.55,0-3.79,2.28-4.24,4.51l-1.29,6.2h-3.6l2.47-11.98Z"/>
      <path class="cls-2" d="m485.06,53.03c-1.1-.56-2.52-.97-3.89-.97s-3.14.54-3.14,2.15c0,3.01,6.39,2.82,6.39,8.03,0,4.59-3.6,6.26-7.71,6.26-1.8,0-3.65-.43-5.34-1.05l.97-3.2c1.45.67,2.98,1.29,4.59,1.29,1.8,0,3.57-.91,3.57-2.93,0-3.38-6.39-2.85-6.39-7.84,0-3.95,3.38-5.67,6.98-5.67,1.64,0,3.33.21,4.86.83l-.89,3.09Z"/>
      <path class="cls-2" d="m489.03,56.15c.13-.67.24-1.21.29-1.8h3.41l-.4,1.83h.05c1.05-1.48,2.34-2.15,4.16-2.15,3.44,0,5.08,2.34,5.08,5.61,0,4.32-2.39,8.86-7.2,8.86-1.58,0-3.22-.54-3.81-2.47h-.05l-1.58,7.79h-3.6l3.65-17.67Zm6.31.67c-2.44,0-3.81,3.22-3.81,5.64,0,1.77.62,3.25,2.36,3.25,3.01,0,3.97-3.76,3.97-5.94,0-1.69-.86-2.95-2.53-2.95Z"/>
      <path class="cls-2" d="m518.06,60.1c0,4.86-3.36,8.41-8.24,8.41-3.92,0-6.29-2.42-6.29-6.31,0-4.62,3.54-8.16,8.19-8.16,3.73,0,6.34,2.26,6.34,6.07Zm-3.76.03c0-1.8-.62-3.3-2.74-3.3-2.85,0-4.27,3.14-4.27,5.64,0,1.83.75,3.25,2.82,3.25,2.79,0,4.19-3.22,4.19-5.59Z"/>
      <path class="cls-2" d="m520.82,54.35h2.6l.62-2.85,3.87-1.26-.89,4.11h3.22l-.56,2.63h-3.22l-1.32,6.04c-.08.32-.16.81-.16,1.34,0,.83.56,1.34,1.37,1.34.64,0,1.29-.13,1.75-.32l-.62,2.79c-.62.13-1.32.32-1.93.32-2.44,0-4.16-.97-4.16-3.62,0-1.07.21-2.12.46-3.22l1.02-4.67h-2.6l.56-2.63Z"/>
      <path class="cls-2" d="m532.8,54.35h3.6l-2.95,13.83h-3.6l2.96-13.83Zm1.32-5.96h3.6l-.75,3.44h-3.6l.75-3.44Z"/>
      <path class="cls-2" d="m540.96,56.98h-2.79l.56-2.63h2.79c.72-3.52,1.91-6.63,6.1-6.63.83,0,1.64.16,2.23.35l-.83,2.69c-.32-.16-.72-.24-1.1-.24-1.99,0-2.44,2.39-2.79,3.84h3.22l-.56,2.63h-3.22l-2.36,11.2h-3.6l2.36-11.2Z"/>
      <path class="cls-2" d="m552.64,54.35l1.29,10.29h.05l5.5-10.29h3.95l-9.37,15.92c-1.1,1.88-2.47,3.87-5.51,3.87-.91,0-1.8-.13-2.69-.38l.81-2.74c.43.16.86.32,1.58.32,1.07,0,1.88-.54,3.14-2.5l-2.44-14.5h3.68Z"/>
    </g>
  </g>
</svg>