<?xml version="1.0" encoding="UTF-8"?>
<svg id="botones" xmlns="http://www.w3.org/2000/svg" xmlns:xlink="http://www.w3.org/1999/xlink" viewBox="0 0 280.17 98.45">
  <defs>
    <style>
      .cls-1, .cls-2 {
        fill: #00ac69;
      }

      .cls-3 {
        fill: #fff;
      }

      .cls-4 {
        fill: none;
        filter: url(#drop-shadow-27);
      }

      .cls-2 {
        fill-rule: evenodd;
      }
    </style>
    <filter id="drop-shadow-27" filterUnits="userSpaceOnUse">
      <feOffset dx="0" dy="4.6"/>
      <feGaussianBlur result="blur" stdDeviation="2.3"/>
      <feFlood flood-color="#1d3f16" flood-opacity=".6"/>
      <feComposite in2="blur" operator="in"/>
      <feComposite in="SourceGraphic"/>
    </filter>
  </defs>
  <g class="cls-4">
    <path class="cls-1" d="m12.44,26.11h204.95c5.36,0,9.71,3.45,9.71,7.71v30.48c0,4.26-4.35,7.71-9.71,7.71H12.44c-5.36,0-9.71-3.45-9.71-7.71v-30.48c0-4.26,4.35-7.71,9.71-7.71Z"/>
    <g>
      <circle class="cls-1" cx="231.22" cy="49.23" r="42.21" transform="translate(-3.73 23.02) rotate(-5.65)"/>
      <path class="cls-3" d="m265.81,60.33c6.13-19.1-4.38-39.55-23.48-45.68-19.1-6.13-39.55,4.38-45.68,23.48-6.13,19.1,4.38,39.55,23.48,45.68,19.1,6.13,39.55-4.38,45.68-23.48Z"/>
      <g>
        <path class="cls-3" d="m26.53,40.56h3.19l1.48,12.38h.05l6.61-12.38h3.47l-8.89,15.91h-3.81l-2.1-15.91Z"/>
        <path class="cls-3" d="m42.55,51.55c0,2.17,1.16,2.96,3.26,2.96,1.25,0,2.46-.32,3.6-.84l-.39,2.42c-1.19.37-2.48.66-3.74.66-3.37,0-5.65-1.64-5.65-5.13s2.83-7.16,6.68-7.16c2.9,0,4.81,1.48,4.81,4.47,0,.89-.11,1.76-.3,2.62h-8.28Zm5.58-2.1c.05-.27.07-.52.07-.8,0-1.25-.66-1.96-1.94-1.96-1.89,0-2.71,1.14-3.31,2.76h5.17Z"/>
        <path class="cls-3" d="m66.76,54.67h-.04c-1.05,1.32-2.1,2.07-3.78,2.07-2.12,0-3.62-1.19-3.62-3.35,0-3.88,4.33-4.17,7.2-4.17h1.07c.09-.32.09-.66.09-1,0-1.19-1.28-1.53-2.35-1.53-1.35,0-2.64.34-3.85.91l.43-2.44c1.3-.46,2.62-.71,3.99-.71,2.35,0,4.56.87,4.56,3.62,0,1.57-1.16,6.18-1.44,8.39h-2.58l.32-1.8Zm-2.99-.16c2.28,0,2.99-1.57,3.47-3.46h-1.07c-1.48,0-3.94.25-3.94,2.23,0,.82.78,1.23,1.55,1.23Z"/>
        <path class="cls-3" d="m82.86,39.37h3.05l-3.62,17.1h-3.06l3.62-17.1Z"/>
        <path class="cls-3" d="m93.48,54.67h-.05c-1.05,1.32-2.1,2.07-3.78,2.07-2.12,0-3.62-1.19-3.62-3.35,0-3.88,4.33-4.17,7.2-4.17h1.07c.09-.32.09-.66.09-1,0-1.19-1.28-1.53-2.35-1.53-1.34,0-2.64.34-3.85.91l.43-2.44c1.3-.46,2.62-.71,3.99-.71,2.35,0,4.56.87,4.56,3.62,0,1.57-1.16,6.18-1.44,8.39h-2.58l.32-1.8Zm-2.99-.16c2.28,0,2.99-1.57,3.46-3.46h-1.07c-1.48,0-3.94.25-3.94,2.23,0,.82.78,1.23,1.55,1.23Z"/>
        <path class="cls-3" d="m108.09,47.24c-.8-.3-1.64-.55-2.51-.55-.91,0-2.05.25-2.05,1.18,0,1.48,3.97,2.03,3.97,4.9,0,3.05-2.67,3.97-5.29,3.97-1.23,0-2.46-.18-3.58-.71l.66-2.44c.87.48,1.73.91,2.92.91,1.03,0,2.1-.34,2.1-1.3,0-1.89-3.97-2.07-3.97-5.02,0-2.76,2.67-3.74,5.08-3.74,1.12,0,2.26.21,3.33.48l-.66,2.3Z"/>
        <path class="cls-3" d="m119.62,46.97h-2.37l.48-2.23h2.37c.62-2.99,1.62-5.63,5.17-5.63.71,0,1.39.14,1.89.3l-.71,2.28c-.27-.14-.62-.21-.93-.21-1.69,0-2.07,2.03-2.37,3.26h2.74l-.48,2.23h-2.74l-2.01,9.51h-3.05l2.01-9.51Z"/>
        <path class="cls-3" d="m138.64,49.61c0,4.13-2.85,7.13-7,7.13-3.33,0-5.33-2.05-5.33-5.36,0-3.92,3.01-6.93,6.95-6.93,3.17,0,5.38,1.92,5.38,5.15Zm-3.19.02c0-1.53-.52-2.8-2.33-2.8-2.42,0-3.62,2.67-3.62,4.79,0,1.55.64,2.76,2.39,2.76,2.37,0,3.56-2.74,3.56-4.74Z"/>
        <path class="cls-3" d="m141.44,44.73h2.21l.52-2.42,3.28-1.07-.75,3.49h2.74l-.48,2.23h-2.74l-1.12,5.13c-.07.27-.14.68-.14,1.14,0,.71.48,1.14,1.16,1.14.55,0,1.09-.11,1.48-.27l-.52,2.37c-.52.11-1.12.27-1.64.27-2.07,0-3.53-.82-3.53-3.08,0-.91.18-1.8.39-2.74l.87-3.97h-2.21l.48-2.23Z"/>
        <path class="cls-3" d="m162.34,49.61c0,4.13-2.85,7.13-7,7.13-3.33,0-5.33-2.05-5.33-5.36,0-3.92,3.01-6.93,6.95-6.93,3.17,0,5.38,1.92,5.38,5.15Zm-3.19.02c0-1.53-.52-2.8-2.33-2.8-2.42,0-3.62,2.67-3.62,4.79,0,1.55.64,2.76,2.39,2.76,2.37,0,3.56-2.74,3.56-4.74Z"/>
        <path class="cls-3" d="m172.87,47.24c-.8-.3-1.64-.55-2.51-.55-.91,0-2.05.25-2.05,1.18,0,1.48,3.97,2.03,3.97,4.9,0,3.05-2.67,3.97-5.29,3.97-1.23,0-2.46-.18-3.58-.71l.66-2.44c.87.48,1.73.91,2.92.91,1.03,0,2.1-.34,2.1-1.3,0-1.89-3.97-2.07-3.97-5.02,0-2.76,2.67-3.74,5.08-3.74,1.12,0,2.26.21,3.33.48l-.66,2.3Z"/>
      </g>
    </g>
    <path class="cls-2" d="m248.49,32.8h-5.66v-2.84c0-3.13-2.7-3.36-5.84-3.36h-11.32c-3.13,0-5.5.23-5.5,3.36v2.84h-5.65c-3.13,0-5.67,2.53-5.67,5.65v25.48c0,3.14,2.53,5.67,5.67,5.67h33.97c3.13,0,5.66-2.54,5.66-5.67v-25.48c0-3.11-2.53-5.65-5.66-5.65h0Zm-29.88-1.54c0-.99-.81-1.8-1.8-1.8h-1.88c-.99,0-1.82.81-1.82,1.8v.67h5.5v-.67h0Zm29.88,10.02c-1.56,0-2.83-1.26-2.83-2.84s1.27-2.83,2.83-2.83,2.83,1.28,2.83,2.83-1.28,2.84-2.83,2.84h0Zm-16.98-4.53c1.71,0,3.36.34,4.86.96h0c1.56.66,2.95,1.6,4.11,2.76h.02c1.16,1.19,2.1,2.57,2.74,4.13h0c.64,1.5.97,3.15.97,4.86s-.34,3.36-.97,4.86h0c-.64,1.56-1.58,2.95-2.74,4.11h-.02v.02c-1.16,1.16-2.55,2.1-4.11,2.74h0c-1.5.64-3.15.97-4.86.97s-3.36-.34-4.86-.97h0c-1.56-.64-2.95-1.58-4.13-2.74v-.02h0c-1.17-1.16-2.1-2.55-2.76-4.11h0c-.62-1.5-.96-3.15-.96-4.86s.34-3.36.96-4.86h0c.66-1.56,1.6-2.95,2.76-4.13h0c1.18-1.16,2.57-2.1,4.13-2.76h0c1.5-.62,3.13-.96,4.86-.96h0Zm6.06,6.64c-.81-.81-1.74-1.45-2.78-1.86-1.01-.43-2.12-.66-3.28-.66s-2.29.22-3.28.66c-1.03.41-1.99,1.05-2.78,1.86-.81.79-1.44,1.74-1.87,2.78-.42,1-.64,2.1-.64,3.28s.23,2.27.64,3.28c.43,1.03,1.07,1.97,1.87,2.78.79.79,1.75,1.43,2.78,1.86,1,.42,2.1.66,3.28.66s2.27-.24,3.28-.66c1.04-.43,1.97-1.07,2.78-1.86.79-.81,1.43-1.74,1.86-2.78.41-1.02.64-2.12.64-3.28s-.22-2.29-.64-3.28c-.43-1.03-1.07-1.99-1.86-2.78h0Z"/>
  </g>
</svg>