<?xml version="1.0" encoding="utf-8"?>
<!-- Generator: Adobe Illustrator 27.7.0, SVG Export Plug-In . SVG Version: 6.00 Build 0)  -->
<svg version="1.1" id="botones" xmlns="http://www.w3.org/2000/svg" xmlns:xlink="http://www.w3.org/1999/xlink" x="0px" y="0px"
	 viewBox="0 0 343.8 106" style="enable-background:new 0 0 343.8 106;" xml:space="preserve">
<style type="text/css">
	.st0{fill:#231F20;}
	.st1{fill:#FFFFFF;}
</style>
<g>
	
		<image style="overflow:visible;enable-background:new    ;" width="350" height="87" xlink:href="779636EB4189547A.png"  transform="matrix(0.9966 0 0 0.9966 -9.9307 4.6278)">
	</image>
	<g>
		<g>
			<g>
				<path class="st0" d="M15.6,21.1h297.9c5,0,9,4,9,9v35.6c0,5-4,9-9,9H15.6c-5,0-9-4-9-9V30.1C6.6,25.2,10.6,21.1,15.6,21.1z"/>
			</g>
			<g>
				<g>
					<path class="st1" d="M56.2,60.9l3.4-13.2h3l-2.1,13.2H56.2z M59.5,45.9l0.8-3.8h3.8l-0.8,3.8H59.5z"/>
					<path class="st1" d="M70.4,37.2h11l-0.6,3h-7.3l-1,4.6h6.6l-0.6,3H72L70.9,53h7.4l-0.6,3H66.4L70.4,37.2z"/>
					<path class="st1" d="M91.1,45.1c-0.9-0.3-1.9-0.6-3-0.6s-2.4,0.3-2.4,1.4c0,1.7,4.7,2.4,4.7,5.8c0,3.6-3.1,4.7-6.2,4.7
						c-1.5,0-2.9-0.2-4.2-0.8l0.8-2.9c1,0.6,2,1.1,3.4,1.1c1.2,0,2.5-0.4,2.5-1.5c0-2.2-4.7-2.4-4.7-5.9c0-3.2,3.1-4.4,6-4.4
						c1.3,0,2.7,0.2,3.9,0.6L91.1,45.1z"/>
					<path class="st1" d="M103.4,45.3c-0.7-0.5-1.6-0.7-2.6-0.7c-2.9,0-4.5,2.7-4.5,5.3c0,1.8,0.6,3.6,3.1,3.6c0.9,0,2-0.2,2.9-0.7
						l-0.4,2.8c-1.1,0.5-2.3,0.6-3.5,0.6c-3.6,0-5.9-2.4-5.9-6c0-4.8,3.2-8.5,8.2-8.5c1.3,0,2.6,0.2,3.6,0.5L103.4,45.3z"/>
					<path class="st1" d="M116.3,54c-0.2,0.8-0.3,1.6-0.3,2h-3.5l0.2-1.3h-0.1c-1,0.9-2.4,1.7-3.9,1.7c-2.7,0-4.5-1.7-4.5-4.4
						c0-1,0.3-2.1,0.5-3l1.5-6.7h3.6l-1.3,6.5c-0.2,0.9-0.4,1.9-0.4,2.9c0,1.2,0.8,1.9,2,1.9c2.5,0,3.4-2.3,3.9-4.4l1.5-7h3.6
						L116.3,54z M113,36.4h3.6l-3.4,3.9h-2.3L113,36.4z"/>
					<path class="st1" d="M130.6,45.3c-0.7-0.5-1.6-0.7-2.6-0.7c-2.9,0-4.5,2.7-4.5,5.3c0,1.8,0.6,3.6,3.1,3.6c0.9,0,2-0.2,2.9-0.7
						l-0.4,2.8c-1.1,0.5-2.3,0.6-3.5,0.6c-3.6,0-5.9-2.4-5.9-6c0-4.8,3.2-8.5,8.2-8.5c1.3,0,2.6,0.2,3.6,0.5L130.6,45.3z"/>
					<path class="st1" d="M134.9,35.8h3.6l-1.7,7.7h0.1c1-0.9,2.4-1.7,3.9-1.7c2.7,0,4.5,1.7,4.5,4.4c0,1-0.3,2.1-0.5,3l-1.4,6.7
						h-3.6l1.3-6.5c0.2-0.9,0.4-1.9,0.4-2.9c0-1.2-0.8-1.9-2-1.9c-2.5,0-3.4,2.3-3.9,4.4l-1.5,7h-3.6L134.9,35.8z"/>
					<path class="st1" d="M155.2,53.9L155.2,53.9c-1.3,1.6-2.5,2.4-4.5,2.4c-2.5,0-4.3-1.4-4.3-3.9c0-4.6,5.1-4.9,8.5-4.9h1.3
						c0.1-0.4,0.1-0.8,0.1-1.2c0-1.4-1.5-1.8-2.8-1.8c-1.6,0-3.1,0.4-4.5,1.1l0.5-2.9c1.5-0.5,3.1-0.8,4.7-0.8c2.8,0,5.4,1,5.4,4.3
						c0,1.9-1.4,7.3-1.7,9.9h-3L155.2,53.9z M151.7,53.7c2.7,0,3.5-1.9,4.1-4.1h-1.3c-1.7,0-4.6,0.3-4.6,2.6
						C149.9,53.2,150.8,53.7,151.7,53.7z"/>
					<path class="st1" d="M163.4,44.1c0.2-0.8,0.3-1.6,0.3-2h3.5l-0.2,1.3h0.1c1-0.9,2.4-1.7,3.9-1.7c2.7,0,4.5,1.7,4.5,4.4
						c0,1-0.3,2.1-0.5,3l-1.5,6.7H170l1.3-6.5c0.2-0.9,0.4-1.9,0.4-2.9c0-1.2-0.8-1.9-2-1.9c-2.5,0-3.4,2.3-3.9,4.4l-1.5,7h-3.6
						L163.4,44.1z"/>
					<path class="st1" d="M191.8,47.9c0,4.9-3.4,8.4-8.2,8.4c-3.9,0-6.3-2.4-6.3-6.3c0-4.6,3.5-8.2,8.2-8.2
						C189.2,41.8,191.8,44.1,191.8,47.9z M188,47.9c0-1.8-0.6-3.3-2.7-3.3c-2.8,0-4.3,3.1-4.3,5.6c0,1.8,0.8,3.2,2.8,3.2
						C186.6,53.5,188,50.3,188,47.9z"/>
					<path class="st1" d="M203.1,45.1c-0.9-0.3-1.9-0.6-3-0.6s-2.4,0.3-2.4,1.4c0,1.7,4.7,2.4,4.7,5.8c0,3.6-3.1,4.7-6.2,4.7
						c-1.4,0-2.9-0.2-4.2-0.8l0.8-2.9c1,0.6,2,1.1,3.4,1.1c1.2,0,2.5-0.4,2.5-1.5c0-2.2-4.7-2.4-4.7-5.9c0-3.2,3.1-4.4,6-4.4
						c1.3,0,2.7,0.2,3.9,0.6L203.1,45.1z"/>
					<path class="st1" d="M219.7,53.9L219.7,53.9c-1.3,1.6-2.5,2.4-4.5,2.4c-2.5,0-4.3-1.4-4.3-3.9c0-4.6,5.1-4.9,8.5-4.9h1.3
						c0.1-0.4,0.1-0.8,0.1-1.2c0-1.4-1.5-1.8-2.8-1.8c-1.6,0-3.1,0.4-4.5,1.1l0.5-2.9c1.5-0.5,3.1-0.8,4.7-0.8c2.8,0,5.4,1,5.4,4.3
						c0,1.9-1.4,7.3-1.7,9.9h-3L219.7,53.9z M216.2,53.7c2.7,0,3.5-1.9,4.1-4.1H219c-1.7,0-4.6,0.3-4.6,2.6
						C214.3,53.2,215.3,53.7,216.2,53.7z"/>
					<path class="st1" d="M234.8,54.2L234.8,54.2c-0.9,1.4-2.3,2.1-4.2,2.1c-3.3,0-4.8-2.7-4.8-5.7c0-4.1,2.3-8.7,7-8.7
						c2,0,3.4,0.6,4.1,2.6h0.1l0.5-2.3h3.5c-0.2,0.5-0.4,1.3-0.6,2.4l-3.6,17.1h-3.6L234.8,54.2z M231.8,53.5c2.6,0,4.2-3.1,4.2-5.6
						c0-1.6-0.8-3.3-2.6-3.3c-2.6,0-3.8,3.5-3.8,5.6C229.6,51.6,230,53.5,231.8,53.5z"/>
					<path class="st1" d="M254.2,54c-0.2,0.8-0.3,1.6-0.3,2h-3.5l0.2-1.3h-0.1c-1,0.9-2.4,1.7-3.9,1.7c-2.7,0-4.5-1.7-4.5-4.4
						c0-1,0.3-2.1,0.5-3l1.4-6.7h3.6l-1.3,6.5c-0.2,0.9-0.4,1.9-0.4,2.9c0,1.2,0.8,1.9,2,1.9c2.5,0,3.4-2.3,3.9-4.4l1.5-7h3.6
						L254.2,54z"/>
					<path class="st1" d="M260,42.2h3.6l-3,13.8H257L260,42.2z M262.2,36.4h3.6l-3.4,3.9H260L262.2,36.4z"/>
					<path class="st1" d="M270,52.2l-0.8,3.8h-3.8l0.8-3.8H270z M269.1,37.2h4.2l-3.4,13.2h-3L269.1,37.2z"/>
				</g>
			</g>
		</g>
	</g>
</g>
</svg>
