<?xml version="1.0" encoding="UTF-8"?>
<svg id="TODO" xmlns="http://www.w3.org/2000/svg" viewBox="0 0 100.92 100.92">
  <defs>
    <style>
      .cls-1 {
        fill: #e63e39;
      }

      .cls-2 {
        fill: #fff;
      }
    </style>
  </defs>
  <path class="cls-2" d="m43.93,58.46c5.5-2.85,10.96-5.68,16.48-8.55-5.53-2.89-10.99-5.73-16.48-8.6v17.15Z"/>
  <path class="cls-2" d="m50.46,6.91C26.45,6.91,6.91,26.45,6.91,50.46s19.54,43.55,43.55,43.55,43.55-19.54,43.55-43.55S74.48,6.91,50.46,6.91Zm24.84,57.88c-.61,1.31-1.6,2.23-2.87,2.9-3.41,1.79-38.55,1.77-43.04.29-2-.66-3.35-1.97-4.08-3.96-1.76-4.85-2.29-25.14,1.11-29.14,1.16-1.37,2.66-2.17,4.44-2.36,9.15-.98,37.44-.84,40.7.33,1.91.69,3.26,1.94,4,3.85,1.93,5.01,2,23.26-.26,28.09Z"/>
  <path class="cls-1" d="m50.46,0C22.59,0,0,22.59,0,50.46s22.59,50.46,50.46,50.46,50.46-22.59,50.46-50.46S78.33,0,50.46,0Zm0,94.02c-24.02,0-43.55-19.54-43.55-43.55S26.45,6.91,50.46,6.91s43.55,19.54,43.55,43.55-19.54,43.55-43.55,43.55Z"/>
  <path class="cls-1" d="m71.55,32.85c-3.26-1.17-31.55-1.31-40.7-.33-1.78.19-3.27.99-4.44,2.36-3.4,4-2.87,24.29-1.11,29.14.72,1.99,2.07,3.3,4.08,3.96,4.49,1.48,39.63,1.5,43.04-.29,1.26-.66,2.26-1.59,2.87-2.9,2.25-4.83,2.19-23.07.26-28.09-.74-1.91-2.09-3.16-4-3.85Zm-27.63,25.61v-17.15c5.5,2.87,10.95,5.71,16.48,8.6-5.52,2.86-10.98,5.69-16.48,8.55Z"/>
</svg>