<?xml version="1.0" encoding="UTF-8"?>
<svg id="TODO" xmlns="http://www.w3.org/2000/svg" viewBox="0 0 100.92 100.92">
  <defs>
    <style>
      .cls-1 {
        fill: #fff;
      }

      .cls-2 {
        fill: #292759;
      }
    </style>
  </defs>
  <g>
    <circle class="cls-1" cx="50.46" cy="50.46" r="46.52" transform="translate(-20.9 50.46) rotate(-45)"/>
    <path class="cls-2" d="m50.46,0C22.59,0,0,22.59,0,50.46s22.59,50.46,50.46,50.46,50.46-22.59,50.46-50.46S78.33,0,50.46,0Zm0,94.02c-24.02,0-43.55-19.54-43.55-43.55S26.45,6.91,50.46,6.91s43.55,19.54,43.55,43.55-19.54,43.55-43.55,43.55Z"/>
  </g>
  <g>
    <path class="cls-2" d="m50.46,81.09c-9.15,0-17.74-4.05-23.6-11.12-.12-.12-.23-.26-.33-.4-4.33-5.41-6.71-12.19-6.71-19.11s2.38-13.7,6.71-19.11c.1-.15.21-.28.33-.4,5.85-7.07,14.45-11.12,23.6-11.12,9.15,0,17.74,4.05,23.6,11.12.12.12.23.26.33.4,4.33,5.41,6.71,12.19,6.71,19.11s-2.39,13.71-6.72,19.12c-.1.14-.2.27-.32.39-5.85,7.07-14.45,11.12-23.6,11.12Zm0-59.06c-8.51,0-16.5,3.78-21.94,10.36-.03.03-.05.06-.08.09-.03.03-.06.06-.08.1-.02.04-.05.07-.07.1-4.09,5.1-6.26,11.24-6.26,17.77s2.16,12.68,6.26,17.77c.03.03.05.07.07.1.02.04.05.07.08.1.03.03.06.06.08.09,5.44,6.59,13.43,10.36,21.94,10.36h0c8.51,0,16.5-3.78,21.94-10.36.03-.03.05-.06.08-.09.02-.02.04-.05.08-.1.02-.03.04-.07.07-.1,4.04-5.03,6.27-11.34,6.27-17.78s-2.16-12.68-6.26-17.77c-.03-.03-.05-.07-.07-.1-.02-.04-.05-.07-.08-.1-.03-.03-.06-.06-.08-.09-5.44-6.59-13.43-10.36-21.94-10.36Z"/>
    <path class="cls-2" d="m50.46,76.7h0c-.9,0-1.73-.41-2.34-1.15-2.04-2.48-4.8-6.29-6.97-10.9,3.15-.84,6.26-1.27,9.31-1.27s6.16.43,9.31,1.27c-2.17,4.62-4.93,8.42-6.97,10.9-.61.74-1.44,1.15-2.34,1.15Z"/>
    <path class="cls-2" d="m50.46,60.08c-3.48,0-7.02.5-10.6,1.5-1.1-2.94-1.89-6.14-2.1-9.47h25.4c-.2,3.34-.99,6.53-2.1,9.47-3.58-1-7.12-1.5-10.6-1.5Z"/>
    <path class="cls-2" d="m24.28,52.11h10.19c.2,3.7,1.05,7.23,2.26,10.47-2.47.88-4.95,1.99-7.45,3.34-2.87-3.92-4.68-8.67-5-13.81Z"/>
    <path class="cls-2" d="m29.27,35.01c2.49,1.34,4.98,2.46,7.45,3.34-1.2,3.24-2.06,6.77-2.26,10.47h-10.19c.32-5.14,2.13-9.89,5-13.81Z"/>
    <path class="cls-2" d="m50.46,24.22h0c.9,0,1.73.41,2.34,1.15,2.04,2.48,4.8,6.29,6.97,10.9-3.15.84-6.26,1.27-9.31,1.27s-6.16-.43-9.31-1.27c2.17-4.62,4.93-8.42,6.97-10.9.61-.74,1.44-1.15,2.34-1.15Z"/>
    <path class="cls-2" d="m50.46,40.84c3.48,0,7.02-.5,10.6-1.5,1.1,2.94,1.9,6.14,2.1,9.47h-25.4c.2-3.34.99-6.53,2.1-9.47,3.58,1,7.12,1.5,10.6,1.5Z"/>
    <path class="cls-2" d="m76.65,48.82h-10.19c-.2-3.7-1.05-7.23-2.26-10.47,2.47-.88,4.95-2,7.45-3.34,2.87,3.92,4.68,8.67,5,13.81Z"/>
    <path class="cls-2" d="m66.46,52.11h10.19c-.32,5.14-2.13,9.89-5,13.81-2.49-1.34-4.98-2.46-7.45-3.34,1.2-3.24,2.06-6.77,2.26-10.47Z"/>
    <path class="cls-2" d="m69.49,32.42c-2.2,1.15-4.38,2.11-6.55,2.88-1.9-4.15-4.25-7.69-6.26-10.32,4.97,1.21,9.4,3.85,12.81,7.45Z"/>
    <path class="cls-2" d="m44.24,24.97c-2.01,2.63-4.36,6.17-6.26,10.32-2.17-.76-4.35-1.72-6.55-2.88,3.42-3.6,7.84-6.23,12.81-7.45Z"/>
    <path class="cls-2" d="m31.43,68.5c2.2-1.15,4.38-2.11,6.55-2.88,1.9,4.15,4.25,7.69,6.26,10.32-4.97-1.21-9.4-3.85-12.81-7.45Z"/>
    <path class="cls-2" d="m56.68,75.95c2.01-2.63,4.36-6.17,6.26-10.32,2.17.76,4.35,1.72,6.55,2.88-3.42,3.6-7.84,6.23-12.81,7.45Z"/>
  </g>
</svg>