<?xml version="1.0" encoding="UTF-8"?>
<svg id="TODO" xmlns="http://www.w3.org/2000/svg" viewBox="0 0 100.92 100.92">
  <defs>
    <style>
      .cls-1 {
        fill: #fff;
      }

      .cls-2 {
        fill: #28519d;
      }
    </style>
  </defs>
  <path class="cls-2" d="m57.24,20.85c-2.88.06-5.6.76-7.98,2.47-2.73,1.96-4.22,4.72-4.79,7.97-.24,1.34-.3,2.73-.33,4.1-.05,2.14-.01,4.28,0,6.43v.8h-9.14v10.66h9.08v26.81h11.1v-26.76h9.05c.46-3.55.92-7.06,1.39-10.71-.73,0-1.38,0-2.04,0-2.57.01-8.48,0-8.48,0,0,0,.03-5.29.09-7.58.09-3.14,1.95-4.1,4.47-4.19,1.83-.06,3.67-.01,5.51-.02h.76v-9.55c-.98-.1-2.01-.24-3.03-.29-1.88-.08-3.77-.18-5.65-.13Z"/>
  <g>
    <path class="cls-1" d="m94.02,50.46c0-24.02-19.54-43.55-43.55-43.55S6.91,26.45,6.91,50.46s19.54,43.55,43.55,43.55,43.55-19.54,43.55-43.55Zm-28.09-19.64h-.76c-1.84,0-3.67-.04-5.51.02-2.52.09-4.38,1.05-4.47,4.19-.06,2.29-.09,7.58-.09,7.58,0,0,5.91.01,8.48,0,.65,0,1.31,0,2.04,0-.48,3.66-.93,7.17-1.39,10.71h-9.05v26.76h-11.1v-26.81h-9.08v-10.66h9.14v-.8c0-2.14-.05-4.29,0-6.43.03-1.36.1-2.75.33-4.1.57-3.25,2.07-6.01,4.79-7.97,2.38-1.7,5.1-2.41,7.98-2.47,1.88-.04,3.77.05,5.65.13,1.03.05,2.05.19,3.03.29v9.55Z"/>
    <path class="cls-2" d="m50.46,0C22.59,0,0,22.59,0,50.46s22.59,50.46,50.46,50.46,50.46-22.59,50.46-50.46S78.33,0,50.46,0ZM6.91,50.46C6.91,26.45,26.45,6.91,50.46,6.91s43.55,19.54,43.55,43.55-19.54,43.55-43.55,43.55S6.91,74.48,6.91,50.46Z"/>
  </g>
</svg>