<?xml version="1.0" encoding="utf-8"?>
<!-- Generator: Adobe Illustrator 27.7.0, SVG Export Plug-In . SVG Version: 6.00 Build 0)  -->
<svg version="1.1" id="botones" xmlns="http://www.w3.org/2000/svg" xmlns:xlink="http://www.w3.org/1999/xlink" x="0px" y="0px"
	 viewBox="0 0 345 106" style="enable-background:new 0 0 345 106;" xml:space="preserve">
<style type="text/css">
	.st0{fill:#F98213;}
	.st1{fill:#FFFFFF;}
</style>
<g>
	
		<image style="overflow:visible;opacity:0.7;enable-background:new    ;" width="335" height="117" xlink:href="51EA0EE7B9A6CD38.png"  transform="matrix(0.9964 0 0 0.9964 17.0471 -3.344)">
	</image>
	<g>
		<g>
			<path class="st0" d="M36.4,22.9h239.4c6.3,0,11.3,4,11.3,9v35.6c0,5-5.1,9-11.3,9H36.4c-6.3,0-11.3-4-11.3-9V31.9
				C25.1,27,30.1,22.9,36.4,22.9z"/>
			<g>
				<g>
					<ellipse class="st1" cx="292" cy="49.3" rx="46.2" ry="46.2"/>
					<path class="st0" d="M292,98.5c-27.1,0-49.2-22.1-49.2-49.2S264.9,0.1,292,0.1s49.2,22.1,49.2,49.2S319.1,98.5,292,98.5z
						 M292,6.1c-23.8,0-43.2,19.4-43.2,43.2s19.4,43.2,43.2,43.2s43.2-19.4,43.2-43.2S315.8,6.1,292,6.1z"/>
					<g>
						<g>
							<g>
								<path class="st0" d="M292.2,16.3c-18.2,0-33,14.8-33,33s14.8,33,33,33s33-14.8,33-33S310.4,16.3,292.2,16.3z M307.3,63.9
									c-0.6,1-1.9,1.3-2.8,0.7c-7.7-4.7-17.5-5.8-28.9-3.2c-1.1,0.3-2.2-0.4-2.5-1.5s0.4-2.2,1.5-2.5c12.6-2.9,23.3-1.6,32,3.7
									C307.6,61.6,307.9,62.9,307.3,63.9z M311.4,54.9c-0.7,1.2-2.3,1.6-3.5,0.8c-8.9-5.4-22.4-7-32.8-3.8
									c-1.4,0.4-2.8-0.4-3.2-1.7c-0.4-1.4,0.4-2.8,1.7-3.2c12-3.6,26.8-1.9,37,4.4C311.7,52.1,312.1,53.7,311.4,54.9z M311.7,45.6
									c-10.6-6.3-28.1-6.9-38.3-3.8c-1.6,0.5-3.4-0.4-3.8-2.1c-0.5-1.6,0.4-3.4,2.1-3.8c11.6-3.5,31-2.9,43.2,4.4
									c1.5,0.9,1.9,2.8,1.1,4.2C315.1,45.9,313.2,46.4,311.7,45.6z"/>
							</g>
						</g>
					</g>
					<path class="st1" d="M307.3,63.9c-0.6,1-1.9,1.3-2.8,0.7c-7.7-4.7-17.5-5.8-28.9-3.2c-1.1,0.3-2.2-0.4-2.5-1.5s0.4-2.2,1.5-2.5
						c12.6-2.9,23.3-1.6,32,3.7C307.6,61.6,307.9,62.9,307.3,63.9z"/>
					<path class="st1" d="M311.4,54.9c-0.7,1.2-2.3,1.6-3.5,0.8c-8.9-5.4-22.4-7-32.8-3.8c-1.4,0.4-2.8-0.4-3.2-1.7
						c-0.4-1.4,0.4-2.8,1.7-3.2c12-3.6,26.8-1.9,37,4.4C311.7,52.1,312.1,53.7,311.4,54.9z"/>
					<path class="st1" d="M311.7,45.6c-10.6-6.3-28.1-6.9-38.3-3.8c-1.6,0.5-3.4-0.4-3.8-2.1c-0.5-1.6,0.4-3.4,2.1-3.8
						c11.6-3.5,31-2.9,43.2,4.4c1.5,0.9,1.9,2.8,1.1,4.2C315.1,45.9,313.2,46.4,311.7,45.6z"/>
				</g>
			</g>
			<g>
				<path class="st1" d="M71.3,47.6c0,3.1-1.1,6-3.1,8.3c-2,2.2-4.8,3.1-7.9,3.1c-4.6,0-7.4-3.3-7.4-7.8c0-3,1-5.9,3-8.1
					c2-2.3,4.6-3.5,7.7-3.5C68.6,39.7,71.3,42.6,71.3,47.6z M56.7,51.5c0,2.4,1.2,4.6,3.9,4.6c4.3,0,6.7-5.2,6.7-8.9
					c0-2.5-1.3-4.6-4-4.6C59,42.6,56.7,47.7,56.7,51.5z"/>
				<path class="st1" d="M82.3,46.7c0.1-0.7,0.2-1.2,0.3-1.8H86l-0.4,1.8h0.1c1-1.5,2.3-2.1,4.2-2.1c3.4,0,5.1,2.3,5.1,5.6
					c0,4.3-2.4,8.9-7.2,8.9c-1.6,0-3.2-0.5-3.8-2.5h-0.1l-1.6,7.8h-3.6L82.3,46.7z M88.6,47.4c-2.4,0-3.8,3.2-3.8,5.6
					c0,1.8,0.6,3.2,2.4,3.2c3,0,4-3.8,4-5.9C91.2,48.6,90.3,47.4,88.6,47.4z"/>
				<path class="st1" d="M111.4,50.6c0,4.9-3.4,8.4-8.2,8.4c-3.9,0-6.3-2.4-6.3-6.3c0-4.6,3.5-8.2,8.2-8.2
					C108.8,44.6,111.4,46.8,111.4,50.6z M107.6,50.7c0-1.8-0.6-3.3-2.7-3.3c-2.8,0-4.3,3.1-4.3,5.6c0,1.8,0.8,3.2,2.8,3.2
					C106.2,56.3,107.6,53,107.6,50.7z"/>
				<path class="st1" d="M115.2,46.7c0.1-0.6,0.2-1.2,0.3-1.9h3.4l-0.5,2.6h0.1c0.6-1.5,2.4-2.9,4.1-2.9c0.5,0,0.9,0,1.4,0.1
					l-0.8,3.5c-0.4-0.1-0.9-0.2-1.4-0.2c-2.6,0-3.8,2.3-4.2,4.5l-1.3,6.2h-3.6L115.2,46.7z"/>
				<path class="st1" d="M144,43.6c-1.1-0.6-2.5-1-3.9-1c-1.3,0-3.1,0.5-3.1,2.1c0,3,6.4,2.8,6.4,8c0,4.6-3.6,6.3-7.7,6.3
					c-1.8,0-3.7-0.4-5.3-1l1-3.2c1.4,0.7,3,1.3,4.6,1.3c1.8,0,3.6-0.9,3.6-2.9c0-3.4-6.4-2.8-6.4-7.8c0-3.9,3.4-5.7,7-5.7
					c1.6,0,3.3,0.2,4.9,0.8L144,43.6z"/>
				<path class="st1" d="M148,46.7c0.1-0.7,0.2-1.2,0.3-1.8h3.4l-0.4,1.8h0.1c1-1.5,2.3-2.1,4.2-2.1c3.4,0,5.1,2.3,5.1,5.6
					c0,4.3-2.4,8.9-7.2,8.9c-1.6,0-3.2-0.5-3.8-2.5h-0.1l-1.6,7.8h-3.6L148,46.7z M154.3,47.4c-2.4,0-3.8,3.2-3.8,5.6
					c0,1.8,0.6,3.2,2.4,3.2c3,0,4-3.8,4-5.9C156.8,48.6,156,47.4,154.3,47.4z"/>
				<path class="st1" d="M177,50.6c0,4.9-3.4,8.4-8.2,8.4c-3.9,0-6.3-2.4-6.3-6.3c0-4.6,3.5-8.2,8.2-8.2
					C174.4,44.6,177,46.8,177,50.6z M173.2,50.7c0-1.8-0.6-3.3-2.7-3.3c-2.8,0-4.3,3.1-4.3,5.6c0,1.8,0.8,3.2,2.8,3.2
					C171.9,56.3,173.2,53,173.2,50.7z"/>
				<path class="st1" d="M179.8,44.9h2.6L183,42l3.9-1.3l-0.9,4.1h3.2l-0.6,2.6h-3.2l-1.3,6c-0.1,0.3-0.2,0.8-0.2,1.3
					c0,0.8,0.6,1.3,1.4,1.3c0.6,0,1.3-0.1,1.7-0.3l-0.6,2.8c-0.6,0.1-1.3,0.3-1.9,0.3c-2.4,0-4.2-1-4.2-3.6c0-1.1,0.2-2.1,0.5-3.2
					l1-4.7h-2.6L179.8,44.9z"/>
				<path class="st1" d="M191.7,44.9h3.6l-3,13.8h-3.6L191.7,44.9z M193.1,38.9h3.6l-0.8,3.4h-3.6L193.1,38.9z"/>
				<path class="st1" d="M199.9,47.5h-2.8l0.6-2.6h2.8c0.7-3.5,1.9-6.6,6.1-6.6c0.8,0,1.6,0.2,2.2,0.3l-0.8,2.7
					c-0.3-0.2-0.7-0.2-1.1-0.2c-2,0-2.4,2.4-2.8,3.8h3.2l-0.6,2.6h-3.2l-2.4,11.2h-3.6L199.9,47.5z"/>
				<path class="st1" d="M211.6,44.9l1.3,10.3h0.1l5.5-10.3h3.9L213,60.8c-1.1,1.9-2.5,3.9-5.5,3.9c-0.9,0-1.8-0.1-2.7-0.4l0.8-2.7
					c0.4,0.2,0.9,0.3,1.6,0.3c1.1,0,1.9-0.5,3.1-2.5l-2.4-14.5C207.9,44.9,211.6,44.9,211.6,44.9z"/>
			</g>
		</g>
	</g>
</g>
</svg>
