<?xml version="1.0" encoding="UTF-8"?>
<svg id="TODO" xmlns="http://www.w3.org/2000/svg" viewBox="0 0 100.92 100.92">
  <defs>
    <style>
      .cls-1 {
        fill: none;
      }

      .cls-2 {
        fill: #fff;
      }

      .cls-3 {
        fill: #2a2559;
      }

      .cls-4 {
        fill: #292759;
      }
    </style>
  </defs>
  <g>
    <circle class="cls-2" cx="50.46" cy="50.46" r="46.52" transform="translate(-17.21 27.8) rotate(-26.48)"/>
    <path class="cls-4" d="m50.46,0C22.59,0,0,22.59,0,50.46s22.59,50.46,50.46,50.46,50.46-22.59,50.46-50.46S78.33,0,50.46,0Zm0,94.02c-24.02,0-43.55-19.54-43.55-43.55S26.45,6.91,50.46,6.91s43.55,19.54,43.55,43.55-19.54,43.55-43.55,43.55Z"/>
  </g>
  <g>
    <rect class="cls-2" x="21.98" y="30.81" width="56.97" height="33.77"/>
    <g>
      <g>
        <g>
          <rect class="cls-1" x="21.98" y="31.14" width="28.48" height="33.44"/>
          <rect class="cls-1" x="50.46" y="31.14" width="28.49" height="33.44"/>
          <path class="cls-3" d="m41.23,71.3c-.56,0-1.02-.45-1.02-1.01s.45-1.02,1.02-1.02h9.23v-1.16H15.38s0,.02,0,.03c0,2.39,1.22,4.32,2.73,4.32h32.35v-1.16h-9.23Z"/>
          <path class="cls-3" d="m50.46,68.11v1.16h9.23c.56,0,1.01.45,1.01,1.02s-.45,1.01-1.01,1.01h-9.23v1.16h32.35c1.51,0,2.73-1.94,2.73-4.32v-.03h-35.08Z"/>
          <path class="cls-3" d="m82.01,63.23v-30.74c0-2.22-1.63-4.03-3.64-4.03h-27.9v2.68h28.49v33.44h-28.49v2.68h27.9c2.01,0,3.64-1.8,3.64-4.03Z"/>
          <path class="cls-3" d="m21.98,64.58V31.14h28.48v-2.68h-27.9c-2.01,0-3.64,1.8-3.64,4.03v30.74c0,2.22,1.63,4.03,3.64,4.03h27.9v-2.68h-28.48Z"/>
        </g>
        <path class="cls-2" d="m51.47,29.79c0,.56-.45,1.01-1.02,1.01s-1.01-.45-1.01-1.01.45-1.01,1.01-1.01,1.02.45,1.02,1.01Z"/>
      </g>
      <g>
        <path class="cls-3" d="m26.38,43.27c.58.3,1.53.59,2.47.59.88,0,1.3-.3,1.3-.78s-.42-.73-1.5-1.1c-1.61-.56-2.67-1.45-2.67-2.87,0-1.68,1.41-2.98,3.81-2.98,1.14,0,1.95.21,2.59.49l-.54,2.03c-.41-.18-1.12-.45-2.08-.45-.78,0-1.2.28-1.2.71,0,.48.51.68,1.71,1.13,1.71.62,2.49,1.54,2.49,2.87,0,1.64-1.29,3.04-4.07,3.04-1.14,0-2.26-.3-2.8-.58l.48-2.1Z"/>
        <path class="cls-3" d="m34.05,45.81v-6.95h2.54v6.95h-2.54Zm3.73-9.97l-1.72,2.2h-1.74l1.21-2.2h2.25Z"/>
        <path class="cls-3" d="m38.18,41.22c0-.92-.03-1.72-.06-2.36h2.19l.11.89h.06c.25-.37.92-1.05,2.08-1.05,1.62,0,2.5,1.1,2.5,3.01v4.1h-2.54v-3.79c0-.81-.28-1.27-.89-1.27-.49,0-.72.34-.83.61-.06.13-.07.32-.07.51v3.94h-2.54v-4.59Z"/>
        <path class="cls-3" d="m49.32,36.89v1.98h1.44v1.86h-1.44v1.99c0,.83.2,1.17.81,1.17.27,0,.47-.03.61-.06v1.94c-.3.1-.86.18-1.51.18-.75,0-1.37-.25-1.74-.62-.42-.42-.65-1.12-.65-2.18v-2.43h-.86v-1.86h.86v-1.41l2.49-.57Z"/>
        <path class="cls-3" d="m53.94,43.23c.08.55.89.86,1.78.86.66,0,1.29-.07,1.91-.27l.32,1.7c-.83.34-1.74.44-2.6.44-2.44,0-3.83-1.34-3.83-3.55,0-1.62,1.05-3.7,3.6-3.7,2.25,0,3.21,1.65,3.21,3.56,0,.42-.06.79-.1.96h-4.29Zm2.05-1.72c0-.4-.18-1.13-.99-1.13-.75,0-1.05.69-1.09,1.13h2.08Z"/>
        <path class="cls-3" d="m59.55,43.68c.4.24,1.3.52,1.94.52.54,0,.75-.13.75-.38s-.16-.37-.9-.61c-1.53-.48-2.05-1.31-2.03-2.12,0-1.38,1.17-2.39,2.99-2.39.86,0,1.62.18,2.08.4l-.41,1.72c-.32-.16-.97-.38-1.54-.38-.44,0-.69.11-.69.4,0,.23.23.37,1.05.64,1.37.45,1.89,1.16,1.91,2.16,0,1.33-1.03,2.32-3.18,2.32-.96,0-1.82-.2-2.37-.48l.42-1.79Z"/>
        <path class="cls-3" d="m68.43,36.94c0,.68-.51,1.21-1.31,1.21s-1.29-.54-1.29-1.21.51-1.2,1.3-1.2,1.29.51,1.3,1.2Zm-2.57,8.87v-6.95h2.54v6.95h-2.54Z"/>
        <path class="cls-3" d="m70.04,43.68c.4.24,1.3.52,1.94.52.54,0,.75-.13.75-.38s-.16-.37-.9-.61c-1.53-.48-2.05-1.31-2.03-2.12,0-1.38,1.17-2.39,2.99-2.39.86,0,1.62.18,2.08.4l-.41,1.72c-.32-.16-.97-.38-1.54-.38-.44,0-.69.11-.69.4,0,.23.23.37,1.05.64,1.37.45,1.89,1.16,1.91,2.16,0,1.33-1.03,2.32-3.18,2.32-.96,0-1.82-.2-2.37-.48l.42-1.79Z"/>
      </g>
      <g>
        <path class="cls-3" d="m26.08,49.76v6.67h-1.79v-6.67h1.79Z"/>
        <path class="cls-3" d="m27.25,53.21c0-.64-.02-1.21-.04-1.65h1.53l.08.62h.04c.18-.26.64-.73,1.46-.73,1.14,0,1.75.77,1.75,2.11v2.87h-1.78v-2.65c0-.56-.2-.89-.62-.89-.35,0-.5.24-.58.43-.04.09-.05.23-.05.36v2.76h-1.78v-3.22Z"/>
        <path class="cls-3" d="m33.39,56.43v-3.56h-.62v-1.31h.62v-.17c0-.53.19-1.2.63-1.59.41-.38.96-.5,1.42-.5.34,0,.59.03.82.09l-.04,1.37c-.13-.04-.28-.06-.46-.06-.39,0-.6.28-.6.63v.24h.89v1.31h-.87v3.56h-1.79Z"/>
        <path class="cls-3" d="m41.66,53.95c0,1.77-1.27,2.59-2.63,2.59-1.46,0-2.58-.93-2.58-2.51s1.02-2.57,2.68-2.57c1.52,0,2.53,1.03,2.53,2.49Zm-3.38.05c0,.72.24,1.29.79,1.29.48,0,.74-.5.74-1.29,0-.67-.22-1.29-.75-1.29-.58,0-.78.64-.78,1.29Z"/>
        <path class="cls-3" d="m42.53,53.2c0-.77-.02-1.24-.04-1.64h1.52l.06.88h.04c.26-.74.88-.99,1.3-.99.16,0,.23,0,.36.03v1.67c-.13-.03-.27-.05-.46-.05-.52,0-.88.22-.97.61-.02.09-.03.19-.03.31v2.41h-1.78v-3.23Z"/>
        <path class="cls-3" d="m46.48,53.21c0-.64-.02-1.21-.04-1.65h1.49l.07.6h.04c.18-.24.6-.71,1.44-.71.62,0,1.11.29,1.32.77h.02c.2-.25.42-.45.67-.57.25-.13.53-.2.86-.2,1.05,0,1.65.76,1.65,2.11v2.87h-1.73v-2.6c0-.6-.18-.95-.57-.95-.29,0-.47.19-.54.42-.04.1-.05.26-.05.36v2.78h-1.73v-2.65c0-.54-.17-.9-.56-.9-.33,0-.48.24-.54.41-.05.11-.05.24-.05.36v2.79h-1.73v-3.22Z"/>
        <path class="cls-3" d="m57.9,56.43l-.1-.43h-.03c-.35.39-.83.53-1.36.53-.99,0-1.6-.72-1.6-1.53,0-1.31,1.17-1.88,2.82-1.89v-.04c0-.2-.15-.42-.79-.42-.51,0-1.06.18-1.38.37l-.32-1.14c.32-.16,1.01-.44,2.02-.44,1.67,0,2.26.93,2.26,2.15v1.64c0,.49.02.94.08,1.19h-1.6Zm-.21-2.23c-.72,0-1.14.21-1.14.63,0,.31.21.47.5.47.26,0,.53-.18.61-.45.02-.08.02-.17.02-.26v-.4Z"/>
        <path class="cls-3" d="m62.38,50.17v1.39h1.01v1.31h-1.01v1.4c0,.58.14.82.56.82.19,0,.33-.02.43-.04v1.36c-.21.07-.6.13-1.06.13-.52,0-.96-.18-1.22-.44-.3-.3-.46-.78-.46-1.52v-1.7h-.6v-1.31h.6v-.99l1.74-.4Z"/>
        <path class="cls-3" d="m66.03,50.21c0,.48-.36.85-.92.85s-.9-.38-.9-.85.36-.84.91-.84.9.36.91.84Zm-1.8,6.22v-4.87h1.78v4.87h-1.78Z"/>
        <path class="cls-3" d="m68.58,51.56l.52,2.07c.1.39.17.76.23,1.15h.03c.06-.4.12-.74.22-1.15l.49-2.07h1.87l-1.77,4.87h-1.79l-1.73-4.87h1.94Z"/>
        <path class="cls-3" d="m75.29,56.43l-.1-.43h-.03c-.35.39-.83.53-1.36.53-.99,0-1.6-.72-1.6-1.53,0-1.31,1.17-1.88,2.82-1.89v-.04c0-.2-.15-.42-.79-.42-.51,0-1.06.18-1.38.37l-.32-1.14c.32-.16,1.01-.44,2.02-.44,1.67,0,2.26.93,2.26,2.15v1.64c0,.49.02.94.08,1.19h-1.6Zm-.21-2.23c-.72,0-1.14.21-1.14.63,0,.31.21.47.5.47.26,0,.53-.18.61-.45.02-.08.02-.17.02-.26v-.4Z"/>
      </g>
    </g>
  </g>
</svg>