<?xml version="1.0" encoding="UTF-8"?>
<svg id="botones" xmlns="http://www.w3.org/2000/svg" xmlns:xlink="http://www.w3.org/1999/xlink" viewBox="0 0 423.08 93.14">
  <defs>
    <style>
      .cls-1 {
        fill: #f4a45e;
      }

      .cls-2 {
        fill: #fff;
      }

      .cls-3, .cls-4 {
        fill: #ff9633;
      }

      .cls-5 {
        fill: none;
        filter: url(#drop-shadow-22);
      }

      .cls-4 {
        stroke: #fff;
        stroke-miterlimit: 10;
        stroke-width: 1.6px;
      }
    </style>
    <filter id="drop-shadow-22" filterUnits="userSpaceOnUse">
      <feOffset dx="8.09" dy="8.09"/>
      <feGaussianBlur result="blur" stdDeviation="4.05"/>
      <feFlood flood-color="#492806" flood-opacity="1"/>
      <feComposite in2="blur" operator="in"/>
      <feComposite in="SourceGraphic"/>
    </filter>
  </defs>
  <g class="cls-5">
    <path class="cls-4" d="m14.68,21.34h350.24c7.66,0,13.88,3.7,13.88,8.25v32.63c0,4.56-6.21,8.25-13.88,8.25H13.76c-7.66,0-6.92-3.7-6.92-8.25V29.59c0-4.56.18-8.25,7.84-8.25Z"/>
    <g>
      <circle class="cls-2" cx="381.15" cy="45.91" r="30.48" transform="translate(142.04 346.25) rotate(-58.34)"/>
      <path class="cls-1" d="m381.15,78.37c-17.9,0-32.46-14.56-32.46-32.46s14.56-32.46,32.46-32.46,32.46,14.56,32.46,32.46-14.56,32.46-32.46,32.46Zm0-60.97c-15.72,0-28.5,12.79-28.5,28.5s12.79,28.5,28.5,28.5,28.5-12.79,28.5-28.5-12.79-28.5-28.5-28.5Z"/>
    </g>
    <g>
      <g>
        <path class="cls-3" d="m372.93,43.55h16.01c-.15,2.2-.57,4.29-1.55,6.24-.55,1.09-1.25,2.06-2.2,2.84-2.73,2.22-6.63,1.95-9.06-.65-1.57-1.68-2.37-3.73-2.82-5.94-.16-.81-.25-1.63-.38-2.49Z"/>
        <path class="cls-3" d="m382.51,36.55v.53h5.94c.06.26.11.49.18.78h-6.06c0,.45,0,.56,0,.56,1.72-.02,3.81,0,5.53,0h.61c.04.27.08.52.13.82h-6.34c0,.3-.01.54,0,.54,1.81-.01,4,0,5.81,0h.6c.02.3.03.55.05.85h-6.41v.52h6.42v1.63h-15.98v-1.82h6.48c0-.28,0-.53,0-.55-1.81.01-4,0-5.81,0h-.63c.03-.3.1-.56.12-.85h6.39c0-.16,0-.31,0-.53h-6.37c.05-.31.16-.54.2-.8h6.16s0-.52,0-.53c-1.69.02-5.83,0-6.04,0,0,0,.21-.78.23-.78,1.77,0,4.02,0,5.8,0,0,0,0-.54,0-.54-1.59.02-5.49,0-5.69,0,0,0,.25-.65.26-.65,1.52.03,3.38.01,4.9.01h.57v-.53h-5.31s.31-.67.36-.67c1.4.03,3.55,0,4.94.02,0,0,0-.14,0-.52h-4.72s.42-.55.42-.55c.25,0,2.59,0,3.78,0,.17,0,.34,0,.54,0v-.52h-4.03s.38-.48.38-.48c1.12,0,2.48,0,3.64,0,0,.02,0-.33,0-.51h-3.11c1.31-2.55,7.4-2.55,9.4.02h-3.29v.53c.65,0,1.3,0,1.95,0,.5,0,1.27,0,1.76,0,0,0,.4.45.47.52h-4.18v.55c1.41,0,3.05,0,4.43,0,.02,0,.44.56.42.56h-4.85c0,.19,0,.37,0,.54.13,0,3.53,0,5.01,0,.01,0,.3.58.31.58h-5.33v.53h3.43c.52,0,1.51-.01,2.02-.01.02,0,.33.72.31.72h-5.77Z"/>
        <path class="cls-3" d="m382.2,56.77v2.81h3.06v1.48h-8.63v-1.46h3.04v-2.85c-.22-.05-.45-.1-.68-.16-2.95-.73-5.06-2.57-6.62-5.1-1.18-1.91-1.83-4-2.08-6.22-.03-.23.01-.45-.34-.52-.84-.18-1.26-.85-1.11-1.64.14-.7.81-1.16,1.54-1.07.75.09,1.16.7,1.18,1.55.09,3.68,1.24,6.95,4.02,9.47,3.21,2.92,7.6,2.9,10.83,0,2.21-1.99,3.37-4.54,3.83-7.43.11-.7.09-1.43.09-2.15,0-.75.48-1.35,1.2-1.44.73-.09,1.39.38,1.53,1.09.14.72-.26,1.46-.97,1.6-.42.08-.46.28-.5.62-.4,3.31-1.62,6.26-4.02,8.64-1.42,1.4-3.09,2.35-5.08,2.7-.1.02-.19.06-.3.1Z"/>
      </g>
      <g>
        <rect class="cls-3" x="365.45" y="37.11" width="1.71" height="15.82" rx=".82" ry=".82"/>
        <rect class="cls-3" x="361.6" y="39.44" width="1.71" height="11.55" rx=".82" ry=".82"/>
        <rect class="cls-3" x="354.15" y="41.61" width="1.71" height="7.29" rx=".82" ry=".82"/>
        <rect class="cls-3" x="357.89" y="34.89" width="1.71" height="21.38" rx=".82" ry=".82"/>
        <rect class="cls-3" x="394.75" y="38.22" width="1.71" height="15.82" rx=".82" ry=".82" transform="translate(791.21 92.27) rotate(180)"/>
        <rect class="cls-3" x="398.6" y="40.16" width="1.71" height="11.55" rx=".82" ry=".82" transform="translate(798.91 91.88) rotate(180)"/>
        <rect class="cls-3" x="406.04" y="42.26" width="1.71" height="7.29" rx=".82" ry=".82" transform="translate(813.8 91.81) rotate(180)"/>
        <rect class="cls-3" x="402.3" y="34.89" width="1.71" height="21.38" rx=".82" ry=".82" transform="translate(806.32 91.16) rotate(180)"/>
      </g>
    </g>
  </g>
  <g>
    <path class="cls-2" d="m19.42,59.64h-3.43l1.89-13.41h3.43l-1.89,13.41Zm.58-14.98c-.58,0-1.08-.2-1.49-.61-.41-.41-.61-.9-.61-1.49s.2-1.07.61-1.48c.41-.41.91-.62,1.49-.62s1.07.21,1.48.62c.41.41.61.91.61,1.48s-.2,1.08-.61,1.49c-.41.41-.9.61-1.48.61Z"/>
    <path class="cls-2" d="m26.25,36.3h9.88l-.42,3.26h-6.41l-.53,3.8h6.44l-.42,3.23h-6.47l-.68,4.87h6.51l-.42,3.21h-10l2.51-18.36Z"/>
    <path class="cls-2" d="m46.25,42.98l-1.59,2.55c-.41-.61-.84-1.06-1.29-1.34s-.87-.43-1.26-.43c-.3,0-.55.08-.76.25-.21.17-.31.35-.31.56s.08.4.25.6c.16.2.64.59,1.44,1.16,1.28.92,2.12,1.7,2.52,2.35s.61,1.36.61,2.13c0,1.01-.41,1.96-1.24,2.86s-2.03,1.35-3.6,1.35c-.91,0-1.73-.18-2.48-.55-.75-.37-1.58-1.04-2.49-2.01l2.06-2.4c.93,1.23,1.95,1.85,3.06,1.85.44,0,.79-.11,1.05-.32.26-.21.39-.46.39-.76,0-.23-.1-.47-.3-.72-.2-.25-.75-.68-1.64-1.32-1.03-.73-1.74-1.36-2.13-1.89-.55-.73-.82-1.51-.82-2.32,0-1.14.43-2.07,1.29-2.78.86-.72,1.88-1.07,3.05-1.07.82,0,1.61.2,2.35.59.74.39,1.36.94,1.85,1.66Z"/>
    <path class="cls-2" d="m62.46,43.89l-2.82,1.53c-.8-1.01-1.87-1.52-3.22-1.52-.91,0-1.71.19-2.41.58-.7.39-1.26.95-1.67,1.68s-.62,1.5-.62,2.32c0,1.05.33,1.89.99,2.52s1.56.95,2.71.95c1.59,0,2.81-.54,3.66-1.61l2.62,1.85c-.74.88-1.66,1.58-2.77,2.08s-2.33.75-3.69.75c-2.11,0-3.78-.58-5-1.75-1.22-1.16-1.83-2.7-1.83-4.62,0-2.19.75-4.06,2.26-5.6,1.51-1.54,3.45-2.32,5.82-2.32,2.67,0,4.67,1.05,5.98,3.16Z"/>
    <path class="cls-2" d="m66.47,41.08h3.3l-.95,6.94c-.1.77-.15,1.34-.15,1.72,0,.6.21,1.1.62,1.51.42.41.96.61,1.62.61.86,0,1.52-.26,1.98-.79.46-.52.8-1.59,1.02-3.2l.93-6.8h3.3l-.97,7.31c-.22,1.65-.6,2.92-1.13,3.83s-1.23,1.6-2.11,2.08c-.88.48-1.91.72-3.09.72-1.67,0-3-.48-3.98-1.44s-1.48-2.2-1.48-3.73c0-.93.11-2.13.33-3.59l.76-5.17Z"/>
    <path class="cls-2" d="m94.17,43.89l-2.82,1.53c-.8-1.01-1.87-1.52-3.22-1.52-.91,0-1.71.19-2.41.58-.7.39-1.26.95-1.67,1.68s-.62,1.5-.62,2.32c0,1.05.33,1.89.99,2.52s1.56.95,2.71.95c1.59,0,2.81-.54,3.66-1.61l2.62,1.85c-.74.88-1.66,1.58-2.77,2.08s-2.33.75-3.69.75c-2.11,0-3.78-.58-5-1.75-1.22-1.16-1.83-2.7-1.83-4.62,0-2.19.75-4.06,2.26-5.6,1.51-1.54,3.45-2.32,5.82-2.32,2.67,0,4.67,1.05,5.98,3.16Z"/>
    <path class="cls-2" d="m98.86,35.84h3.31l-.9,6.62c1.28-1.15,2.6-1.73,3.98-1.73,1.18,0,2.14.37,2.89,1.12.75.75,1.13,1.69,1.13,2.82,0,.53-.07,1.33-.21,2.39l-1.04,7.61h-3.33l1.01-7.43c.1-.77.15-1.34.15-1.72,0-.55-.16-.97-.47-1.27s-.76-.44-1.33-.44-1.12.19-1.67.58c-.56.39-.99.92-1.29,1.61s-.58,1.98-.82,3.87l-.65,4.8h-3.33l2.57-18.83Z"/>
    <path class="cls-2" d="m123.46,41.08h3.34l-1.89,13.58h-3.3l.2-1.46c-.73.67-1.4,1.14-2.03,1.41-.63.27-1.34.4-2.12.4-1.8,0-3.23-.66-4.29-1.99s-1.59-2.86-1.59-4.62c0-1.34.34-2.62,1.02-3.83s1.59-2.16,2.74-2.83c1.15-.68,2.34-1.02,3.6-1.02.84,0,1.61.19,2.32.58.71.39,1.3.95,1.76,1.68l.26-1.91Zm-5.01,10.96c.82,0,1.54-.18,2.15-.55.61-.37,1.12-.94,1.54-1.72.41-.78.62-1.58.62-2.39,0-1.08-.31-1.94-.94-2.6-.62-.65-1.45-.98-2.47-.98-1.19,0-2.2.44-3.03,1.31-.83.87-1.24,2-1.24,3.38,0,1.07.31,1.92.94,2.57s1.44.97,2.42.97Z"/>
    <path class="cls-2" d="m147.49,41.08h3.34l-1.89,13.58h-3.3l.2-1.46c-.73.67-1.4,1.14-2.03,1.41-.63.27-1.34.4-2.12.4-1.8,0-3.23-.66-4.29-1.99s-1.59-2.86-1.59-4.62c0-1.34.34-2.62,1.02-3.83s1.59-2.16,2.74-2.83c1.15-.68,2.34-1.02,3.6-1.02.84,0,1.61.19,2.32.58.71.39,1.3.95,1.76,1.68l.26-1.91Zm-5.01,10.96c.82,0,1.54-.18,2.15-.55.61-.37,1.12-.94,1.54-1.72.41-.78.62-1.58.62-2.39,0-1.08-.31-1.94-.94-2.6-.62-.65-1.45-.98-2.47-.98-1.19,0-2.2.44-3.03,1.31-.83.87-1.24,2-1.24,3.38,0,1.07.31,1.92.94,2.57.63.65,1.44.97,2.42.97Z"/>
    <path class="cls-2" d="m163.72,41.08h3.34l-2.57,18.55h-3.3l.89-6.51c-.68.71-1.31,1.2-1.9,1.48s-1.25.42-1.98.42c-1.69,0-3.03-.66-4.02-1.99-.99-1.32-1.49-2.86-1.49-4.62,0-1.34.32-2.62.96-3.83.64-1.21,1.5-2.16,2.59-2.83,1.08-.68,2.21-1.02,3.39-1.02.79,0,1.52.19,2.19.56s1.22.91,1.66,1.62l.25-1.83Zm-4.63,10.96c.75,0,1.41-.19,1.97-.56s1.03-.96,1.41-1.75c.38-.8.57-1.61.57-2.44,0-1.05-.29-1.9-.86-2.53-.57-.64-1.33-.96-2.27-.96-1.09,0-2.02.44-2.78,1.31s-1.14,2-1.14,3.38c0,1.07.29,1.92.87,2.57.58.65,1.32.97,2.23.97Z"/>
    <path class="cls-2" d="m171.31,41.08h3.3l-.95,6.94c-.1.77-.15,1.34-.15,1.72,0,.6.21,1.1.62,1.51.42.41.96.61,1.62.61.86,0,1.52-.26,1.98-.79.46-.52.8-1.59,1.02-3.2l.93-6.8h3.3l-.97,7.31c-.22,1.65-.6,2.92-1.13,3.83s-1.23,1.6-2.11,2.08c-.88.48-1.91.72-3.09.72-1.67,0-3-.48-3.98-1.44s-1.48-2.2-1.48-3.73c0-.93.11-2.13.33-3.59l.76-5.17Z"/>
    <path class="cls-2" d="m186.17,41.08h3.3l-1.83,13.58h-3.33l1.86-13.58Zm3.38-7.35h4.03l-5.26,4.88h-2.45l3.67-4.88Z"/>
    <path class="cls-2" d="m208.22,50.69l2.93,1.52c-.66.86-1.53,1.55-2.61,2.05-1.09.5-2.29.75-3.61.75-2.07,0-3.71-.58-4.9-1.75-1.19-1.16-1.79-2.71-1.79-4.64,0-2.21.75-4.07,2.24-5.6,1.49-1.53,3.3-2.29,5.41-2.29,1.27,0,2.41.28,3.4.84.99.56,1.78,1.37,2.35,2.43.57,1.07.86,2.22.86,3.47,0,.39-.04.85-.12,1.37h-10.84c.03.94.34,1.7.93,2.26.59.56,1.4.84,2.43.84,1.25,0,2.36-.42,3.32-1.25Zm.85-4.29c-.25-.83-.67-1.46-1.25-1.89-.58-.43-1.29-.64-2.11-.64s-1.55.22-2.21.66c-.66.44-1.16,1.07-1.5,1.87h7.07Z"/>
    <path class="cls-2" d="m216.59,35.84h3.33l-2.57,18.83h-3.33l2.57-18.83Z"/>
    <path class="cls-2" d="m228.78,41.08h2.97l-.24,1.85c.89-1.46,1.96-2.2,3.21-2.2.3,0,.61.08.94.24l-1.22,3.03c-.25-.09-.44-.14-.56-.14-.65,0-1.23.38-1.74,1.13-.51.75-.91,2.27-1.21,4.56l-.66,5.11h-3.35l1.86-13.58Z"/>
    <path class="cls-2" d="m246.05,50.69l2.93,1.52c-.66.86-1.53,1.55-2.61,2.05-1.09.5-2.29.75-3.61.75-2.07,0-3.71-.58-4.9-1.75-1.19-1.16-1.79-2.71-1.79-4.64,0-2.21.75-4.07,2.24-5.6s3.3-2.29,5.41-2.29c1.27,0,2.41.28,3.4.84.99.56,1.78,1.37,2.35,2.43.57,1.07.86,2.22.86,3.47,0,.39-.04.85-.12,1.37h-10.84c.03.94.34,1.7.93,2.26.59.56,1.4.84,2.43.84,1.25,0,2.36-.42,3.32-1.25Zm.85-4.29c-.25-.83-.67-1.46-1.25-1.89-.58-.43-1.29-.64-2.11-.64s-1.55.22-2.21.66c-.66.44-1.16,1.07-1.5,1.87h7.07Z"/>
    <path class="cls-2" d="m261.53,42.98l-1.59,2.55c-.41-.61-.84-1.06-1.29-1.34s-.87-.43-1.26-.43c-.3,0-.55.08-.76.25s-.31.35-.31.56.08.4.25.6c.16.2.64.59,1.44,1.16,1.28.92,2.12,1.7,2.52,2.35s.61,1.36.61,2.13c0,1.01-.41,1.96-1.24,2.86s-2.03,1.35-3.6,1.35c-.91,0-1.73-.18-2.48-.55-.75-.37-1.58-1.04-2.49-2.01l2.06-2.4c.93,1.23,1.95,1.85,3.06,1.85.44,0,.79-.11,1.05-.32.26-.21.39-.46.39-.76,0-.23-.1-.47-.3-.72-.2-.25-.75-.68-1.64-1.32-1.03-.73-1.74-1.36-2.13-1.89-.55-.73-.82-1.51-.82-2.32,0-1.14.43-2.07,1.29-2.78.86-.72,1.88-1.07,3.05-1.07.82,0,1.61.2,2.35.59.74.39,1.36.94,1.85,1.66Z"/>
    <path class="cls-2" d="m265.38,41.08h3.3l-.95,6.94c-.1.77-.15,1.34-.15,1.72,0,.6.21,1.1.62,1.51.42.41.96.61,1.62.61.86,0,1.52-.26,1.98-.79.46-.52.8-1.59,1.02-3.2l.93-6.8h3.3l-.97,7.31c-.22,1.65-.6,2.92-1.13,3.83s-1.23,1.6-2.11,2.08c-.88.48-1.91.72-3.09.72-1.67,0-3-.48-3.98-1.44s-1.48-2.2-1.48-3.73c0-.93.11-2.13.33-3.59l.76-5.17Z"/>
    <path class="cls-2" d="m280.69,41.08h3.34l-.2,1.48c1.21-1.22,2.56-1.83,4.06-1.83.61,0,1.17.1,1.7.31.53.21.96.47,1.29.8.33.32.61.78.84,1.36.62-.8,1.36-1.42,2.2-1.83.84-.42,1.71-.63,2.62-.63,1.14,0,2.08.38,2.83,1.14.75.76,1.12,1.75,1.12,2.97,0,.46-.04,1.03-.12,1.71l-1.12,8.11h-3.33l.95-6.98c.12-.94.19-1.56.19-1.87,0-.64-.16-1.13-.48-1.46-.32-.33-.77-.5-1.36-.5s-1.14.2-1.72.61c-.58.4-1.02.94-1.33,1.61s-.56,1.82-.77,3.45l-.7,5.14h-3.33l1.01-7.39c.08-.6.12-1.11.12-1.54,0-.59-.17-1.06-.51-1.41-.34-.35-.79-.52-1.35-.52s-1.09.19-1.65.56c-.56.37-1,.87-1.32,1.51-.31.64-.56,1.61-.73,2.93l-.76,5.86h-3.33l1.86-13.58Z"/>
    <path class="cls-2" d="m313.04,50.69l2.93,1.52c-.66.86-1.53,1.55-2.61,2.05-1.09.5-2.29.75-3.61.75-2.07,0-3.71-.58-4.9-1.75-1.19-1.16-1.79-2.71-1.79-4.64,0-2.21.75-4.07,2.24-5.6,1.49-1.53,3.3-2.29,5.41-2.29,1.27,0,2.41.28,3.4.84.99.56,1.78,1.37,2.35,2.43.57,1.07.86,2.22.86,3.47,0,.39-.04.85-.12,1.37h-10.84c.03.94.34,1.7.93,2.26.59.56,1.4.84,2.43.84,1.25,0,2.36-.42,3.32-1.25Zm.85-4.29c-.25-.83-.67-1.46-1.25-1.89-.58-.43-1.29-.64-2.11-.64s-1.55.22-2.21.66c-.66.44-1.16,1.07-1.5,1.87h7.07Z"/>
    <path class="cls-2" d="m321.09,41.08h3.33l-.19,1.38c1.27-1.15,2.6-1.73,3.97-1.73,1.17,0,2.14.37,2.89,1.12.75.75,1.12,1.69,1.12,2.82,0,.53-.07,1.33-.21,2.39l-1.04,7.61h-3.33l1.01-7.43c.1-.77.15-1.34.15-1.72,0-.55-.16-.97-.47-1.27-.31-.3-.76-.44-1.33-.44s-1.12.19-1.68.58c-.56.39-.99.92-1.29,1.61s-.58,1.97-.83,3.86l-.64,4.81h-3.33l1.86-13.58Z"/>
    <path class="cls-2" d="m336.67,50.82c.57,0,1.07.2,1.48.61.41.41.62.9.62,1.49s-.21,1.07-.62,1.48c-.41.41-.9.62-1.48.62s-1.08-.21-1.49-.62-.61-.91-.61-1.48.2-1.08.61-1.49.9-.61,1.49-.61Zm.57-14.98h3.43l-1.89,13.41h-3.43l1.89-13.41Z"/>
  </g>
</svg>