<?xml version="1.0" encoding="UTF-8"?>
<svg id="botones" xmlns="http://www.w3.org/2000/svg" xmlns:xlink="http://www.w3.org/1999/xlink" viewBox="0 0 495 87">
  <defs>
    <style>
      .cls-1 {
        fill: #f4a45e;
      }

      .cls-2 {
        fill: #fff;
      }

      .cls-3, .cls-4 {
        fill: #ff9633;
      }

      .cls-4 {
        stroke: #fff;
        stroke-miterlimit: 10;
        stroke-width: 1.92px;
      }

      .cls-5 {
        fill: none;
        filter: url(#drop-shadow-1);
      }
    </style>
    <filter id="drop-shadow-1" filterUnits="userSpaceOnUse">
      <feOffset dx="0" dy="8.4"/>
      <feGaussianBlur result="blur" stdDeviation="4.8"/>
      <feFlood flood-color="#492806" flood-opacity=".75"/>
      <feComposite in2="blur" operator="in"/>
      <feComposite in="SourceGraphic"/>
    </filter>
  </defs>
  <g class="cls-5">
    <path class="cls-4" d="m13.4,9.47h420.29c9.2,0,16.65,4.43,16.65,9.91v39.16c0,5.47-7.46,9.91-16.65,9.91H12.29c-9.2,0-8.31-4.43-8.31-9.91V19.38c0-5.47.22-9.91,9.41-9.91Z"/>
    <g>
      <circle class="cls-2" cx="453.15" cy="38.96" r="36.58" transform="translate(243.75 442.71) rotate(-67.5)"/>
      <path class="cls-1" d="m453.15,77.91c-21.48,0-38.96-17.48-38.96-38.96S431.67,0,453.15,0s38.96,17.48,38.96,38.96-17.48,38.96-38.96,38.96Zm0-73.16c-18.86,0-34.2,15.34-34.2,34.2s15.34,34.2,34.2,34.2,34.2-15.34,34.2-34.2-15.34-34.2-34.2-34.2Z"/>
    </g>
    <g>
      <g>
        <path class="cls-3" d="m443.29,36.13h19.21c-.18,2.64-.68,5.14-1.86,7.49-.66,1.31-1.5,2.48-2.64,3.4-3.28,2.67-7.96,2.33-10.88-.78-1.89-2.01-2.84-4.48-3.38-7.13-.2-.97-.3-1.95-.46-2.99Z"/>
        <path class="cls-3" d="m454.78,27.72v.63h7.13c.07.31.14.58.22.94h-7.28c0,.54,0,.68,0,.68,2.07-.02,4.57,0,6.64,0h.73c.05.33.1.62.16.98h-7.61c0,.36-.02.65,0,.65,2.17-.02,4.8,0,6.97,0h.72c.02.36.04.66.05,1.02h-7.7v.63h7.71v1.96h-19.18v-2.18h7.77c0-.34,0-.64,0-.66-2.17.02-4.8,0-6.97,0h-.75c.03-.36.12-.68.15-1.02h7.67c0-.2,0-.38,0-.64h-7.65c.06-.37.19-.65.24-.96h7.39s0-.63,0-.63c-2.03.02-7,0-7.25,0,0,0,.26-.94.28-.94,2.13,0,4.83,0,6.96,0,0,0,0-.65-.01-.65-1.9.02-6.59,0-6.83,0,0,0,.3-.77.32-.77,1.82.04,4.05.01,5.87.01h.69v-.63h-6.37s.37-.81.43-.81c1.67.04,4.26,0,5.93.02,0,0-.01-.17-.01-.63h-5.67s.5-.66.51-.66c.3,0,3.11.01,4.54.01.2,0,.41,0,.65,0v-.63h-4.83s.45-.57.46-.57c1.34,0,2.98,0,4.37,0,0,.02-.01-.39-.01-.61h-3.74c1.57-3.06,8.88-3.06,11.28.03h-3.94v.63c.78,0,1.56,0,2.34,0,.6,0,1.52,0,2.11,0,0,0,.47.54.56.63h-5.02v.67c1.69,0,3.67-.01,5.32-.01.02,0,.53.68.51.68h-5.81c0,.23,0,.45,0,.65.16,0,4.23,0,6.01,0,.02,0,.36.69.37.69h-6.39v.64h4.12c.62,0,1.81-.01,2.42-.01.02,0,.39.87.37.87h-6.92Z"/>
        <path class="cls-3" d="m454.41,51.98v3.37h3.67v1.78h-10.36v-1.75h3.65v-3.42c-.26-.06-.54-.12-.82-.19-3.54-.87-6.07-3.08-7.94-6.12-1.41-2.29-2.19-4.8-2.49-7.47-.03-.27.01-.54-.41-.63-1.01-.21-1.52-1.02-1.33-1.97.16-.84.97-1.4,1.85-1.29.9.11,1.4.84,1.42,1.87.11,4.42,1.49,8.33,4.83,11.37,3.85,3.5,9.12,3.48,12.99,0,2.65-2.38,4.05-5.45,4.6-8.92.14-.85.11-1.72.11-2.58,0-.9.57-1.63,1.44-1.73.88-.11,1.67.46,1.83,1.31.17.87-.31,1.75-1.16,1.91-.5.1-.55.34-.6.74-.48,3.98-1.94,7.51-4.83,10.36-1.7,1.68-3.71,2.82-6.09,3.24-.12.02-.23.07-.36.12Z"/>
      </g>
      <g>
        <rect class="cls-3" x="434.31" y="28.4" width="2.06" height="18.98" rx=".98" ry=".98"/>
        <rect class="cls-3" x="429.69" y="31.2" width="2.06" height="13.86" rx=".98" ry=".98"/>
        <rect class="cls-3" x="420.76" y="33.79" width="2.06" height="8.74" rx=".98" ry=".98"/>
        <rect class="cls-3" x="425.25" y="25.73" width="2.06" height="25.65" rx=".98" ry=".98"/>
        <rect class="cls-3" x="469.47" y="29.73" width="2.06" height="18.98" rx=".98" ry=".98" transform="translate(941 78.45) rotate(180)"/>
        <rect class="cls-3" x="474.09" y="32.06" width="2.06" height="13.86" rx=".98" ry=".98" transform="translate(950.24 77.98) rotate(180)"/>
        <rect class="cls-3" x="483.03" y="34.58" width="2.06" height="8.74" rx=".98" ry=".98" transform="translate(968.11 77.91) rotate(-180)"/>
        <rect class="cls-3" x="478.54" y="25.73" width="2.06" height="25.65" rx=".98" ry=".98" transform="translate(959.13 77.12) rotate(180)"/>
      </g>
    </g>
  </g>
  <g>
    <path class="cls-2" d="m19.08,55.43h-4.12l2.26-16.09h4.12l-2.26,16.09Zm.7-17.98c-.7,0-1.3-.24-1.79-.73-.49-.49-.74-1.08-.74-1.78s.25-1.28.74-1.78c.49-.49,1.09-.74,1.79-.74s1.28.25,1.77.74c.49.49.74,1.09.74,1.78s-.25,1.29-.74,1.78c-.49.49-1.08.73-1.77.73Z"/>
    <path class="cls-2" d="m27.28,27.43h11.85l-.51,3.91h-7.69l-.63,4.55h7.73l-.5,3.88h-7.76l-.81,5.84h7.82l-.5,3.85h-12l3.01-22.04Z"/>
    <path class="cls-2" d="m51.28,35.44l-1.91,3.06c-.49-.73-1.01-1.27-1.55-1.61s-1.05-.52-1.52-.52c-.36,0-.67.1-.92.3s-.37.42-.37.67.1.48.3.72c.19.24.77.7,1.73,1.39,1.53,1.1,2.54,2.04,3.03,2.82.49.78.73,1.64.73,2.55,0,1.21-.5,2.35-1.49,3.43-.99,1.08-2.43,1.62-4.32,1.62-1.09,0-2.08-.22-2.97-.66-.89-.44-1.89-1.24-2.99-2.41l2.47-2.88c1.12,1.48,2.34,2.22,3.67,2.22.53,0,.95-.13,1.27-.38.31-.26.47-.56.47-.91,0-.28-.12-.57-.36-.86-.24-.29-.89-.82-1.96-1.58-1.24-.88-2.09-1.63-2.56-2.26-.66-.88-.99-1.81-.99-2.79,0-1.37.52-2.48,1.55-3.34,1.03-.86,2.25-1.29,3.66-1.29.99,0,1.93.23,2.82.7.89.47,1.63,1.13,2.22,1.99Z"/>
    <path class="cls-2" d="m70.73,36.54l-3.38,1.84c-.96-1.22-2.25-1.82-3.86-1.82-1.09,0-2.05.23-2.89.7-.84.46-1.51,1.13-2.01,2.01s-.75,1.81-.75,2.78c0,1.26.39,2.26,1.18,3.02.79.76,1.87,1.14,3.25,1.14,1.91,0,3.37-.64,4.39-1.93l3.14,2.22c-.89,1.06-2,1.89-3.32,2.49-1.32.6-2.8.9-4.43.9-2.54,0-4.54-.7-6-2.1-1.46-1.4-2.2-3.25-2.2-5.54,0-2.63.9-4.87,2.71-6.72,1.81-1.85,4.14-2.78,6.99-2.78,3.21,0,5.6,1.26,7.18,3.79Z"/>
    <path class="cls-2" d="m75.54,33.17h3.96l-1.14,8.33c-.12.92-.18,1.61-.18,2.07,0,.72.25,1.32.75,1.81.5.49,1.15.73,1.95.73,1.03,0,1.82-.31,2.38-.94.56-.63.96-1.91,1.22-3.84l1.12-8.16h3.96l-1.17,8.77c-.27,1.98-.72,3.51-1.36,4.59-.64,1.08-1.48,1.91-2.53,2.49-1.05.58-2.29.87-3.71.87-2,0-3.6-.58-4.78-1.73-1.18-1.15-1.77-2.65-1.77-4.47,0-1.12.13-2.56.39-4.31l.91-6.2Z"/>
    <path class="cls-2" d="m108.78,36.54l-3.38,1.84c-.96-1.22-2.25-1.82-3.86-1.82-1.09,0-2.05.23-2.89.7-.84.46-1.51,1.13-2.01,2.01s-.75,1.81-.75,2.78c0,1.26.39,2.26,1.18,3.02.79.76,1.87,1.14,3.25,1.14,1.91,0,3.37-.64,4.39-1.93l3.14,2.22c-.89,1.06-2,1.89-3.32,2.49-1.32.6-2.8.9-4.43.9-2.54,0-4.54-.7-6-2.1-1.46-1.4-2.2-3.25-2.2-5.54,0-2.63.9-4.87,2.71-6.72,1.81-1.85,4.14-2.78,6.99-2.78,3.21,0,5.6,1.26,7.18,3.79Z"/>
    <path class="cls-2" d="m114.41,26.87h3.98l-1.08,7.94c1.53-1.38,3.12-2.07,4.77-2.07,1.41,0,2.57.45,3.47,1.34.9.89,1.35,2.02,1.35,3.38,0,.64-.08,1.59-.25,2.86l-1.25,9.13h-3.99l1.22-8.91c.12-.92.18-1.61.18-2.07,0-.66-.19-1.17-.56-1.52-.38-.35-.91-.53-1.6-.53s-1.34.23-2.01.7c-.67.47-1.19,1.11-1.55,1.93-.36.82-.69,2.37-.99,4.64l-.78,5.76h-3.99l3.09-22.59Z"/>
    <path class="cls-2" d="m143.93,33.17h4l-2.27,16.3h-3.96l.24-1.75c-.87.81-1.68,1.37-2.44,1.69-.76.32-1.6.48-2.54.48-2.16,0-3.88-.79-5.15-2.38-1.27-1.59-1.91-3.44-1.91-5.54,0-1.61.41-3.14,1.22-4.59s1.91-2.59,3.29-3.4c1.38-.81,2.81-1.22,4.31-1.22,1.01,0,1.94.23,2.79.69.85.46,1.55,1.14,2.11,2.02l.31-2.29Zm-6.01,13.15c.99,0,1.84-.22,2.58-.66.73-.44,1.35-1.13,1.85-2.06.5-.94.75-1.89.75-2.87,0-1.29-.38-2.33-1.12-3.12-.75-.79-1.74-1.18-2.96-1.18-1.43,0-2.64.52-3.63,1.57-.99,1.05-1.49,2.4-1.49,4.06,0,1.28.38,2.31,1.13,3.09.75.78,1.72,1.17,2.91,1.17Z"/>
    <path class="cls-2" d="m172.77,33.17h4l-2.27,16.3h-3.96l.24-1.75c-.87.81-1.68,1.37-2.44,1.69-.76.32-1.6.48-2.54.48-2.16,0-3.88-.79-5.15-2.38-1.27-1.59-1.91-3.44-1.91-5.54,0-1.61.41-3.14,1.22-4.59s1.91-2.59,3.29-3.4c1.38-.81,2.81-1.22,4.31-1.22,1.01,0,1.94.23,2.79.69.85.46,1.55,1.14,2.11,2.02l.31-2.29Zm-6.01,13.15c.99,0,1.84-.22,2.58-.66.73-.44,1.35-1.13,1.85-2.06.5-.94.75-1.89.75-2.87,0-1.29-.38-2.33-1.12-3.12-.75-.79-1.74-1.18-2.96-1.18-1.43,0-2.64.52-3.63,1.57-.99,1.05-1.49,2.4-1.49,4.06,0,1.28.38,2.31,1.13,3.09.75.78,1.72,1.17,2.91,1.17Z"/>
    <path class="cls-2" d="m192.24,33.17h4l-3.09,22.26h-3.96l1.07-7.82c-.81.85-1.58,1.44-2.28,1.77s-1.5.5-2.38.5c-2.02,0-3.63-.79-4.83-2.38-1.19-1.59-1.79-3.44-1.79-5.54,0-1.61.39-3.14,1.15-4.59.77-1.45,1.81-2.59,3.1-3.4,1.3-.81,2.66-1.22,4.07-1.22.95,0,1.83.22,2.63.67s1.47,1.09,1.99,1.94l.3-2.19Zm-5.56,13.15c.9,0,1.69-.22,2.37-.67.67-.45,1.24-1.15,1.7-2.1.46-.95.69-1.93.69-2.92,0-1.26-.34-2.27-1.03-3.04-.69-.77-1.59-1.15-2.72-1.15-1.31,0-2.42.52-3.34,1.57-.91,1.05-1.37,2.4-1.37,4.06,0,1.28.35,2.31,1.04,3.09.69.78,1.58,1.17,2.67,1.17Z"/>
    <path class="cls-2" d="m201.35,33.17h3.96l-1.14,8.33c-.12.92-.18,1.61-.18,2.07,0,.72.25,1.32.75,1.81.5.49,1.15.73,1.95.73,1.03,0,1.82-.31,2.38-.94.56-.63.96-1.91,1.22-3.84l1.12-8.16h3.96l-1.17,8.77c-.27,1.98-.72,3.51-1.36,4.59-.64,1.08-1.48,1.91-2.53,2.49-1.05.58-2.29.87-3.71.87-2,0-3.6-.58-4.78-1.73-1.18-1.15-1.77-2.65-1.77-4.47,0-1.12.13-2.56.39-4.31l.91-6.2Z"/>
    <path class="cls-2" d="m219.18,33.17h3.96l-2.2,16.3h-3.99l2.23-16.3Zm4.05-8.82h4.84l-6.31,5.86h-2.94l4.41-5.86Z"/>
    <path class="cls-2" d="m245.64,44.7l3.52,1.82c-.79,1.04-1.83,1.86-3.14,2.46-1.3.6-2.75.9-4.34.9-2.49,0-4.45-.7-5.88-2.1-1.43-1.4-2.15-3.26-2.15-5.57,0-2.65.9-4.89,2.69-6.72,1.79-1.83,3.96-2.75,6.49-2.75,1.53,0,2.89.33,4.08,1,1.19.67,2.14,1.64,2.82,2.92.69,1.28,1.03,2.67,1.03,4.16,0,.47-.05,1.02-.15,1.65h-13c.04,1.13.41,2.04,1.12,2.71.7.67,1.68,1.01,2.91,1.01,1.5,0,2.83-.5,3.99-1.5Zm1.02-5.15c-.3-1-.8-1.76-1.5-2.27-.7-.51-1.54-.77-2.53-.77s-1.86.26-2.65.79c-.79.53-1.39,1.28-1.8,2.25h8.48Z"/>
    <path class="cls-2" d="m255.68,26.87h3.99l-3.09,22.59h-3.99l3.09-22.59Z"/>
    <path class="cls-2" d="m270.31,33.17h3.56l-.28,2.22c1.07-1.76,2.35-2.64,3.85-2.64.36,0,.73.1,1.12.29l-1.46,3.64c-.3-.11-.53-.16-.67-.16-.78,0-1.48.45-2.09,1.36-.61.9-1.1,2.73-1.45,5.48l-.79,6.13h-4.02l2.23-16.3Z"/>
    <path class="cls-2" d="m291.03,44.7l3.52,1.82c-.79,1.04-1.83,1.86-3.14,2.46-1.3.6-2.75.9-4.34.9-2.49,0-4.45-.7-5.88-2.1-1.43-1.4-2.15-3.26-2.15-5.57,0-2.65.9-4.89,2.69-6.72,1.79-1.83,3.96-2.75,6.49-2.75,1.53,0,2.89.33,4.08,1,1.19.67,2.14,1.64,2.82,2.92.69,1.28,1.03,2.67,1.03,4.16,0,.47-.05,1.02-.15,1.65h-13c.04,1.13.41,2.04,1.12,2.71.7.67,1.68,1.01,2.91,1.01,1.5,0,2.83-.5,3.99-1.5Zm1.02-5.15c-.3-1-.8-1.76-1.5-2.27-.7-.51-1.54-.77-2.53-.77s-1.86.26-2.65.79c-.79.53-1.39,1.28-1.8,2.25h8.48Z"/>
    <path class="cls-2" d="m309.61,35.44l-1.91,3.06c-.49-.73-1.01-1.27-1.55-1.61s-1.05-.52-1.52-.52c-.36,0-.67.1-.92.3s-.38.42-.38.67.1.48.3.72c.19.24.77.7,1.73,1.39,1.53,1.1,2.54,2.04,3.03,2.82s.73,1.64.73,2.55c0,1.21-.5,2.35-1.49,3.43-.99,1.08-2.43,1.62-4.32,1.62-1.09,0-2.08-.22-2.97-.66-.89-.44-1.89-1.24-2.99-2.41l2.47-2.88c1.12,1.48,2.34,2.22,3.67,2.22.53,0,.95-.13,1.27-.38.31-.26.47-.56.47-.91,0-.28-.12-.57-.36-.86-.24-.29-.89-.82-1.96-1.58-1.24-.88-2.09-1.63-2.56-2.26-.66-.88-.99-1.81-.99-2.79,0-1.37.52-2.48,1.55-3.34,1.03-.86,2.25-1.29,3.66-1.29.99,0,1.93.23,2.82.7.89.47,1.63,1.13,2.22,1.99Z"/>
    <path class="cls-2" d="m314.23,33.17h3.96l-1.14,8.33c-.12.92-.18,1.61-.18,2.07,0,.72.25,1.32.75,1.81.5.49,1.15.73,1.95.73,1.03,0,1.82-.31,2.38-.94.56-.63.96-1.91,1.22-3.84l1.12-8.16h3.96l-1.17,8.77c-.27,1.98-.72,3.51-1.36,4.59-.64,1.08-1.48,1.91-2.53,2.49-1.05.58-2.29.87-3.71.87-2,0-3.6-.58-4.78-1.73-1.18-1.15-1.77-2.65-1.77-4.47,0-1.12.13-2.56.39-4.31l.91-6.2Z"/>
    <path class="cls-2" d="m332.6,33.17h4.01l-.24,1.78c1.45-1.47,3.07-2.2,4.87-2.2.73,0,1.41.12,2.04.37.63.25,1.15.57,1.54.95.39.39.73.93,1.01,1.63.75-.96,1.63-1.7,2.64-2.2,1.01-.5,2.06-.75,3.14-.75,1.37,0,2.5.46,3.4,1.37.9.91,1.35,2.1,1.35,3.56,0,.55-.05,1.24-.15,2.06l-1.34,9.73h-3.99l1.14-8.37c.15-1.13.22-1.88.22-2.25,0-.77-.19-1.35-.58-1.75-.39-.4-.93-.6-1.63-.6s-1.37.24-2.07.73c-.7.48-1.23,1.13-1.59,1.93-.37.8-.67,2.19-.92,4.14l-.84,6.17h-3.99l1.21-8.87c.1-.72.15-1.34.15-1.85,0-.71-.21-1.28-.62-1.69-.41-.42-.95-.62-1.63-.62s-1.3.22-1.98.67c-.68.45-1.2,1.05-1.58,1.81-.38.77-.67,1.94-.88,3.52l-.92,7.03h-3.99l2.23-16.3Z"/>
    <path class="cls-2" d="m371.42,44.7l3.52,1.82c-.79,1.04-1.83,1.86-3.14,2.46-1.3.6-2.75.9-4.34.9-2.49,0-4.45-.7-5.88-2.1-1.43-1.4-2.15-3.26-2.15-5.57,0-2.65.9-4.89,2.69-6.72,1.79-1.83,3.96-2.75,6.49-2.75,1.53,0,2.89.33,4.08,1,1.19.67,2.14,1.64,2.82,2.92.69,1.28,1.03,2.67,1.03,4.16,0,.47-.05,1.02-.15,1.65h-13c.04,1.13.41,2.04,1.12,2.71.7.67,1.68,1.01,2.91,1.01,1.5,0,2.83-.5,3.99-1.5Zm1.02-5.15c-.3-1-.8-1.76-1.5-2.27-.7-.51-1.54-.77-2.53-.77s-1.86.26-2.65.79c-.79.53-1.39,1.28-1.8,2.25h8.48Z"/>
    <path class="cls-2" d="m381.08,33.17h3.99l-.23,1.65c1.53-1.38,3.12-2.07,4.77-2.07,1.41,0,2.57.45,3.46,1.34.9.89,1.35,2.02,1.35,3.38,0,.64-.08,1.59-.25,2.86l-1.25,9.13h-3.99l1.22-8.91c.12-.92.18-1.61.18-2.07,0-.66-.19-1.17-.56-1.52-.38-.35-.91-.53-1.6-.53s-1.34.23-2.02.7c-.67.46-1.19,1.11-1.55,1.93-.36.82-.69,2.37-.99,4.64l-.77,5.77h-3.99l2.23-16.3Z"/>
    <path class="cls-2" d="m399.78,44.85c.69,0,1.28.24,1.77.73.49.49.74,1.08.74,1.78s-.25,1.28-.74,1.78c-.49.49-1.09.74-1.77.74s-1.29-.25-1.78-.74c-.49-.49-.73-1.09-.73-1.78s.24-1.29.73-1.78c.49-.49,1.08-.73,1.78-.73Zm.69-17.98h4.12l-2.26,16.09h-4.12l2.26-16.09Z"/>
  </g>
</svg>