<?xml version="1.0" encoding="UTF-8"?>
<svg id="botones" xmlns="http://www.w3.org/2000/svg" xmlns:xlink="http://www.w3.org/1999/xlink" viewBox="0 0 278 91">
  <defs>
    <style>
      .cls-1 {
        fill: #f98213;
      }

      .cls-2 {
        fill: #fff;
      }

      .cls-3 {
        fill: none;
        filter: url(#drop-shadow-65);
      }
    </style>
    <filter id="drop-shadow-65" filterUnits="userSpaceOnUse">
      <feOffset dx="0" dy="4.61"/>
      <feGaussianBlur result="blur" stdDeviation="2.3"/>
      <feFlood flood-color="#010733" flood-opacity=".7"/>
      <feComposite in2="blur" operator="in"/>
      <feComposite in="SourceGraphic"/>
    </filter>
  </defs>
  <g class="cls-3">
    <path class="cls-1" d="m12.36,20.26h225.05c5.37,0,9.71,3.45,9.71,7.72v30.5c0,4.26-4.35,7.72-9.71,7.72H12.36c-5.36,0-9.71-3.45-9.71-7.72v-30.5c0-4.26,4.35-7.72,9.71-7.72Z"/>
    <g>
      <path class="cls-2" d="m38.79,34.8h3.22l1.5,12.51h.05l6.68-12.51h3.5l-8.98,16.08h-3.85l-2.12-16.08Z"/>
      <path class="cls-2" d="m55.44,45.9c0,2.19,1.17,2.99,3.29,2.99,1.27,0,2.49-.32,3.64-.85l-.39,2.44c-1.2.37-2.51.67-3.78.67-3.41,0-5.71-1.66-5.71-5.18s2.86-7.23,6.75-7.23c2.93,0,4.86,1.5,4.86,4.51,0,.9-.11,1.77-.3,2.65h-8.36Zm5.64-2.12c.05-.28.07-.53.07-.81,0-1.27-.67-1.98-1.96-1.98-1.91,0-2.74,1.15-3.34,2.79h5.23Z"/>
      <path class="cls-2" d="m80.82,49.06h-.05c-1.06,1.34-2.12,2.1-3.82,2.1-2.14,0-3.66-1.2-3.66-3.39,0-3.92,4.38-4.22,7.28-4.22h1.08c.09-.32.09-.67.09-1.01,0-1.2-1.29-1.54-2.37-1.54-1.36,0-2.67.35-3.89.92l.44-2.46c1.31-.46,2.65-.71,4.03-.71,2.37,0,4.61.88,4.61,3.66,0,1.59-1.18,6.24-1.45,8.48h-2.6l.32-1.82Zm-3.02-.16c2.3,0,3.02-1.59,3.5-3.5h-1.08c-1.5,0-3.98.25-3.98,2.26,0,.83.78,1.24,1.57,1.24Z"/>
      <path class="cls-2" d="m90.68,33.61h3.09l-3.66,17.27h-3.09l3.66-17.27Z"/>
      <path class="cls-2" d="m102.7,39.02h3.16l1.2,8.71h.05l4.68-8.71h3.27l-6.93,11.86h-3.41l-2-11.86Z"/>
      <path class="cls-2" d="m117.92,39.02h3.09l-2.53,11.86h-3.09l2.53-11.86Zm1.13-5.11h3.09l-.64,2.95h-3.09l.64-2.95Z"/>
      <path class="cls-2" d="m137.38,33.61l-3.2,14.65c-.18,1.01-.37,2.03-.44,2.63h-2.88l.3-1.75h-.05c-.92,1.29-2.07,2.03-3.87,2.03-2.81,0-4.08-2.35-4.08-4.93,0-3.55,1.93-7.49,5.97-7.49,1.52,0,2.69.58,3.66,1.68l1.5-6.82h3.09Zm-10.99,12.34c0,1.2.37,2.81,1.89,2.81,2.26,0,3.59-2.63,3.59-4.81,0-1.38-.67-2.81-2.23-2.81-2.21,0-3.25,3.04-3.25,4.81Z"/>
      <path class="cls-2" d="m140.91,45.9c0,2.19,1.18,2.99,3.29,2.99,1.27,0,2.49-.32,3.64-.85l-.39,2.44c-1.2.37-2.51.67-3.78.67-3.41,0-5.71-1.66-5.71-5.18s2.86-7.23,6.75-7.23c2.93,0,4.86,1.5,4.86,4.51,0,.9-.11,1.77-.3,2.65h-8.36Zm5.64-2.12c.05-.28.07-.53.07-.81,0-1.27-.67-1.98-1.96-1.98-1.91,0-2.74,1.15-3.34,2.79h5.23Z"/>
      <path class="cls-2" d="m164.35,43.95c0,4.17-2.88,7.21-7.07,7.21-3.36,0-5.39-2.07-5.39-5.41,0-3.96,3.04-7,7.03-7,3.2,0,5.44,1.93,5.44,5.21Zm-3.22.02c0-1.54-.53-2.83-2.35-2.83-2.44,0-3.66,2.69-3.66,4.84,0,1.57.64,2.79,2.42,2.79,2.4,0,3.59-2.76,3.59-4.79Z"/>
    </g>
    <g>
      <circle class="cls-2" cx="231.14" cy="43.22" r="39.65"/>
      <path class="cls-1" d="m231.14,85.44c-23.28,0-42.22-18.94-42.22-42.22S207.85,1,231.14,1s42.22,18.94,42.22,42.22-18.94,42.22-42.22,42.22Zm0-79.29c-20.44,0-37.07,16.63-37.07,37.07s16.63,37.07,37.07,37.07,37.07-16.63,37.07-37.07S251.57,6.15,231.14,6.15Z"/>
    </g>
    <polygon class="cls-1" points="220.31 43.22 220.31 24.96 236.12 34.09 251.93 43.22 236.12 52.35 220.31 61.48 220.31 43.22"/>
  </g>
</svg>