<?xml version="1.0" encoding="UTF-8"?>
<svg id="botones" xmlns="http://www.w3.org/2000/svg" xmlns:xlink="http://www.w3.org/1999/xlink" viewBox="0 0 278 91">
  <defs>
    <style>
      .cls-1 {
        fill: #f98213;
      }

      .cls-2 {
        fill: #e56005;
      }

      .cls-3 {
        fill: #fff;
      }

      .cls-4 {
        fill: none;
        filter: url(#drop-shadow-65);
      }
    </style>
    <filter id="drop-shadow-65" filterUnits="userSpaceOnUse">
      <feOffset dx="0" dy="4.61"/>
      <feGaussianBlur result="blur" stdDeviation="2.31"/>
      <feFlood flood-color="#010733" flood-opacity=".6"/>
      <feComposite in2="blur" operator="in"/>
      <feComposite in="SourceGraphic"/>
    </filter>
  </defs>
  <g class="cls-4">
    <path class="cls-1" d="m12.1,20.13h205.38c5.37,0,9.73,3.46,9.73,7.73v30.54c0,4.27-4.36,7.73-9.73,7.73H12.1c-5.37,0-9.73-3.46-9.73-7.73v-30.54c0-4.27,4.36-7.73,9.73-7.73Z"/>
    <g>
      <circle class="cls-1" cx="231.33" cy="43.29" r="42.29" transform="translate(-3.14 23.01) rotate(-5.65)"/>
      <path class="cls-2" d="m265.99,54.42c6.14-19.14-4.39-39.63-23.53-45.78-19.14-6.14-39.63,4.39-45.78,23.53-6.14,19.14,4.39,39.63,23.53,45.78,19.14,6.14,39.63-4.39,45.78-23.53Z"/>
      <g>
        <circle class="cls-1" cx="231.33" cy="43.29" r="30.98" transform="translate(1.04 91.82) rotate(-22.5)"/>
        <circle class="cls-3" cx="231.33" cy="43.29" r="24.6"/>
        <polygon class="cls-2" points="249.52 39.43 235.2 39.43 235.2 25.1 227.47 25.1 227.47 39.43 213.14 39.43 213.14 47.16 227.47 47.16 227.47 61.48 235.2 61.48 235.2 47.16 249.52 47.16 249.52 39.43"/>
      </g>
      <g>
        <path class="cls-3" d="m27.65,37.66c-.74-.51-1.96-.95-3.69-.95-3.57,0-6.09,2.7-6.09,6.48,0,2.7,1.75,5.1,4.59,5.1,1.36,0,2.47-.44,3.39-.99l-.51,3.09c-1.18.32-2.42.44-3.64.44-4.87,0-7.19-3.27-7.19-7.63,0-5.19,3.53-9.01,9.22-9.01,1.61,0,3.32.21,4.73.78l-.81,2.7Z"/>
        <path class="cls-3" d="m39.97,43.61c0,4.17-2.88,7.22-7.08,7.22-3.37,0-5.4-2.07-5.4-5.42,0-3.97,3.04-7.01,7.03-7.01,3.2,0,5.44,1.94,5.44,5.21Zm-3.23.02c0-1.54-.53-2.84-2.35-2.84-2.44,0-3.67,2.7-3.67,4.84,0,1.57.65,2.79,2.42,2.79,2.4,0,3.6-2.77,3.6-4.8Z"/>
        <path class="cls-3" d="m42.85,40.38c.14-.71.25-1.34.3-1.71h3.02l-.21,1.15h.05c.85-.78,2.03-1.43,3.37-1.43,2.33,0,3.87,1.45,3.87,3.8,0,.9-.23,1.84-.39,2.58l-1.24,5.76h-3.09l1.15-5.6c.16-.81.34-1.61.34-2.49,0-.99-.69-1.66-1.68-1.66-2.14,0-2.93,2.01-3.32,3.78l-1.27,5.97h-3.09l2.19-10.17Z"/>
        <path class="cls-3" d="m63.32,41.21c-.81-.3-1.66-.55-2.54-.55-.92,0-2.07.25-2.07,1.2,0,1.5,4.01,2.05,4.01,4.96,0,3.09-2.7,4.01-5.35,4.01-1.24,0-2.49-.18-3.62-.71l.67-2.47c.88.48,1.75.92,2.95.92,1.04,0,2.12-.35,2.12-1.31,0-1.91-4.01-2.1-4.01-5.07,0-2.79,2.7-3.78,5.14-3.78,1.13,0,2.28.21,3.37.48l-.67,2.33Z"/>
        <path class="cls-3" d="m75.22,48.84c-.14.72-.25,1.34-.3,1.71h-3.02l.21-1.15h-.05c-.85.78-2.03,1.43-3.37,1.43-2.33,0-3.87-1.45-3.87-3.8,0-.9.23-1.85.39-2.58l1.25-5.76h3.09l-1.15,5.6c-.16.81-.35,1.61-.35,2.49,0,.99.69,1.66,1.68,1.66,2.14,0,2.93-2.01,3.32-3.78l1.27-5.97h3.09l-2.19,10.17Z"/>
        <path class="cls-3" d="m81.36,33.26h3.09l-3.67,17.29h-3.09l3.67-17.29Z"/>
        <path class="cls-3" d="m84.86,38.68h2.24l.53-2.44,3.32-1.08-.76,3.53h2.77l-.48,2.26h-2.77l-1.13,5.19c-.07.28-.14.69-.14,1.15,0,.71.48,1.15,1.18,1.15.55,0,1.11-.11,1.5-.28l-.53,2.4c-.53.11-1.13.28-1.66.28-2.1,0-3.57-.83-3.57-3.11,0-.92.18-1.82.39-2.77l.88-4.01h-2.24l.48-2.26Z"/>
        <path class="cls-3" d="m99.69,48.73h-.05c-1.06,1.34-2.12,2.1-3.83,2.1-2.15,0-3.67-1.2-3.67-3.39,0-3.92,4.38-4.22,7.29-4.22h1.08c.09-.32.09-.67.09-1.01,0-1.2-1.29-1.54-2.38-1.54-1.36,0-2.67.34-3.9.92l.44-2.47c1.31-.46,2.65-.71,4.03-.71,2.38,0,4.61.88,4.61,3.67,0,1.59-1.18,6.25-1.45,8.49h-2.61l.32-1.82Zm-3.02-.16c2.31,0,3.02-1.59,3.5-3.5h-1.08c-1.5,0-3.99.25-3.99,2.26,0,.83.78,1.24,1.57,1.24Z"/>
        <path class="cls-3" d="m114.12,33.26h3.09l-3.67,17.29h-3.09l3.67-17.29Z"/>
        <path class="cls-3" d="m123.95,48.73h-.05c-1.06,1.34-2.12,2.1-3.83,2.1-2.15,0-3.67-1.2-3.67-3.39,0-3.92,4.38-4.22,7.29-4.22h1.08c.09-.32.09-.67.09-1.01,0-1.2-1.29-1.54-2.38-1.54-1.36,0-2.67.34-3.9.92l.44-2.47c1.31-.46,2.65-.71,4.03-.71,2.38,0,4.61.88,4.61,3.67,0,1.59-1.18,6.25-1.45,8.49h-2.61l.32-1.82Zm-3.02-.16c2.31,0,3.02-1.59,3.5-3.5h-1.08c-1.5,0-3.99.25-3.99,2.26,0,.83.78,1.24,1.57,1.24Z"/>
        <path class="cls-3" d="m136.91,40.38c.14-.71.25-1.34.3-1.71h3.02l-.21,1.15h.05c.85-.78,2.03-1.43,3.37-1.43,2.33,0,3.87,1.45,3.87,3.8,0,.9-.23,1.84-.39,2.58l-1.24,5.76h-3.09l1.15-5.6c.16-.81.34-1.61.34-2.49,0-.99-.69-1.66-1.68-1.66-2.14,0-2.93,2.01-3.32,3.78l-1.27,5.97h-3.09l2.19-10.17Z"/>
        <path class="cls-3" d="m161.28,43.61c0,4.17-2.88,7.22-7.08,7.22-3.37,0-5.4-2.07-5.4-5.42,0-3.97,3.04-7.01,7.03-7.01,3.2,0,5.44,1.94,5.44,5.21Zm-3.23.02c0-1.54-.53-2.84-2.35-2.84-2.44,0-3.67,2.7-3.67,4.84,0,1.57.65,2.79,2.42,2.79,2.4,0,3.6-2.77,3.6-4.8Z"/>
        <path class="cls-3" d="m163.19,38.68h2.24l.53-2.44,3.32-1.08-.76,3.53h2.77l-.48,2.26h-2.77l-1.13,5.19c-.07.28-.14.69-.14,1.15,0,.71.48,1.15,1.18,1.15.55,0,1.11-.11,1.5-.28l-.53,2.4c-.53.11-1.13.28-1.66.28-2.1,0-3.57-.83-3.57-3.11,0-.92.18-1.82.39-2.77l.88-4.01h-2.24l.48-2.26Z"/>
        <path class="cls-3" d="m178.02,48.73h-.05c-1.06,1.34-2.12,2.1-3.83,2.1-2.15,0-3.67-1.2-3.67-3.39,0-3.92,4.38-4.22,7.29-4.22h1.08c.09-.32.09-.67.09-1.01,0-1.2-1.29-1.54-2.38-1.54-1.36,0-2.67.34-3.9.92l.44-2.47c1.31-.46,2.65-.71,4.03-.71,2.38,0,4.61.88,4.61,3.67,0,1.59-1.18,6.25-1.45,8.49h-2.61l.32-1.82Zm-3.02-.16c2.31,0,3.02-1.59,3.5-3.5h-1.08c-1.5,0-3.99.25-3.99,2.26,0,.83.78,1.24,1.57,1.24Z"/>
      </g>
    </g>
  </g>
</svg>