<?xml version="1.0" encoding="UTF-8"?>
<svg id="botones" xmlns="http://www.w3.org/2000/svg" xmlns:xlink="http://www.w3.org/1999/xlink" viewBox="0 0 331.52 106">
  <defs>
    <style>
      .cls-1 {
        fill: #fff;
      }

      .cls-2 {
        fill: #231f20;
      }

      .cls-3 {
        fill: none;
        filter: url(#drop-shadow-26);
      }
    </style>
    <filter id="drop-shadow-26" filterUnits="userSpaceOnUse">
      <feOffset dx="0" dy="0"/>
      <feGaussianBlur result="blur" stdDeviation="5.34"/>
      <feFlood flood-color="#14373a" flood-opacity="1"/>
      <feComposite in2="blur" operator="in"/>
      <feComposite in="SourceGraphic"/>
    </filter>
  </defs>
  <g class="cls-3">
    <rect class="cls-2" x="6.77" y="22.54" width="315.88" height="53.55" rx="9" ry="9"/>
    <g>
      <path class="cls-1" d="m56.39,62.29l3.39-13.24h2.98l-2.15,13.24h-4.22Zm3.33-14.98l.78-3.76h3.76l-.78,3.76h-3.76Z"/>
      <path class="cls-1" d="m70.56,38.63h11.04l-.56,2.95h-7.33l-.97,4.62h6.55l-.59,2.95h-6.58l-1.1,5.26h7.41l-.64,2.95h-11.17l3.95-18.74Z"/>
      <path class="cls-1" d="m91.27,46.5c-.94-.35-1.93-.65-2.95-.65-1.07,0-2.42.3-2.42,1.4,0,1.75,4.67,2.39,4.67,5.77,0,3.6-3.14,4.67-6.23,4.67-1.45,0-2.9-.21-4.22-.83l.78-2.87c1.02.56,2.04,1.07,3.44,1.07,1.21,0,2.47-.4,2.47-1.53,0-2.23-4.67-2.44-4.67-5.91,0-3.25,3.14-4.4,5.99-4.4,1.32,0,2.66.24,3.92.56l-.78,2.71Z"/>
      <path class="cls-1" d="m103.54,46.71c-.7-.46-1.64-.7-2.63-.7-2.87,0-4.48,2.69-4.48,5.29,0,1.8.59,3.6,3.06,3.6.89,0,1.99-.24,2.93-.7l-.4,2.85c-1.1.54-2.28.65-3.46.65-3.57,0-5.88-2.39-5.88-5.96,0-4.83,3.2-8.51,8.16-8.51,1.34,0,2.63.24,3.6.54l-.89,2.95Z"/>
      <path class="cls-1" d="m116.5,55.39c-.16.83-.3,1.56-.35,1.99h-3.52l.24-1.34h-.05c-.99.91-2.36,1.67-3.92,1.67-2.71,0-4.51-1.69-4.51-4.43,0-1.05.27-2.15.46-3.01l1.45-6.71h3.6l-1.34,6.53c-.19.94-.4,1.88-.4,2.9,0,1.15.81,1.93,1.96,1.93,2.5,0,3.41-2.34,3.87-4.4l1.48-6.95h3.6l-2.55,11.84Zm-3.36-17.64h3.57l-3.44,3.92h-2.31l2.18-3.92Z"/>
      <path class="cls-1" d="m130.79,46.71c-.7-.46-1.64-.7-2.63-.7-2.87,0-4.48,2.69-4.48,5.29,0,1.8.59,3.6,3.06,3.6.89,0,1.99-.24,2.93-.7l-.4,2.85c-1.1.54-2.28.65-3.46.65-3.57,0-5.88-2.39-5.88-5.96,0-4.83,3.2-8.51,8.16-8.51,1.34,0,2.63.24,3.6.54l-.89,2.95Z"/>
      <path class="cls-1" d="m135.06,37.23h3.6l-1.72,7.65h.05c1-.91,2.36-1.67,3.92-1.67,2.71,0,4.51,1.69,4.51,4.43,0,1.05-.27,2.15-.46,3.01l-1.45,6.71h-3.6l1.34-6.53c.19-.94.4-1.88.4-2.9,0-1.15-.81-1.93-1.96-1.93-2.5,0-3.41,2.34-3.87,4.4l-1.48,6.95h-3.6l4.3-20.14Z"/>
      <path class="cls-1" d="m155.41,55.25h-.05c-1.24,1.56-2.47,2.44-4.46,2.44-2.5,0-4.27-1.4-4.27-3.95,0-4.57,5.1-4.92,8.49-4.92h1.26c.11-.38.11-.78.11-1.18,0-1.4-1.5-1.8-2.76-1.8-1.58,0-3.11.4-4.54,1.07l.51-2.87c1.53-.54,3.09-.83,4.7-.83,2.77,0,5.37,1.02,5.37,4.27,0,1.85-1.37,7.28-1.69,9.88h-3.04l.38-2.12Zm-3.52-.19c2.69,0,3.52-1.85,4.08-4.08h-1.26c-1.74,0-4.65.3-4.65,2.63,0,.97.91,1.45,1.83,1.45Z"/>
      <path class="cls-1" d="m163.57,45.53c.16-.83.3-1.56.35-1.99h3.52l-.24,1.34h.05c.99-.91,2.36-1.67,3.92-1.67,2.71,0,4.51,1.69,4.51,4.43,0,1.05-.27,2.15-.46,3.01l-1.45,6.71h-3.6l1.34-6.53c.19-.94.4-1.88.4-2.9,0-1.15-.81-1.93-1.96-1.93-2.5,0-3.41,2.34-3.87,4.4l-1.48,6.95h-3.6l2.55-11.84Z"/>
      <path class="cls-1" d="m191.95,49.29c0,4.86-3.36,8.41-8.24,8.41-3.92,0-6.28-2.42-6.28-6.31,0-4.62,3.55-8.16,8.19-8.16,3.73,0,6.34,2.26,6.34,6.07Zm-3.76.03c0-1.8-.62-3.3-2.74-3.3-2.85,0-4.27,3.14-4.27,5.64,0,1.83.75,3.25,2.82,3.25,2.79,0,4.19-3.22,4.19-5.58Z"/>
      <path class="cls-1" d="m203.29,46.5c-.94-.35-1.93-.65-2.95-.65-1.07,0-2.42.3-2.42,1.4,0,1.75,4.67,2.39,4.67,5.77,0,3.6-3.14,4.67-6.23,4.67-1.45,0-2.9-.21-4.22-.83l.78-2.87c1.02.56,2.04,1.07,3.44,1.07,1.21,0,2.47-.4,2.47-1.53,0-2.23-4.67-2.44-4.67-5.91,0-3.25,3.14-4.4,5.99-4.4,1.32,0,2.66.24,3.92.56l-.78,2.71Z"/>
      <path class="cls-1" d="m219.85,55.25h-.05c-1.23,1.56-2.47,2.44-4.46,2.44-2.5,0-4.27-1.4-4.27-3.95,0-4.57,5.1-4.92,8.48-4.92h1.26c.11-.38.11-.78.11-1.18,0-1.4-1.5-1.8-2.77-1.8-1.58,0-3.11.4-4.54,1.07l.51-2.87c1.53-.54,3.09-.83,4.7-.83,2.77,0,5.37,1.02,5.37,4.27,0,1.85-1.37,7.28-1.69,9.88h-3.03l.37-2.12Zm-3.52-.19c2.69,0,3.52-1.85,4.08-4.08h-1.26c-1.75,0-4.65.3-4.65,2.63,0,.97.91,1.45,1.83,1.45Z"/>
      <path class="cls-1" d="m234.94,55.57l-.05-.05c-.81,1.48-2.23,2.18-4.13,2.18-3.28,0-4.75-2.74-4.75-5.75,0-4.14,2.25-8.73,6.95-8.73,2.01,0,3.38.65,4.11,2.63h.05l.51-2.31h3.46c-.16.54-.38,1.34-.59,2.36l-3.62,17.11h-3.6l1.67-7.44Zm-2.98-.67c2.63,0,4.19-3.06,4.19-5.61,0-1.61-.78-3.28-2.61-3.28-2.58,0-3.79,3.55-3.79,5.61,0,1.4.43,3.28,2.2,3.28Z"/>
      <path class="cls-1" d="m254.33,55.39c-.16.83-.3,1.56-.35,1.99h-3.52l.24-1.34h-.05c-.99.91-2.36,1.67-3.92,1.67-2.71,0-4.51-1.69-4.51-4.43,0-1.05.27-2.15.46-3.01l1.45-6.71h3.6l-1.34,6.53c-.19.94-.4,1.88-.4,2.9,0,1.15.8,1.93,1.96,1.93,2.5,0,3.41-2.34,3.87-4.4l1.48-6.95h3.6l-2.55,11.84Z"/>
      <path class="cls-1" d="m260.15,43.54h3.6l-2.95,13.83h-3.6l2.95-13.83Zm2.2-5.8h3.57l-3.44,3.92h-2.31l2.18-3.92Z"/>
      <path class="cls-1" d="m270.17,53.61l-.78,3.76h-3.76l.78-3.76h3.76Zm-.89-14.98h4.22l-3.38,13.24h-2.98l2.15-13.24Z"/>
    </g>
  </g>
</svg>