<?xml version="1.0" encoding="UTF-8"?>
<svg id="botones" xmlns="http://www.w3.org/2000/svg" xmlns:xlink="http://www.w3.org/1999/xlink" viewBox="0 0 278 91">
  <defs>
    <style>
      .cls-1 {
        fill: #fff;
      }

      .cls-2 {
        fill: #669;
      }

      .cls-3 {
        fill: #336;
      }

      .cls-4 {
        fill: none;
        filter: url(#drop-shadow-29);
      }
    </style>
    <filter id="drop-shadow-29" filterUnits="userSpaceOnUse">
      <feOffset dx="0" dy="4.6"/>
      <feGaussianBlur result="blur" stdDeviation="2.3"/>
      <feFlood flood-color="#0e2823" flood-opacity=".7"/>
      <feComposite in2="blur" operator="in"/>
      <feComposite in="SourceGraphic"/>
    </filter>
  </defs>
  <g class="cls-4">
    <rect class="cls-3" x="2.11" y="20.8" width="211.29" height="47.13" rx="9.91" ry="9.91"/>
    <circle class="cls-3" cx="231.78" cy="43.5" r="42.1"/>
    <path class="cls-2" d="m266.28,54.57c6.12-19.05-4.37-39.46-23.43-45.57-19.05-6.12-39.46,4.37-45.57,23.43-6.12,19.05,4.37,39.46,23.43,45.57,19.05,6.12,39.46-4.37,45.57-23.43Z"/>
    <g>
      <circle class="cls-3" cx="231.78" cy="43.5" r="30.84" transform="translate(12.41 130.04) rotate(-32.16)"/>
      <circle class="cls-1" cx="231.78" cy="43.5" r="24.49" transform="translate(-3.82 53.95) rotate(-13.17)"/>
      <polygon class="cls-3" points="249.89 39.65 235.63 39.65 235.63 25.39 227.93 25.39 227.93 39.65 213.67 39.65 213.67 47.35 227.93 47.35 227.93 61.61 235.63 61.61 235.63 47.35 249.89 47.35 249.89 39.65"/>
    </g>
    <g>
      <path class="cls-1" d="m44.81,39.05c-.74-.51-1.96-.94-3.68-.94-3.57,0-6.08,2.69-6.08,6.47,0,2.69,1.75,5.09,4.58,5.09,1.36,0,2.46-.44,3.38-.99l-.51,3.08c-1.17.32-2.42.44-3.64.44-4.86,0-7.18-3.27-7.18-7.62,0-5.18,3.52-9,9.21-9,1.61,0,3.32.21,4.72.78l-.81,2.69Z"/>
      <path class="cls-1" d="m58.71,44.99c0,4.16-2.88,7.2-7.07,7.2-3.36,0-5.39-2.07-5.39-5.41,0-3.96,3.04-7,7.02-7,3.2,0,5.43,1.93,5.43,5.2Zm-3.22.02c0-1.54-.53-2.83-2.35-2.83-2.44,0-3.66,2.69-3.66,4.83,0,1.57.64,2.78,2.42,2.78,2.39,0,3.59-2.76,3.59-4.79Z"/>
      <path class="cls-1" d="m63.19,41.77c.14-.71.25-1.34.3-1.7h3.02l-.21,1.15h.05c.85-.78,2.03-1.43,3.36-1.43,2.32,0,3.87,1.45,3.87,3.8,0,.9-.23,1.84-.39,2.58l-1.24,5.75h-3.08l1.15-5.59c.16-.8.35-1.61.35-2.48,0-.99-.69-1.66-1.68-1.66-2.14,0-2.92,2-3.31,3.77l-1.27,5.96h-3.08l2.19-10.15Z"/>
      <path class="cls-1" d="m89.13,44.99c0,4.16-2.88,7.2-7.07,7.2-3.36,0-5.39-2.07-5.39-5.41,0-3.96,3.04-7,7.02-7,3.2,0,5.43,1.93,5.43,5.2Zm-3.22.02c0-1.54-.53-2.83-2.35-2.83-2.44,0-3.66,2.69-3.66,4.83,0,1.57.64,2.78,2.42,2.78,2.39,0,3.59-2.76,3.59-4.79Z"/>
      <path class="cls-1" d="m101.22,42.78c-.6-.39-1.4-.6-2.26-.6-2.46,0-3.84,2.3-3.84,4.53,0,1.54.51,3.08,2.62,3.08.76,0,1.7-.21,2.51-.6l-.35,2.44c-.94.46-1.96.55-2.97.55-3.06,0-5.04-2.05-5.04-5.11,0-4.14,2.74-7.3,7-7.3,1.15,0,2.26.21,3.08.46l-.76,2.53Z"/>
      <path class="cls-1" d="m106,46.95c0,2.18,1.17,2.99,3.29,2.99,1.27,0,2.49-.32,3.64-.85l-.39,2.44c-1.2.37-2.51.67-3.77.67-3.41,0-5.71-1.66-5.71-5.18s2.85-7.23,6.74-7.23c2.92,0,4.86,1.5,4.86,4.51,0,.9-.11,1.77-.3,2.65h-8.36Zm5.64-2.12c.05-.28.07-.53.07-.81,0-1.27-.67-1.98-1.96-1.98-1.91,0-2.74,1.15-3.34,2.78h5.22Z"/>
      <path class="cls-1" d="m126.46,41.38c.09-.46.18-.94.25-1.31h2.88l-.28,1.59h.05c.83-1.22,2.19-1.87,3.64-1.87s2.85.83,3.02,2.26h.05c.78-1.54,2.51-2.26,4.17-2.26,1.77,0,3.29,1.45,3.29,3.25,0,1.06-.28,2.25-.53,3.22l-1.24,5.66h-3.08l1.24-5.78c.16-.71.39-1.82.39-2.53,0-.88-.67-1.43-1.45-1.43-2.14,0-2.67,2.48-3.06,4.1l-1.22,5.64h-3.08l1.24-5.78c.16-.71.39-1.82.39-2.53,0-.88-.67-1.43-1.45-1.43-2.09,0-2.67,2.51-3.06,4.1l-1.22,5.64h-3.08l2.16-10.54Z"/>
      <path class="cls-1" d="m153.44,50.1h-.05c-1.06,1.34-2.12,2.1-3.82,2.1-2.14,0-3.66-1.2-3.66-3.38,0-3.91,4.37-4.21,7.27-4.21h1.08c.09-.32.09-.67.09-1.01,0-1.2-1.29-1.54-2.37-1.54-1.36,0-2.67.34-3.89.92l.44-2.46c1.31-.46,2.65-.71,4.03-.71,2.37,0,4.6.88,4.6,3.66,0,1.59-1.17,6.24-1.45,8.47h-2.6l.32-1.82Zm-3.02-.16c2.3,0,3.02-1.59,3.5-3.5h-1.08c-1.5,0-3.98.25-3.98,2.25,0,.83.78,1.24,1.57,1.24Zm3.11-14.85h3.06l-2.95,3.36h-1.98l1.86-3.36Z"/>
      <path class="cls-1" d="m168.88,42.6c-.81-.3-1.66-.55-2.53-.55-.92,0-2.07.25-2.07,1.2,0,1.5,4.01,2.05,4.01,4.95,0,3.08-2.69,4.01-5.34,4.01-1.24,0-2.49-.19-3.61-.71l.67-2.46c.88.49,1.75.92,2.95.92,1.04,0,2.12-.34,2.12-1.31,0-1.91-4-2.09-4-5.06,0-2.78,2.69-3.78,5.13-3.78,1.13,0,2.28.21,3.36.49l-.67,2.32Z"/>
    </g>
  </g>
</svg>